AndadaPro-Medium.ufo
<glyph name="exclam" format="2">
  <advance width="319.375"/>
  <unicode hex="0021"/>
  <outline>
    <contour>
      <point x="189.27272727272728" y="217.8409090909091" type="line"/>
      <point x="197.52272727272728" y="225.0909090909091" type="line"/>
      <point x="194.52272727272728" y="309.25" type="line" smooth="yes"/>
      <point x="192.52272727272728" y="369.02272727272725"/>
      <point x="206.75" y="622.7727272727273"/>
      <point x="214.75" y="752.5454545454545" type="curve"/>
      <point x="194.5" y="771.7954545454545" type="line"/>
      <point x="110.75" y="764.3863636363636" type="line"/>
      <point x="121.0" y="287.25" type="line"/>
      <point x="120.0" y="221.25" type="line"/>
    </contour>
    <contour>
      <point x="163.02272727272728" y="-11.022727272727273" type="curve" smooth="yes"/>
      <point x="202.27272727272728" y="-11.022727272727273"/>
      <point x="223.5" y="17.0"/>
      <point x="223.5" y="56.04545454545455" type="curve" smooth="yes"/>
      <point x="223.5" y="95.70454545454545"/>
      <point x="201.86363636363637" y="122.52272727272728"/>
      <point x="163.02272727272728" y="122.52272727272728" type="curve" smooth="yes"/>
      <point x="123.77272727272727" y="122.52272727272728"/>
      <point x="101.75" y="95.0909090909091"/>
      <point x="101.75" y="56.04545454545455" type="curve" smooth="yes"/>
      <point x="101.75" y="14.613636363636363"/>
      <point x="124.56818181818181" y="-11.022727272727273"/>
    </contour>
  </outline>
</glyph>
<glyph name="quotedbl" format="2">
  <advance width="451.75"/>
  <unicode hex="0022"/>
  <outline>
    <contour>
      <point x="325.8181818181818" y="462.79545454545456" type="line"/>
      <point x="338.8181818181818" y="705.0" type="line"/>
      <point x="256.0681818181818" y="705.0" type="line"/>
      <point x="259.8636363636364" y="656.8409090909091"/>
      <point x="265.0681818181818" y="575.0"/>
      <point x="265.0681818181818" y="560.0" type="curve" smooth="yes"/>
      <point x="264.0681818181818" y="466.20454545454544" type="line"/>
    </contour>
    <contour>
      <point x="183.3181818181818" y="462.79545454545456" type="line"/>
      <point x="196.3181818181818" y="705.0" type="line"/>
      <point x="113.56818181818181" y="705.0" type="line"/>
      <point x="117.36363636363636" y="656.8409090909091"/>
      <point x="122.56818181818181" y="575.0"/>
      <point x="122.56818181818181" y="560.0" type="curve" smooth="yes"/>
      <point x="121.56818181818181" y="466.20454545454544" type="line"/>
    </contour>
  </outline>
</glyph>
<glyph name="numbersign" format="2">
  <advance width="663.375"/>
  <unicode hex="0023"/>
  <outline>
    <contour>
      <point x="401.6363636363636" y="-15.0" type="line"/>
      <point x="492.6363636363636" y="562.0" type="line"/>
      <point x="430.1363636363636" y="572.0" type="line"/>
      <point x="339.1363636363636" y="-5.0" type="line"/>
    </contour>
    <contour>
      <point x="74.38636363636364" y="148.75" type="line"/>
      <point x="569.3863636363636" y="148.75" type="line"/>
      <point x="569.3863636363636" y="222.25" type="line"/>
      <point x="74.38636363636364" y="217.25" type="line"/>
    </contour>
    <contour>
      <point x="229.63636363636363" y="-15.0" type="line"/>
      <point x="320.6363636363636" y="562.0" type="line"/>
      <point x="258.1363636363636" y="572.0" type="line"/>
      <point x="167.13636363636363" y="-5.0" type="line"/>
    </contour>
    <contour>
      <point x="94.38636363636364" y="335.75" type="line"/>
      <point x="589.3863636363636" y="340.75" type="line"/>
      <point x="589.3863636363636" y="409.25" type="line"/>
      <point x="94.38636363636364" y="409.25" type="line"/>
    </contour>
  </outline>
</glyph>
<glyph name="dollar" format="2">
  <advance width="580.0"/>
  <unicode hex="0024"/>
  <outline>
    <contour>
      <point x="282.45454545454544" y="-13.204545454545455" type="curve" smooth="yes"/>
      <point x="403.90909090909093" y="-13.204545454545455"/>
      <point x="501.34090909090907" y="47.88636363636364"/>
      <point x="501.34090909090907" y="167.9090909090909" type="curve" smooth="yes"/>
      <point x="501.34090909090907" y="370.1363636363636"/>
      <point x="197.0681818181818" y="357.09090909090907"/>
      <point x="197.0681818181818" y="491.59090909090907" type="curve" smooth="yes"/>
      <point x="197.0681818181818" y="551.8863636363636"/>
      <point x="241.4090909090909" y="583.6590909090909"/>
      <point x="296.20454545454544" y="583.6590909090909" type="curve" smooth="yes"/>
      <point x="344.20454545454544" y="583.6590909090909"/>
      <point x="382.1363636363636" y="571.5227272727273"/>
      <point x="427.6363636363636" y="548.7727272727273" type="curve"/>
      <point x="386.3636363636364" y="593.3636363636364" type="line"/>
      <point x="393.59090909090907" y="567.1136363636364"/>
      <point x="406.6363636363636" y="528.0681818181819"/>
      <point x="406.6363636363636" y="515.8863636363636" type="curve"/>
      <point x="407.25" y="472.20454545454544" type="line"/>
      <point x="464.1363636363636" y="467.6136363636364" type="line"/>
      <point x="476.9318181818182" y="612.6136363636364" type="line"/>
      <point x="417.52272727272725" y="627.6363636363636"/>
      <point x="351.27272727272725" y="641.6363636363636"/>
      <point x="291.25" y="641.6363636363636" type="curve" smooth="yes"/>
      <point x="176.79545454545453" y="641.6363636363636"/>
      <point x="92.1590909090909" y="580.3863636363636"/>
      <point x="92.1590909090909" y="473.3636363636364" type="curve" smooth="yes"/>
      <point x="92.1590909090909" y="275.25"/>
      <point x="394.25" y="293.3181818181818"/>
      <point x="394.25" y="150.5909090909091" type="curve" smooth="yes"/>
      <point x="394.25" y="84.29545454545455"/>
      <point x="348.27272727272725" y="49.56818181818182"/>
      <point x="281.3863636363636" y="49.56818181818182" type="curve" smooth="yes"/>
      <point x="226.13636363636363" y="49.56818181818182"/>
      <point x="178.13636363636363" y="69.25"/>
      <point x="144.29545454545453" y="84.86363636363636" type="curve"/>
      <point x="177.38636363636363" y="46.38636363636363" type="line"/>
      <point x="174.20454545454547" y="57.54545454545455"/>
      <point x="158.25" y="113.0"/>
      <point x="159.27272727272728" y="126.06818181818181" type="curve"/>
      <point x="161.0681818181818" y="174.5681818181818" type="line"/>
      <point x="95.5909090909091" y="179.36363636363637" type="line"/>
      <point x="81.5909090909091" y="32.18181818181818" type="line"/>
      <point x="116.61363636363636" y="12.590909090909092"/>
      <point x="194.25" y="-13.204545454545455"/>
    </contour>
    <contour>
      <point x="293.90909090909093" y="-154.0" type="line"/>
      <point x="300.90909090909093" y="15.0" type="line"/>
      <point x="253.4090909090909" y="15.0" type="line"/>
      <point x="246.4090909090909" y="-151.0" type="line"/>
    </contour>
    <contour>
      <point x="276.40909090909093" y="616.0" type="line"/>
      <point x="322.90909090909093" y="616.0" type="line"/>
      <point x="329.90909090909093" y="785.0" type="line"/>
      <point x="283.40909090909093" y="788.0" type="line"/>
    </contour>
  </outline>
</glyph>
<glyph name="ampersand" format="2">
  <advance width="830.75"/>
  <unicode hex="0026"/>
  <outline>
    <contour>
      <point x="583.5909090909091" y="0.0" type="line"/>
      <point x="738.3863636363636" y="0.0" type="line"/>
      <point x="745.7727272727273" y="56.27272727272727" type="line"/>
      <point x="670.1136363636364" y="62.65909090909091" type="line"/>
      <point x="609.6363636363636" y="107.13636363636364" type="line"/>
      <point x="504.40909090909093" y="208.27272727272728"/>
      <point x="407.5681818181818" y="303.04545454545456"/>
      <point x="319.75" y="396.09090909090907" type="curve" smooth="yes"/>
      <point x="280.04545454545456" y="438.20454545454544"/>
      <point x="261.45454545454544" y="476.79545454545456"/>
      <point x="261.45454545454544" y="520.5454545454545" type="curve" smooth="yes"/>
      <point x="261.45454545454544" y="573.6590909090909"/>
      <point x="300.15909090909093" y="609.0227272727273"/>
      <point x="352.52272727272725" y="609.0227272727273" type="curve" smooth="yes"/>
      <point x="391.52272727272725" y="609.0227272727273"/>
      <point x="430.34090909090907" y="591.8409090909091"/>
      <point x="469.75" y="573.6590909090909" type="curve"/>
      <point x="424.6136363636364" y="623.1818181818181" type="line"/>
      <point x="433.04545454545456" y="594.5454545454545"/>
      <point x="442.25" y="548.7045454545455"/>
      <point x="442.25" y="538.1136363636364" type="curve" smooth="yes"/>
      <point x="440.65909090909093" y="491.9318181818182" type="line"/>
      <point x="496.70454545454544" y="489.52272727272725" type="line"/>
      <point x="509.5" y="631.0" type="line"/>
      <point x="480.70454545454544" y="641.7954545454545"/>
      <point x="402.54545454545456" y="662.0"/>
      <point x="350.45454545454544" y="662.0" type="curve" smooth="yes"/>
      <point x="247.8181818181818" y="662.0"/>
      <point x="165.3181818181818" y="622.3409090909091"/>
      <point x="165.3181818181818" y="519.9318181818181" type="curve" smooth="yes"/>
      <point x="165.3181818181818" y="470.8636363636364"/>
      <point x="188.0" y="408.27272727272725"/>
      <point x="250.77272727272728" y="346.27272727272725" type="curve" smooth="yes"/>
      <point x="436.84090909090907" y="159.36363636363637"/>
      <point x="469.25" y="133.02272727272728"/>
      <point x="575.3863636363636" y="25.613636363636363" type="curve"/>
    </contour>
    <contour>
      <point x="321.84090909090907" y="-10.0" type="curve" smooth="yes"/>
      <point x="499.6818181818182" y="-10.0"/>
      <point x="610.3636363636364" y="110.29545454545455"/>
      <point x="612.0454545454545" y="267.20454545454544" type="curve" smooth="yes"/>
      <point x="613.2727272727273" y="310.54545454545456"/>
      <point x="616.25" y="337.1363636363636"/>
      <point x="617.4545454545455" y="345.5681818181818" type="curve"/>
      <point x="533.8863636363636" y="345.5681818181818" type="line"/>
      <point x="536.5" y="335.52272727272725"/>
      <point x="542.6818181818181" y="296.8181818181818"/>
      <point x="542.6818181818181" y="279.6136363636364" type="curve" smooth="yes"/>
      <point x="542.6818181818181" y="154.11363636363637"/>
      <point x="475.04545454545456" y="54.18181818181818"/>
      <point x="326.79545454545456" y="54.18181818181818" type="curve" smooth="yes"/>
      <point x="247.11363636363637" y="54.18181818181818"/>
      <point x="191.27272727272728" y="114.61363636363636"/>
      <point x="191.27272727272728" y="196.5681818181818" type="curve" smooth="yes"/>
      <point x="191.27272727272728" y="255.04545454545453"/>
      <point x="215.4318181818182" y="305.6818181818182"/>
      <point x="278.1363636363636" y="347.1363636363636" type="curve"/>
      <point x="243.54545454545456" y="396.0681818181818" type="line"/>
      <point x="149.9090909090909" y="347.04545454545456"/>
      <point x="94.36363636363636" y="282.6363636363636"/>
      <point x="94.36363636363636" y="187.9318181818182" type="curve" smooth="yes"/>
      <point x="94.36363636363636" y="63.5"/>
      <point x="196.38636363636363" y="-10.0"/>
    </contour>
    <contour>
      <point x="539.3409090909091" y="335.77272727272725" type="line"/>
      <point x="612.8636363636364" y="335.77272727272725" type="line"/>
      <point x="693.5909090909091" y="342.5681818181818" type="line"/>
      <point x="689.3863636363636" y="403.02272727272725" type="line"/>
      <point x="652.5909090909091" y="399.4318181818182"/>
      <point x="613.0909090909091" y="398.02272727272725"/>
      <point x="575.6818181818181" y="398.02272727272725" type="curve" smooth="yes"/>
      <point x="540.3863636363636" y="398.02272727272725"/>
      <point x="502.0" y="400.8181818181818"/>
      <point x="464.6136363636364" y="403.02272727272725" type="curve"/>
      <point x="459.6136363636364" y="347.77272727272725" type="line"/>
    </contour>
  </outline>
</glyph>
<glyph name="parenleft" format="2">
  <advance width="418.625"/>
  <unicode hex="0028"/>
  <outline>
    <contour>
      <point x="305.25" y="-103.79545454545455" type="curve"/>
      <point x="332.5" y="-82.54545454545455" type="line"/>
      <point x="246.9090909090909" y="50.93181818181818"/>
      <point x="203.3409090909091" y="206.5681818181818"/>
      <point x="203.3409090909091" y="358.0" type="curve" smooth="yes"/>
      <point x="203.3409090909091" y="510.84090909090907"/>
      <point x="247.3181818181818" y="665.2954545454545"/>
      <point x="332.5" y="798.5454545454545" type="curve"/>
      <point x="305.25" y="819.7954545454545" type="line"/>
      <point x="170.5" y="690.1818181818181"/>
      <point x="102.36363636363636" y="537.1818181818181"/>
      <point x="102.36363636363636" y="358.0" type="curve" smooth="yes"/>
      <point x="102.36363636363636" y="182.0"/>
      <point x="168.11363636363637" y="28.204545454545453"/>
    </contour>
  </outline>
</glyph>
<glyph name="parenright" format="2">
  <advance width="418.625"/>
  <unicode hex="0029"/>
  <outline>
    <contour>
      <point x="113.61363636363636" y="818.7954545454545" type="curve"/>
      <point x="86.36363636363636" y="797.5454545454545" type="line"/>
      <point x="171.95454545454547" y="664.0681818181819"/>
      <point x="215.52272727272728" y="508.4318181818182"/>
      <point x="215.52272727272728" y="357.0" type="curve" smooth="yes"/>
      <point x="215.52272727272728" y="204.1590909090909"/>
      <point x="171.54545454545453" y="49.70454545454545"/>
      <point x="86.36363636363636" y="-83.54545454545455" type="curve"/>
      <point x="113.61363636363636" y="-104.79545454545455" type="line"/>
      <point x="248.36363636363637" y="24.818181818181817"/>
      <point x="316.5" y="177.8181818181818"/>
      <point x="316.5" y="357.0" type="curve" smooth="yes"/>
      <point x="316.5" y="533.0"/>
      <point x="250.75" y="686.7954545454545"/>
    </contour>
  </outline>
</glyph>
<glyph name="asterisk" format="2">
  <advance width="495.875"/>
  <unicode hex="002A"/>
  <outline>
    <contour>
      <point x="163.4318181818182" y="428.79545454545456" type="line"/>
      <point x="267.04545454545456" y="573.8181818181819" type="line"/>
      <point x="225.38636363636363" y="605.0681818181819" type="line"/>
      <point x="106.36363636363636" y="472.04545454545456" type="line"/>
    </contour>
    <contour>
      <point x="248.4090909090909" y="559.3636363636364" type="line"/>
      <point x="262.4318181818182" y="607.8409090909091" type="line"/>
      <point x="96.20454545454545" y="676.6363636363636" type="line"/>
      <point x="75.18181818181819" y="606.9545454545455" type="line"/>
    </contour>
    <contour>
      <point x="332.9318181818182" y="425.79545454545456" type="line"/>
      <point x="387.79545454545456" y="472.25" type="line"/>
      <point x="270.77272727272725" y="604.0681818181819" type="line"/>
      <point x="231.11363636363637" y="569.8181818181819" type="line"/>
    </contour>
    <contour>
      <point x="219.54545454545453" y="581.3636363636364" type="line"/>
      <point x="272.02272727272725" y="583.5681818181819" type="line"/>
      <point x="278.4318181818182" y="761.0" type="line"/>
      <point x="206.54545454545453" y="756.7954545454545" type="line"/>
    </contour>
    <contour>
      <point x="249.54545454545453" y="560.3636363636364" type="line"/>
      <point x="422.77272727272725" y="608.9545454545455" type="line"/>
      <point x="397.54545454545456" y="676.6363636363636" type="line"/>
      <point x="233.3181818181818" y="608.8409090909091" type="line"/>
    </contour>
  </outline>
</glyph>
<glyph name="plus" format="2">
  <advance width="697.125"/>
  <unicode hex="002B"/>
  <outline>
    <contour>
      <point x="91.18181818181819" y="216.52272727272728" type="line"/>
      <point x="606.1818181818181" y="221.52272727272728" type="line"/>
      <point x="606.1818181818181" y="295.27272727272725" type="line"/>
      <point x="91.18181818181819" y="295.27272727272725" type="line"/>
    </contour>
    <contour>
      <point x="309.70454545454544" y="0.0" type="line"/>
      <point x="388.45454545454544" y="0.0" type="line"/>
      <point x="383.45454545454544" y="511.0" type="line"/>
      <point x="309.70454545454544" y="511.0" type="line"/>
    </contour>
  </outline>
</glyph>
<glyph name="comma" format="2">
  <advance width="326.375"/>
  <unicode hex="002C"/>
  <outline>
    <contour>
      <point x="99.36363636363636" y="-150.0" type="line"/>
      <point x="189.6590909090909" y="-129.0"/>
      <point x="233.29545454545453" y="-37.36363636363637"/>
      <point x="233.29545454545453" y="42.65909090909091" type="curve" smooth="yes"/>
      <point x="233.29545454545453" y="90.5"/>
      <point x="216.88636363636363" y="133.52272727272728"/>
      <point x="168.4318181818182" y="133.52272727272728" type="curve" smooth="yes"/>
      <point x="128.77272727272728" y="133.52272727272728"/>
      <point x="105.36363636363636" y="102.9090909090909"/>
      <point x="105.36363636363636" y="62.45454545454545" type="curve" smooth="yes"/>
      <point x="105.36363636363636" y="16.0"/>
      <point x="136.8181818181818" y="-22.454545454545453"/>
      <point x="195.77272727272728" y="-5.159090909090909" type="curve"/>
      <point x="158.63636363636363" y="13.704545454545455" type="line"/>
      <point x="171.63636363636363" y="-42.18181818181818"/>
      <point x="140.8409090909091" y="-91.38636363636364"/>
      <point x="88.95454545454545" y="-114.0" type="curve"/>
    </contour>
  </outline>
</glyph>
<glyph name="hyphen" format="2">
  <advance width="370.5"/>
  <unicode hex="002D"/>
  <outline>
    <contour>
      <point x="76.5909090909091" y="221.11363636363637" type="line"/>
      <point x="291.59090909090907" y="221.11363636363637" type="line"/>
      <point x="296.59090909090907" y="289.0681818181818" type="line"/>
      <point x="74.5909090909091" y="289.0681818181818" type="line"/>
    </contour>
  </outline>
</glyph>
<glyph name="period" format="2">
  <advance width="335.5"/>
  <unicode hex="002E"/>
  <outline>
    <contour>
      <point x="167.4318181818182" y="-11.022727272727273" type="curve" smooth="yes"/>
      <point x="210.27272727272728" y="-11.022727272727273"/>
      <point x="233.70454545454547" y="18.204545454545453"/>
      <point x="233.70454545454547" y="60.25" type="curve" smooth="yes"/>
      <point x="233.70454545454547" y="105.29545454545455"/>
      <point x="209.27272727272728" y="132.52272727272728"/>
      <point x="167.4318181818182" y="132.52272727272728" type="curve" smooth="yes"/>
      <point x="125.38636363636364" y="132.52272727272728"/>
      <point x="101.95454545454545" y="102.29545454545455"/>
      <point x="101.95454545454545" y="60.25" type="curve" smooth="yes"/>
      <point x="101.95454545454545" y="18.204545454545453"/>
      <point x="125.38636363636364" y="-11.022727272727273"/>
    </contour>
  </outline>
</glyph>
<glyph name="slash" format="2">
  <advance width="413.125"/>
  <unicode hex="002F"/>
  <outline>
    <contour>
      <point x="84.93181818181819" y="-66.5909090909091" type="line"/>
      <point x="394.70454545454544" y="751.75" type="line"/>
      <point x="328.15909090909093" y="773.0" type="line"/>
      <point x="17.386363636363637" y="-45.34090909090909" type="line"/>
    </contour>
  </outline>
</glyph>
<glyph name="zero" format="2">
  <advance width="655.25"/>
  <unicode hex="0030"/>
  <outline>
    <contour>
      <point x="327.8636363636364" y="-10.0" type="curve" smooth="yes"/>
      <point x="502.1363636363636" y="-10.0"/>
      <point x="570.3636363636364" y="146.0"/>
      <point x="570.3636363636364" y="326.0" type="curve"/>
      <point x="570.3636363636364" y="506.0"/>
      <point x="502.1363636363636" y="662.0"/>
      <point x="327.8636363636364" y="662.0" type="curve" smooth="yes"/>
      <point x="152.79545454545453" y="662.0"/>
      <point x="85.36363636363636" y="506.0"/>
      <point x="85.36363636363636" y="326.0" type="curve"/>
      <point x="85.36363636363636" y="146.0"/>
      <point x="152.79545454545453" y="-10.0"/>
    </contour>
    <contour>
      <point x="327.8636363636364" y="53.52272727272727" type="curve" smooth="yes"/>
      <point x="214.45454545454547" y="53.52272727272727"/>
      <point x="192.0909090909091" y="199.6590909090909"/>
      <point x="192.0909090909091" y="326.0" type="curve"/>
      <point x="192.0909090909091" y="452.34090909090907"/>
      <point x="214.45454545454547" y="599.2727272727273"/>
      <point x="327.8636363636364" y="599.2727272727273" type="curve" smooth="yes"/>
      <point x="441.27272727272725" y="599.2727272727273"/>
      <point x="462.84090909090907" y="452.34090909090907"/>
      <point x="462.84090909090907" y="326.0" type="curve" smooth="yes"/>
      <point x="462.84090909090907" y="199.6590909090909"/>
      <point x="441.27272727272725" y="53.52272727272727"/>
    </contour>
  </outline>
</glyph>
<glyph name="one" format="2">
  <advance width="494.875"/>
  <unicode hex="0031"/>
  <outline>
    <contour>
      <point x="82.18181818181819" y="-5.0" type="line"/>
      <point x="127.56818181818181" y="-3.0"/>
      <point x="243.4090909090909" y="0.0"/>
      <point x="259.25" y="0.0" type="curve" smooth="yes"/>
      <point x="429.34090909090907" y="0.0" type="line"/>
      <point x="436.1363636363636" y="55.88636363636364" type="line"/>
      <point x="285.8181818181818" y="66.0909090909091" type="line"/>
      <point x="329.5681818181818" y="23.545454545454547" type="line"/>
      <point x="323.15909090909093" y="72.4090909090909"/>
      <point x="317.34090909090907" y="124.1590909090909"/>
      <point x="317.34090909090907" y="169.9318181818182" type="curve" smooth="yes"/>
      <point x="317.34090909090907" y="426.0" type="line" smooth="yes"/>
      <point x="317.34090909090907" y="463.0"/>
      <point x="321.54545454545456" y="581.0"/>
      <point x="324.54545454545456" y="660.0" type="curve"/>
      <point x="270.8636363636364" y="672.0" type="line"/>
      <point x="64.38636363636364" y="507.0" type="line"/>
      <point x="92.63636363636364" y="462.5" type="line"/>
      <point x="262.3636363636364" y="537.0227272727273" type="line"/>
      <point x="226.4318181818182" y="558.1363636363636" type="line"/>
      <point x="226.4318181818182" y="139.9318181818182" type="line" smooth="yes"/>
      <point x="226.4318181818182" y="122.06818181818181"/>
      <point x="217.8181818181818" y="62.40909090909091"/>
      <point x="212.0" y="23.545454545454547" type="curve"/>
      <point x="257.15909090909093" y="69.0909090909091" type="line"/>
      <point x="77.18181818181819" y="47.5" type="line"/>
    </contour>
  </outline>
</glyph>
<glyph name="two" format="2">
  <advance width="595.625"/>
  <unicode hex="0032"/>
  <outline>
    <contour>
      <point x="488.1818181818182" y="-3.0" type="line"/>
      <point x="508.6363636363636" y="17.0" type="line"/>
      <point x="517.4318181818181" y="165.45454545454547" type="line"/>
      <point x="460.1136363636364" y="169.86363636363637" type="line"/>
      <point x="454.70454545454544" y="124.11363636363636" type="line"/>
      <point x="446.09090909090907" y="99.04545454545455"/>
      <point x="435.8863636363636" y="74.77272727272728"/>
      <point x="426.0681818181818" y="49.70454545454545" type="curve"/>
      <point x="479.4318181818182" y="92.04545454545455" type="line"/>
      <point x="438.1818181818182" y="85.8409090909091"/>
      <point x="376.1363636363636" y="79.02272727272728"/>
      <point x="355.6818181818182" y="79.02272727272728" type="curve" smooth="yes"/>
      <point x="136.88636363636363" y="79.02272727272728" type="line"/>
      <point x="138.6818181818182" y="45.31818181818182" type="line"/>
      <point x="413.8636363636364" y="292.1818181818182"/>
      <point x="485.4318181818182" y="376.6136363636364"/>
      <point x="485.4318181818182" y="499.54545454545456" type="curve" smooth="yes"/>
      <point x="485.4318181818182" y="602.1818181818181"/>
      <point x="409.0" y="662.0"/>
      <point x="281.6818181818182" y="662.0" type="curve" smooth="yes"/>
      <point x="211.6818181818182" y="662.0"/>
      <point x="161.79545454545453" y="652.5909090909091"/>
      <point x="94.0" y="626.2045454545455" type="curve"/>
      <point x="106.56818181818181" y="476.27272727272725" type="line"/>
      <point x="164.0909090909091" y="478.8863636363636" type="line"/>
      <point x="162.5" y="524.2727272727273" type="line" smooth="yes"/>
      <point x="161.70454545454547" y="535.6818181818181"/>
      <point x="173.11363636363637" y="583.3181818181819"/>
      <point x="180.3181818181818" y="612.3409090909091" type="curve"/>
      <point x="145.61363636363637" y="555.9545454545455" type="line"/>
      <point x="190.79545454545453" y="588.3636363636364"/>
      <point x="225.04545454545453" y="600.5909090909091"/>
      <point x="271.02272727272725" y="600.5909090909091" type="curve" smooth="yes"/>
      <point x="336.95454545454544" y="600.5909090909091"/>
      <point x="382.5" y="553.8863636363636"/>
      <point x="382.5" y="484.95454545454544" type="curve" smooth="yes"/>
      <point x="382.5" y="397.34090909090907"/>
      <point x="345.15909090909093" y="347.1818181818182"/>
      <point x="72.5909090909091" y="75.93181818181819" type="curve"/>
      <point x="86.5909090909091" y="0.0" type="line"/>
      <point x="368.84090909090907" y="0.0" type="line"/>
    </contour>
  </outline>
</glyph>
<glyph name="three" format="2">
  <advance width="536.75"/>
  <unicode hex="0033"/>
  <outline>
    <contour>
      <point x="71.0909090909091" y="-105.0" type="line"/>
      <point x="299.9318181818182" y="-80.63636363636364"/>
      <point x="459.02272727272725" y="32.0"/>
      <point x="459.02272727272725" y="168.4318181818182" type="curve" smooth="yes"/>
      <point x="459.02272727272725" y="258.6136363636364"/>
      <point x="392.52272727272725" y="323.29545454545456"/>
      <point x="280.3863636363636" y="341.5681818181818" type="curve"/>
      <point x="282.95454545454544" y="323.1363636363636" type="line"/>
      <point x="377.0" y="352.95454545454544"/>
      <point x="431.02272727272725" y="417.3636363636364"/>
      <point x="431.02272727272725" y="497.34090909090907" type="curve" smooth="yes"/>
      <point x="431.02272727272725" y="604.3863636363636"/>
      <point x="359.3863636363636" y="662.0"/>
      <point x="228.29545454545453" y="662.0" type="curve" smooth="yes"/>
      <point x="175.25" y="662.0"/>
      <point x="128.36363636363637" y="653.5909090909091"/>
      <point x="67.38636363636364" y="633.0" type="curve"/>
      <point x="80.5909090909091" y="484.8863636363636" type="line"/>
      <point x="138.9090909090909" y="488.29545454545456" type="line"/>
      <point x="137.3181818181818" y="534.1363636363636" type="line" smooth="yes"/>
      <point x="136.52272727272728" y="546.1363636363636"/>
      <point x="148.13636363636363" y="592.3863636363636"/>
      <point x="155.3409090909091" y="622.4090909090909" type="curve"/>
      <point x="122.0909090909091" y="566.5" type="line"/>
      <point x="158.38636363636363" y="593.8181818181819"/>
      <point x="181.70454545454547" y="603.4318181818181"/>
      <point x="224.6818181818182" y="603.4318181818181" type="curve" smooth="yes"/>
      <point x="291.59090909090907" y="603.4318181818181"/>
      <point x="329.1363636363636" y="561.9090909090909"/>
      <point x="329.1363636363636" y="485.84090909090907" type="curve" smooth="yes"/>
      <point x="329.1363636363636" y="400.65909090909093"/>
      <point x="267.5681818181818" y="350.6363636363636"/>
      <point x="140.0909090909091" y="335.02272727272725" type="curve"/>
      <point x="154.0909090909091" y="283.5" type="line"/>
      <point x="167.5" y="284.70454545454544"/>
      <point x="195.5" y="286.70454545454544"/>
      <point x="222.45454545454547" y="286.70454545454544" type="curve" smooth="yes"/>
      <point x="302.3863636363636" y="286.70454545454544"/>
      <point x="354.6818181818182" y="239.5681818181818"/>
      <point x="354.6818181818182" y="165.38636363636363" type="curve" smooth="yes"/>
      <point x="354.6818181818182" y="67.38636363636364"/>
      <point x="234.95454545454547" y="-20.545454545454547"/>
      <point x="53.06818181818182" y="-48.88636363636363" type="curve"/>
    </contour>
  </outline>
</glyph>
<glyph name="four" format="2">
  <advance width="609.0"/>
  <unicode hex="0034"/>
  <outline>
    <contour>
      <point x="105.31818181818181" y="198.70454545454547" type="line"/>
      <point x="371.8863636363636" y="198.70454545454547" type="line"/>
      <point x="371.8863636363636" y="258.6818181818182" type="line"/>
      <point x="126.04545454545455" y="255.5" type="line"/>
      <point x="143.29545454545453" y="223.5909090909091" type="line"/>
      <point x="352.79545454545456" y="533.1818181818181" type="line" smooth="yes"/>
      <point x="363.79545454545456" y="550.1818181818181"/>
      <point x="437.1363636363636" y="628.5"/>
      <point x="489.29545454545456" y="683.6363636363636" type="curve"/>
      <point x="416.34090909090907" y="739.0" type="line"/>
      <point x="57.56818181818182" y="256.5" type="line"/>
    </contour>
    <contour>
      <point x="250.6590909090909" y="-5.0" type="line"/>
      <point x="295.84090909090907" y="-3.0"/>
      <point x="360.77272727272725" y="0.0"/>
      <point x="387.20454545454544" y="0.0" type="curve" smooth="yes"/>
      <point x="528.0227272727273" y="0.0" type="line"/>
      <point x="534.6136363636364" y="55.88636363636364" type="line"/>
      <point x="411.04545454545456" y="65.88636363636364" type="line"/>
      <point x="454.79545454545456" y="23.545454545454547" type="line"/>
      <point x="449.0" y="70.95454545454545"/>
      <point x="443.3863636363636" y="128.95454545454547"/>
      <point x="443.3863636363636" y="166.36363636363637" type="curve" smooth="yes"/>
      <point x="443.3863636363636" y="425.15909090909093" type="line"/>
      <point x="358.27272727272725" y="395.45454545454544" type="line"/>
      <point x="358.27272727272725" y="140.3181818181818" type="line" smooth="yes"/>
      <point x="358.27272727272725" y="111.6590909090909"/>
      <point x="348.6818181818182" y="62.20454545454545"/>
      <point x="341.29545454545456" y="23.545454545454547" type="curve"/>
      <point x="389.02272727272725" y="68.88636363636364" type="line"/>
      <point x="245.6590909090909" y="47.5" type="line"/>
    </contour>
    <contour>
      <point x="428.1818181818182" y="198.70454545454547" type="line"/>
      <point x="535.7954545454545" y="198.70454545454547" type="line"/>
      <point x="535.7954545454545" y="270.29545454545456" type="line"/>
      <point x="428.1818181818182" y="263.5" type="line"/>
    </contour>
  </outline>
</glyph>
<glyph name="five" format="2">
  <advance width="540.75"/>
  <unicode hex="0035"/>
  <outline>
    <contour>
      <point x="92.63636363636364" y="-105.0" type="line"/>
      <point x="307.45454545454544" y="-81.11363636363636"/>
      <point x="462.52272727272725" y="13.5"/>
      <point x="462.52272727272725" y="177.45454545454547" type="curve" smooth="yes"/>
      <point x="462.52272727272725" y="300.84090909090907"/>
      <point x="375.5681818181818" y="366.29545454545456"/>
      <point x="238.9090909090909" y="366.29545454545456" type="curve" smooth="yes"/>
      <point x="200.5681818181818" y="366.29545454545456"/>
      <point x="164.3409090909091" y="359.5"/>
      <point x="136.45454545454547" y="351.8863636363636" type="curve"/>
      <point x="157.79545454545456" y="324.75" type="line"/>
      <point x="170.79545454545456" y="565.5454545454545" type="line"/>
      <point x="238.54545454545456" y="565.5454545454545" type="line"/>
      <point x="440.29545454545456" y="587.5" type="line"/>
      <point x="434.29545454545456" y="662.0" type="line"/>
      <point x="191.29545454545453" y="652.0" type="line"/>
      <point x="120.79545454545455" y="652.0" type="line"/>
      <point x="101.79545454545455" y="634.0" type="line"/>
      <point x="83.95454545454545" y="307.27272727272725" type="line"/>
      <point x="122.20454545454545" y="281.90909090909093" type="line"/>
      <point x="163.38636363636363" y="292.1136363636364"/>
      <point x="193.1818181818182" y="295.1136363636364"/>
      <point x="217.5681818181818" y="295.1136363636364" type="curve" smooth="yes"/>
      <point x="309.70454545454544" y="295.1136363636364"/>
      <point x="359.8181818181818" y="248.9318181818182"/>
      <point x="359.8181818181818" y="165.5909090909091" type="curve" smooth="yes"/>
      <point x="359.8181818181818" y="40.34090909090909"/>
      <point x="237.29545454545453" y="-24.409090909090907"/>
      <point x="74.61363636363636" y="-49.29545454545455" type="curve"/>
    </contour>
  </outline>
</glyph>
<glyph name="six" format="2">
  <advance width="610.375"/>
  <unicode hex="0036"/>
  <outline>
    <contour>
      <point x="314.0681818181818" y="-11.0" type="curve" smooth="yes"/>
      <point x="437.3181818181818" y="-11.0"/>
      <point x="537.3636363636364" y="77.5909090909091"/>
      <point x="537.3636363636364" y="200.8409090909091" type="curve" smooth="yes"/>
      <point x="537.3636363636364" y="329.8181818181818"/>
      <point x="458.59090909090907" y="404.25"/>
      <point x="330.40909090909093" y="404.25" type="curve" smooth="yes"/>
      <point x="303.6136363636364" y="404.25"/>
      <point x="276.6136363636364" y="397.27272727272725"/>
      <point x="250.61363636363637" y="388.6818181818182" type="curve"/>
      <point x="256.6136363636364" y="338.15909090909093" type="line"/>
      <point x="277.15909090909093" y="340.95454545454544"/>
      <point x="297.1136363636364" y="342.75"/>
      <point x="317.65909090909093" y="342.75" type="curve" smooth="yes"/>
      <point x="395.95454545454544" y="342.75"/>
      <point x="433.84090909090907" y="279.1363636363636"/>
      <point x="433.84090909090907" y="200.8409090909091" type="curve" smooth="yes"/>
      <point x="433.84090909090907" y="122.93181818181819"/>
      <point x="391.77272727272725" y="50.77272727272727"/>
      <point x="313.8636363636364" y="50.77272727272727" type="curve" smooth="yes"/>
      <point x="220.1818181818182" y="50.77272727272727"/>
      <point x="182.0909090909091" y="153.11363636363637"/>
      <point x="182.0909090909091" y="246.0" type="curve" smooth="yes"/>
      <point x="182.0909090909091" y="416.5681818181818"/>
      <point x="262.8863636363636" y="618.1363636363636"/>
      <point x="520.9090909090909" y="694.5227272727273" type="curve"/>
      <point x="508.09090909090907" y="747.0" type="line"/>
      <point x="218.8181818181818" y="693.2045454545455"/>
      <point x="80.36363636363636" y="457.0"/>
      <point x="80.36363636363636" y="246.0" type="curve" smooth="yes"/>
      <point x="80.36363636363636" y="95.77272727272727"/>
      <point x="163.04545454545453" y="-11.0"/>
    </contour>
  </outline>
</glyph>
<glyph name="seven" format="2">
  <advance width="571.5"/>
  <unicode hex="0037"/>
  <outline>
    <contour>
      <point x="218.29545454545453" y="-105.0" type="line"/>
      <point x="508.04545454545456" y="609.25" type="line"/>
      <point x="492.04545454545456" y="652.0" type="line"/>
      <point x="218.5909090909091" y="652.0" type="line" smooth="yes"/>
      <point x="200.79545454545453" y="652.0"/>
      <point x="139.0" y="657.0"/>
      <point x="97.0" y="661.0" type="curve"/>
      <point x="78.20454545454545" y="641.0" type="line"/>
      <point x="68.79545454545455" y="485.09090909090907" type="line"/>
      <point x="127.11363636363636" y="481.29545454545456" type="line"/>
      <point x="131.9318181818182" y="531.0681818181819" type="line" smooth="yes"/>
      <point x="132.9318181818182" y="539.8636363636364"/>
      <point x="152.1590909090909" y="578.3863636363636"/>
      <point x="163.1818181818182" y="602.8409090909091" type="curve"/>
      <point x="107.0" y="562.5" type="line"/>
      <point x="146.79545454545453" y="566.5"/>
      <point x="206.38636363636363" y="571.7045454545455"/>
      <point x="227.5909090909091" y="571.7045454545455" type="curve" smooth="yes"/>
      <point x="433.25" y="571.7045454545455" type="line"/>
      <point x="404.15909090909093" y="609.4318181818181" type="line"/>
      <point x="387.54545454545456" y="545.6136363636364"/>
      <point x="362.1136363636364" y="444.3636363636364"/>
      <point x="350.1136363636364" y="416.3863636363636" type="curve" smooth="yes"/>
      <point x="134.6590909090909" y="-77.9090909090909" type="line"/>
    </contour>
  </outline>
</glyph>
<glyph name="eight" format="2">
  <advance width="602.625"/>
  <unicode hex="0038"/>
  <outline>
    <contour>
      <point x="301.0681818181818" y="-10.0" type="curve" smooth="yes"/>
      <point x="418.6818181818182" y="-10.0"/>
      <point x="523.7727272727273" y="46.38636363636363"/>
      <point x="523.7727272727273" y="162.4090909090909" type="curve" smooth="yes"/>
      <point x="523.7727272727273" y="274.84090909090907"/>
      <point x="430.3636363636364" y="323.04545454545456"/>
      <point x="343.5681818181818" y="368.8636363636364" type="curve" smooth="yes"/>
      <point x="266.40909090909093" y="408.8636363636364"/>
      <point x="194.45454545454547" y="445.04545454545456"/>
      <point x="194.45454545454547" y="522.5909090909091" type="curve" smooth="yes"/>
      <point x="194.45454545454547" y="581.7045454545455"/>
      <point x="244.3409090909091" y="631.0227272727273"/>
      <point x="301.27272727272725" y="631.0227272727273" type="curve" smooth="yes"/>
      <point x="362.0" y="631.0227272727273"/>
      <point x="407.09090909090907" y="583.2954545454545"/>
      <point x="407.09090909090907" y="518.7954545454545" type="curve" smooth="yes"/>
      <point x="407.09090909090907" y="453.1136363636364"/>
      <point x="361.52272727272725" y="392.0681818181818"/>
      <point x="289.4318181818182" y="346.15909090909093" type="curve"/>
      <point x="318.8181818181818" y="314.15909090909093" type="line"/>
      <point x="417.75" y="357.6818181818182"/>
      <point x="501.77272727272725" y="432.8863636363636"/>
      <point x="501.77272727272725" y="519.0" type="curve" smooth="yes"/>
      <point x="501.77272727272725" y="624.4090909090909"/>
      <point x="403.5" y="682.0"/>
      <point x="301.27272727272725" y="682.0" type="curve" smooth="yes"/>
      <point x="196.6590909090909" y="682.0"/>
      <point x="100.56818181818181" y="623.6136363636364"/>
      <point x="100.56818181818181" y="521.2045454545455" type="curve" smooth="yes"/>
      <point x="100.56818181818181" y="405.34090909090907"/>
      <point x="192.38636363636363" y="358.3181818181818"/>
      <point x="279.77272727272725" y="313.3181818181818" type="curve" smooth="yes"/>
      <point x="354.34090909090907" y="273.9318181818182"/>
      <point x="425.09090909090907" y="237.75"/>
      <point x="425.09090909090907" y="160.4090909090909" type="curve" smooth="yes"/>
      <point x="425.09090909090907" y="88.88636363636364"/>
      <point x="369.40909090909093" y="41.77272727272727"/>
      <point x="301.27272727272725" y="41.77272727272727" type="curve" smooth="yes"/>
      <point x="228.95454545454547" y="41.77272727272727"/>
      <point x="176.25" y="89.70454545454545"/>
      <point x="176.25" y="164.20454545454547" type="curve" smooth="yes"/>
      <point x="176.25" y="242.0909090909091"/>
      <point x="249.86363636363637" y="309.45454545454544"/>
      <point x="328.1136363636364" y="347.5681818181818" type="curve"/>
      <point x="294.15909090909093" y="383.84090909090907" type="line"/>
      <point x="209.63636363636363" y="347.4318181818182"/>
      <point x="78.56818181818181" y="275.25"/>
      <point x="78.56818181818181" y="164.0" type="curve" smooth="yes"/>
      <point x="78.56818181818181" y="45.79545454545455"/>
      <point x="184.04545454545453" y="-10.0"/>
    </contour>
  </outline>
</glyph>
<glyph name="nine" format="2">
  <advance width="611.0"/>
  <unicode hex="0039"/>
  <outline>
    <contour>
      <point x="108.43181818181819" y="-106.5909090909091" type="line"/>
      <point x="404.0681818181818" y="-45.63636363636363"/>
      <point x="530.1590909090909" y="186.04545454545453"/>
      <point x="530.1590909090909" y="401.8181818181818" type="curve" smooth="yes"/>
      <point x="530.1590909090909" y="553.4090909090909"/>
      <point x="447.52272727272725" y="662.0"/>
      <point x="294.0681818181818" y="662.0" type="curve" smooth="yes"/>
      <point x="169.02272727272728" y="662.0"/>
      <point x="70.77272727272727" y="572.1590909090909"/>
      <point x="70.77272727272727" y="448.5681818181818" type="curve" smooth="yes"/>
      <point x="70.77272727272727" y="324.1363636363636"/>
      <point x="160.11363636363637" y="246.75"/>
      <point x="283.75" y="246.75" type="curve" smooth="yes"/>
      <point x="313.15909090909093" y="246.75"/>
      <point x="340.1363636363636" y="252.54545454545453"/>
      <point x="360.70454545454544" y="261.52272727272725" type="curve"/>
      <point x="353.90909090909093" y="311.25" type="line"/>
      <point x="334.5681818181818" y="308.65909090909093"/>
      <point x="316.40909090909093" y="308.25"/>
      <point x="295.25" y="308.25" type="curve" smooth="yes"/>
      <point x="223.38636363636363" y="308.25"/>
      <point x="175.0909090909091" y="373.79545454545456"/>
      <point x="175.0909090909091" y="448.5681818181818" type="curve" smooth="yes"/>
      <point x="175.0909090909091" y="528.0681818181819"/>
      <point x="213.1818181818182" y="601.0227272727273"/>
      <point x="291.8863636363636" y="601.0227272727273" type="curve" smooth="yes"/>
      <point x="383.9318181818182" y="601.0227272727273"/>
      <point x="424.45454545454544" y="497.15909090909093"/>
      <point x="424.45454545454544" y="401.8181818181818" type="curve" smooth="yes"/>
      <point x="424.45454545454544" y="231.25"/>
      <point x="356.90909090909093" y="29.431818181818183"/>
      <point x="93.5909090909091" y="-51.68181818181818" type="curve"/>
    </contour>
  </outline>
</glyph>
<glyph name="colon" format="2">
  <advance width="291.0"/>
  <unicode hex="003A"/>
  <outline>
    <contour>
      <point x="145.6590909090909" y="341.52272727272725" type="curve" smooth="yes"/>
      <point x="184.9090909090909" y="341.52272727272725"/>
      <point x="206.13636363636363" y="367.95454545454544"/>
      <point x="206.13636363636363" y="407.0" type="curve" smooth="yes"/>
      <point x="206.13636363636363" y="449.04545454545456"/>
      <point x="183.70454545454547" y="474.27272727272725"/>
      <point x="145.6590909090909" y="474.27272727272725" type="curve" smooth="yes"/>
      <point x="106.4090909090909" y="474.27272727272725"/>
      <point x="84.38636363636364" y="446.04545454545456"/>
      <point x="84.38636363636364" y="407.0" type="curve" smooth="yes"/>
      <point x="84.38636363636364" y="367.95454545454544"/>
      <point x="106.4090909090909" y="341.52272727272725"/>
    </contour>
    <contour>
      <point x="145.6590909090909" y="-11.022727272727273" type="curve" smooth="yes"/>
      <point x="184.9090909090909" y="-11.022727272727273"/>
      <point x="206.13636363636363" y="16.204545454545453"/>
      <point x="206.13636363636363" y="55.25" type="curve" smooth="yes"/>
      <point x="206.13636363636363" y="97.29545454545455"/>
      <point x="183.70454545454547" y="122.52272727272728"/>
      <point x="145.6590909090909" y="122.52272727272728" type="curve" smooth="yes"/>
      <point x="106.4090909090909" y="122.52272727272728"/>
      <point x="84.38636363636364" y="94.29545454545455"/>
      <point x="84.38636363636364" y="55.25" type="curve" smooth="yes"/>
      <point x="84.38636363636364" y="16.204545454545453"/>
      <point x="106.4090909090909" y="-11.022727272727273"/>
    </contour>
  </outline>
</glyph>
<glyph name="semicolon" format="2">
  <advance width="305.375"/>
  <unicode hex="003B"/>
  <outline>
    <contour>
      <point x="87.38636363636364" y="-151.0" type="line"/>
      <point x="177.6818181818182" y="-130.0"/>
      <point x="222.11363636363637" y="-38.36363636363637"/>
      <point x="222.11363636363637" y="41.65909090909091" type="curve" smooth="yes"/>
      <point x="222.11363636363637" y="89.5"/>
      <point x="205.70454545454547" y="132.52272727272728"/>
      <point x="157.25" y="132.52272727272728" type="curve" smooth="yes"/>
      <point x="116.79545454545455" y="132.52272727272728"/>
      <point x="93.38636363636364" y="101.9090909090909"/>
      <point x="93.38636363636364" y="61.45454545454545" type="curve" smooth="yes"/>
      <point x="93.38636363636364" y="15.0"/>
      <point x="124.8409090909091" y="-23.454545454545453"/>
      <point x="183.79545454545456" y="-6.159090909090909" type="curve"/>
      <point x="147.45454545454547" y="12.704545454545455" type="line"/>
      <point x="160.45454545454547" y="-43.18181818181818"/>
      <point x="129.6590909090909" y="-92.38636363636364"/>
      <point x="77.77272727272727" y="-115.0" type="curve"/>
    </contour>
    <contour>
      <point x="156.25" y="340.27272727272725" type="curve" smooth="yes"/>
      <point x="195.5" y="340.27272727272725"/>
      <point x="217.52272727272728" y="366.70454545454544"/>
      <point x="217.52272727272728" y="405.75" type="curve" smooth="yes"/>
      <point x="217.52272727272728" y="447.79545454545456"/>
      <point x="194.29545454545453" y="473.02272727272725"/>
      <point x="156.25" y="473.02272727272725" type="curve" smooth="yes"/>
      <point x="117.0" y="473.02272727272725"/>
      <point x="95.77272727272727" y="444.79545454545456"/>
      <point x="95.77272727272727" y="405.75" type="curve" smooth="yes"/>
      <point x="95.77272727272727" y="366.70454545454544"/>
      <point x="117.0" y="340.27272727272725"/>
    </contour>
  </outline>
</glyph>
<glyph name="less" format="2">
  <advance width="529.875"/>
  <unicode hex="003C"/>
  <outline>
    <contour>
      <point x="384.52272727272725" y="-15.0" type="line"/>
      <point x="438.3863636363636" y="40.90909090909091" type="line"/>
      <point x="158.88636363636363" y="273.5" type="line"/>
      <point x="158.88636363636363" y="222.9090909090909" type="line"/>
      <point x="437.59090909090907" y="457.09090909090907" type="line"/>
      <point x="382.9318181818182" y="513.0" type="line"/>
      <point x="82.1590909090909" y="247.4090909090909" type="line"/>
    </contour>
  </outline>
</glyph>
<glyph name="equal" format="2">
  <advance width="718.875"/>
  <unicode hex="003D"/>
  <outline>
    <contour>
      <point x="132.0" y="304.70454545454544" type="line"/>
      <point x="587.0" y="309.70454545454544" type="line"/>
      <point x="587.0" y="379.6818181818182" type="line"/>
      <point x="132.0" y="379.6818181818182" type="line"/>
    </contour>
    <contour>
      <point x="132.0" y="116.29545454545455" type="line"/>
      <point x="587.0" y="117.31818181818181" type="line"/>
      <point x="587.0" y="192.0681818181818" type="line"/>
      <point x="132.0" y="187.29545454545453" type="line"/>
    </contour>
  </outline>
</glyph>
<glyph name="greater" format="2">
  <advance width="529.875"/>
  <unicode hex="003E"/>
  <outline>
    <contour>
      <point x="145.4318181818182" y="-15.204545454545455" type="line"/>
      <point x="447.79545454545456" y="247.20454545454547" type="line"/>
      <point x="147.02272727272728" y="512.7954545454545" type="line"/>
      <point x="92.36363636363636" y="456.8863636363636" type="line"/>
      <point x="371.0681818181818" y="222.70454545454547" type="line"/>
      <point x="371.0681818181818" y="273.29545454545456" type="line"/>
      <point x="91.56818181818181" y="40.70454545454545" type="line"/>
    </contour>
  </outline>
</glyph>
<glyph name="question" format="2">
  <advance width="498.5"/>
  <unicode hex="003F"/>
  <outline>
    <contour>
      <point x="195.29545454545453" y="217.8409090909091" type="line"/>
      <point x="203.54545454545453" y="225.0909090909091" type="line"/>
      <point x="197.75" y="391.3863636363636" type="line"/>
      <point x="168.8409090909091" y="353.45454545454544" type="line"/>
      <point x="338.54545454545456" y="339.84090909090907"/>
      <point x="430.09090909090907" y="433.90909090909093"/>
      <point x="430.09090909090907" y="565.7954545454545" type="curve" smooth="yes"/>
      <point x="430.09090909090907" y="692.0454545454545"/>
      <point x="346.0681818181818" y="767.0"/>
      <point x="220.6590909090909" y="767.0" type="curve" smooth="yes"/>
      <point x="179.04545454545453" y="767.0"/>
      <point x="134.02272727272728" y="759.0"/>
      <point x="84.61363636363636" y="743.7954545454545" type="curve"/>
      <point x="94.20454545454545" y="595.75" type="line"/>
      <point x="153.6590909090909" y="596.7727272727273" type="line"/>
      <point x="151.6590909090909" y="632.7727272727273" type="line" smooth="yes"/>
      <point x="150.6590909090909" y="651.3636363636364"/>
      <point x="160.0681818181818" y="696.8181818181819"/>
      <point x="163.6818181818182" y="728.8636363636364" type="curve"/>
      <point x="101.1590909090909" y="684.5" type="line"/>
      <point x="138.75" y="699.7045454545455"/>
      <point x="172.95454545454547" y="707.7045454545455"/>
      <point x="203.75" y="707.7045454545455" type="curve" smooth="yes"/>
      <point x="288.65909090909093" y="707.7045454545455"/>
      <point x="331.09090909090907" y="648.2045454545455"/>
      <point x="331.09090909090907" y="561.0" type="curve" smooth="yes"/>
      <point x="331.09090909090907" y="477.04545454545456"/>
      <point x="289.8863636363636" y="412.09090909090907"/>
      <point x="198.20454545454547" y="412.09090909090907" type="curve" smooth="yes"/>
      <point x="186.0" y="412.09090909090907"/>
      <point x="161.77272727272728" y="413.8863636363636"/>
      <point x="146.36363636363637" y="415.8863636363636" type="curve"/>
      <point x="119.3409090909091" y="390.6363636363636" type="line"/>
      <point x="119.3409090909091" y="221.04545454545453" type="line"/>
    </contour>
    <contour>
      <point x="154.04545454545453" y="-11.022727272727273" type="curve" smooth="yes"/>
      <point x="193.29545454545453" y="-11.022727272727273"/>
      <point x="215.3181818181818" y="17.0"/>
      <point x="215.3181818181818" y="56.04545454545455" type="curve" smooth="yes"/>
      <point x="215.3181818181818" y="95.70454545454545"/>
      <point x="192.88636363636363" y="122.52272727272728"/>
      <point x="154.04545454545453" y="122.52272727272728" type="curve" smooth="yes"/>
      <point x="114.79545454545455" y="122.52272727272728"/>
      <point x="93.56818181818181" y="95.0909090909091"/>
      <point x="93.56818181818181" y="56.04545454545455" type="curve" smooth="yes"/>
      <point x="93.56818181818181" y="14.613636363636363"/>
      <point x="115.5909090909091" y="-11.022727272727273"/>
    </contour>
  </outline>
</glyph>
<glyph name="at" format="2">
  <advance width="1037.625"/>
  <unicode hex="0040"/>
  <outline>
    <contour>
      <point x="532.1136363636364" y="-213.0" type="curve" smooth="yes"/>
      <point x="570.9318181818181" y="-213.0"/>
      <point x="670.3409090909091" y="-170.95454545454547"/>
      <point x="738.1590909090909" y="-140.52272727272728" type="curve"/>
      <point x="722.1590909090909" y="-108.0909090909091" type="line"/>
      <point x="658.5454545454545" y="-124.29545454545455"/>
      <point x="561.1590909090909" y="-148.5"/>
      <point x="532.1136363636364" y="-148.5" type="curve" smooth="yes"/>
      <point x="286.9318181818182" y="-148.5"/>
      <point x="196.9090909090909" y="12.65909090909091"/>
      <point x="196.9090909090909" y="232.0" type="curve" smooth="yes"/>
      <point x="196.9090909090909" y="358.8181818181818"/>
      <point x="241.9318181818182" y="615.5"/>
      <point x="527.1136363636364" y="615.5" type="curve" smooth="yes"/>
      <point x="732.7045454545455" y="615.5"/>
      <point x="856.5" y="481.34090909090907"/>
      <point x="856.5" y="287.0" type="curve" smooth="yes"/>
      <point x="856.5" y="193.04545454545453"/>
      <point x="823.1136363636364" y="69.5"/>
      <point x="729.7727272727273" y="48.5" type="curve"/>
      <point x="676.9545454545455" y="0.0" type="line"/>
      <point x="849.0227272727273" y="14.0"/>
      <point x="942.0681818181819" y="153.45454545454547"/>
      <point x="942.0681818181819" y="287.0" type="curve" smooth="yes"/>
      <point x="942.0681818181819" y="527.0"/>
      <point x="778.4090909090909" y="667.0"/>
      <point x="527.1136363636364" y="667.0" type="curve" smooth="yes"/>
      <point x="216.20454545454547" y="667.0"/>
      <point x="102.1590909090909" y="447.0"/>
      <point x="102.1590909090909" y="232.0" type="curve" smooth="yes"/>
      <point x="102.1590909090909" y="25.0"/>
      <point x="192.79545454545453" y="-213.0"/>
    </contour>
    <contour>
      <point x="483.0" y="-10.0" type="curve" smooth="yes"/>
      <point x="556.4318181818181" y="-10.0"/>
      <point x="630.0909090909091" y="37.15909090909091"/>
      <point x="649.1590909090909" y="101.5" type="curve"/>
      <point x="633.0909090909091" y="117.5" type="line"/>
      <point x="652.8636363636364" y="0.0" type="line"/>
      <point x="676.9545454545455" y="0.0" type="line"/>
      <point x="732.3863636363636" y="34.02272727272727" type="line"/>
      <point x="727.3863636363636" y="60.25"/>
      <point x="717.3863636363636" y="108.29545454545455"/>
      <point x="717.3863636363636" y="169.9318181818182" type="curve" smooth="yes"/>
      <point x="717.3863636363636" y="295.15909090909093" type="line" smooth="yes"/>
      <point x="717.3863636363636" y="443.3636363636364"/>
      <point x="667.4318181818181" y="503.0"/>
      <point x="547.3636363636364" y="503.0" type="curve" smooth="yes"/>
      <point x="489.04545454545456" y="503.0"/>
      <point x="427.20454545454544" y="494.1818181818182"/>
      <point x="367.20454545454544" y="478.3863636363636" type="curve"/>
      <point x="379.02272727272725" y="339.04545454545456" type="line"/>
      <point x="439.70454545454544" y="342.04545454545456" type="line"/>
      <point x="438.70454545454544" y="382.4318181818182" type="line"/>
      <point x="451.9318181818182" y="463.75" type="line"/>
      <point x="418.02272727272725" y="414.4318181818182" type="line"/>
      <point x="441.27272727272725" y="428.79545454545456"/>
      <point x="497.40909090909093" y="444.6136363636364"/>
      <point x="537.3863636363636" y="444.6136363636364" type="curve" smooth="yes"/>
      <point x="599.3409090909091" y="444.6136363636364"/>
      <point x="629.0909090909091" y="402.1136363636364"/>
      <point x="629.0909090909091" y="312.45454545454544" type="curve" smooth="yes"/>
      <point x="629.0909090909091" y="165.75" type="line"/>
      <point x="619.0909090909091" y="104.27272727272727"/>
      <point x="566.6363636363636" y="58.79545454545455"/>
      <point x="503.79545454545456" y="58.79545454545455" type="curve" smooth="yes"/>
      <point x="458.04545454545456" y="58.79545454545455"/>
      <point x="433.09090909090907" y="86.75"/>
      <point x="433.09090909090907" y="135.70454545454547" type="curve" smooth="yes"/>
      <point x="433.09090909090907" y="171.11363636363637"/>
      <point x="455.25" y="194.88636363636363"/>
      <point x="494.6363636363636" y="201.6818181818182" type="curve" smooth="yes"/>
      <point x="642.7045454545455" y="229.4090909090909" type="line"/>
      <point x="642.7045454545455" y="281.6818181818182" type="line"/>
      <point x="471.1818181818182" y="253.29545454545453" type="line" smooth="yes"/>
      <point x="381.59090909090907" y="238.5"/>
      <point x="337.59090909090907" y="192.5"/>
      <point x="337.59090909090907" y="120.06818181818181" type="curve" smooth="yes"/>
      <point x="337.59090909090907" y="40.81818181818182"/>
      <point x="393.59090909090907" y="-10.0"/>
    </contour>
  </outline>
</glyph>
<glyph name="A" format="2">
  <advance width="742.625"/>
  <unicode hex="0041"/>
  <anchor x="359.20454545454544" y="0.0" name="bottom"/>
  <anchor x="692.0454545454545" y="0.0" name="ogonek"/>
  <anchor x="364.8636363636364" y="705.0" name="top"/>
  <outline>
    <contour>
      <point x="49.38636363636363" y="-5.0" type="line"/>
      <point x="94.56818181818181" y="-3.0"/>
      <point x="160.20454545454547" y="0.0"/>
      <point x="185.20454545454547" y="0.0" type="curve" smooth="yes"/>
      <point x="273.27272727272725" y="0.0" type="line"/>
      <point x="278.27272727272725" y="55.86363636363637" type="line"/>
      <point x="168.97727272727272" y="70.6590909090909" type="line"/>
      <point x="205.9090909090909" y="37.90909090909091" type="line"/>
      <point x="208.29545454545453" y="67.18181818181819"/>
      <point x="209.9090909090909" y="98.1590909090909"/>
      <point x="218.70454545454547" y="125.95454545454545" type="curve" smooth="yes"/>
      <point x="366.0681818181818" y="589.1136363636364" type="line"/>
      <point x="341.79545454545456" y="589.1136363636364" type="line"/>
      <point x="486.70454545454544" y="167.8409090909091" type="line" smooth="yes"/>
      <point x="502.27272727272725" y="126.29545454545455"/>
      <point x="509.45454545454544" y="87.1590909090909"/>
      <point x="517.4545454545455" y="34.04545454545455" type="curve"/>
      <point x="550.7727272727273" y="76.6590909090909" type="line"/>
      <point x="440.27272727272725" y="45.68181818181818" type="line"/>
      <point x="443.6818181818182" y="-5.0" type="line"/>
      <point x="493.34090909090907" y="-3.0"/>
      <point x="567.9090909090909" y="0.0"/>
      <point x="592.9090909090909" y="0.0" type="curve" smooth="yes"/>
      <point x="692.0454545454545" y="0.0" type="line"/>
      <point x="697.0454545454545" y="55.86363636363637" type="line"/>
      <point x="594.7272727272727" y="73.47727272727273" type="line"/>
      <point x="644.5" y="44.38636363636363" type="line"/>
      <point x="629.9090909090909" y="75.36363636363636"/>
      <point x="610.1136363636364" y="111.3409090909091"/>
      <point x="598.5227272727273" y="147.3181818181818" type="curve" smooth="yes"/>
      <point x="392.75" y="715.2045454545455" type="line"/>
      <point x="328.75" y="705.0" type="line"/>
      <point x="149.9090909090909" y="160.20454545454547" type="line" smooth="yes"/>
      <point x="135.29545454545453" y="116.38636363636364"/>
      <point x="113.13636363636364" y="75.45454545454545"/>
      <point x="94.02272727272727" y="39.29545454545455" type="curve"/>
      <point x="144.45454545454547" y="71.6590909090909" type="line"/>
      <point x="45.18181818181818" y="45.68181818181818" type="line"/>
    </contour>
    <contour>
      <point x="223.4318181818182" y="218.25" type="line"/>
      <point x="501.3181818181818" y="218.25" type="line"/>
      <point x="501.3181818181818" y="274.5681818181818" type="line"/>
      <point x="223.4318181818182" y="274.5681818181818" type="line"/>
    </contour>
  </outline>
</glyph>
<glyph name="B" format="2">
  <advance width="636.0"/>
  <unicode hex="0042"/>
  <anchor x="319.27272727272725" y="0.0" name="bottom"/>
  <anchor x="319.27272727272725" y="705.0" name="top"/>
  <outline>
    <contour>
      <point x="60.59090909090909" y="-5.0" type="line"/>
      <point x="105.56818181818181" y="-3.0"/>
      <point x="171.4318181818182" y="0.0"/>
      <point x="197.04545454545453" y="0.0" type="curve" smooth="yes"/>
      <point x="247.04545454545453" y="0.0"/>
      <point x="314.45454545454544" y="-4.204545454545454"/>
      <point x="364.45454545454544" y="-4.204545454545454" type="curve" smooth="yes"/>
      <point x="479.90909090909093" y="-4.204545454545454"/>
      <point x="571.3863636363636" y="67.95454545454545"/>
      <point x="571.3863636363636" y="184.02272727272728" type="curve" smooth="yes"/>
      <point x="571.3863636363636" y="296.84090909090907"/>
      <point x="486.95454545454544" y="359.8181818181818"/>
      <point x="372.70454545454544" y="366.40909090909093" type="curve"/>
      <point x="401.3863636363636" y="324.70454545454544" type="line"/>
      <point x="401.3863636363636" y="408.70454545454544" type="line"/>
      <point x="374.90909090909093" y="365.0" type="line"/>
      <point x="469.75" y="376.5681818181818"/>
      <point x="540.3863636363636" y="445.1818181818182"/>
      <point x="540.3863636363636" y="543.0" type="curve" smooth="yes"/>
      <point x="540.3863636363636" y="648.0"/>
      <point x="452.1136363636364" y="710.0"/>
      <point x="347.45454545454544" y="710.0" type="curve" smooth="yes"/>
      <point x="297.45454545454544" y="710.0"/>
      <point x="228.20454545454547" y="705.0"/>
      <point x="178.20454545454547" y="705.0" type="curve" smooth="yes"/>
      <point x="157.5681818181818" y="705.0"/>
      <point x="99.18181818181819" y="708.0"/>
      <point x="62.38636363636363" y="710.0" type="curve"/>
      <point x="57.38636363636363" y="654.3181818181819" type="line"/>
      <point x="160.0909090909091" y="638.0909090909091" type="line"/>
      <point x="129.13636363636363" y="669.5909090909091" type="line"/>
      <point x="132.3181818181818" y="654.0681818181819"/>
      <point x="142.3409090909091" y="588.75"/>
      <point x="142.3409090909091" y="565.7045454545455" type="curve" smooth="yes"/>
      <point x="142.3409090909091" y="139.5" type="line" smooth="yes"/>
      <point x="142.3409090909091" y="116.68181818181819"/>
      <point x="133.13636363636363" y="51.45454545454545"/>
      <point x="129.13636363636363" y="26.454545454545453" type="curve"/>
      <point x="171.8409090909091" y="70.27272727272727" type="line"/>
      <point x="55.59090909090909" y="47.27272727272727" type="line"/>
    </contour>
    <contour>
      <point x="250.1818181818182" y="25.31818181818182" type="line"/>
      <point x="245.5909090909091" y="48.09090909090909"/>
      <point x="239.1818181818182" y="116.3409090909091"/>
      <point x="239.1818181818182" y="169.5" type="curve" smooth="yes"/>
      <point x="239.1818181818182" y="535.7045454545455" type="line" smooth="yes"/>
      <point x="239.1818181818182" y="588.0909090909091"/>
      <point x="247.77272727272728" y="661.2954545454545"/>
      <point x="249.5681818181818" y="676.2954545454545" type="curve"/>
      <point x="223.29545454545453" y="651.7045454545455" type="line"/>
      <point x="252.29545454545453" y="653.2954545454545"/>
      <point x="290.27272727272725" y="653.2954545454545"/>
      <point x="325.84090909090907" y="653.2954545454545" type="curve" smooth="yes"/>
      <point x="395.84090909090907" y="653.2954545454545"/>
      <point x="442.59090909090907" y="604.5227272727273"/>
      <point x="442.59090909090907" y="530.3636363636364" type="curve" smooth="yes"/>
      <point x="442.59090909090907" y="442.6363636363636"/>
      <point x="382.8863636363636" y="395.25"/>
      <point x="304.52272727272725" y="395.25" type="curve" smooth="yes"/>
      <point x="296.9318181818182" y="395.25" type="line"/>
      <point x="289.9318181818182" y="335.1363636363636" type="line"/>
      <point x="301.52272727272725" y="335.1363636363636" type="line" smooth="yes"/>
      <point x="389.27272727272725" y="335.1363636363636"/>
      <point x="465.59090909090907" y="292.0"/>
      <point x="465.59090909090907" y="192.04545454545453" type="curve" smooth="yes"/>
      <point x="465.59090909090907" y="103.68181818181819"/>
      <point x="411.40909090909093" y="55.88636363636364"/>
      <point x="332.84090909090907" y="55.88636363636364" type="curve" smooth="yes"/>
      <point x="291.65909090909093" y="55.88636363636364"/>
      <point x="251.3181818181818" y="59.88636363636364"/>
      <point x="225.29545454545453" y="62.5" type="curve"/>
    </contour>
  </outline>
</glyph>
<glyph name="C" format="2">
  <advance width="679.75"/>
  <unicode hex="0043"/>
  <anchor x="381.29545454545456" y="0.0" name="bottom"/>
  <anchor x="381.29545454545456" y="720.0" name="top"/>
  <outline>
    <contour>
      <point x="391.09090909090907" y="-15.0" type="curve" smooth="yes"/>
      <point x="472.5" y="-15.0"/>
      <point x="545.1136363636364" y="3.0"/>
      <point x="608.5227272727273" y="19.0" type="curve"/>
      <point x="602.1136363636364" y="171.6818181818182" type="line"/>
      <point x="541.4545454545455" y="169.6818181818182" type="line"/>
      <point x="539.25" y="122.68181818181819" type="line" smooth="yes"/>
      <point x="538.25" y="108.68181818181819"/>
      <point x="525.6136363636364" y="67.04545454545455"/>
      <point x="514.4090909090909" y="38.25" type="curve"/>
      <point x="548.75" y="75.52272727272728" type="line"/>
      <point x="501.4318181818182" y="58.11363636363637"/>
      <point x="438.90909090909093" y="45.93181818181818"/>
      <point x="390.09090909090907" y="45.93181818181818" type="curve" smooth="yes"/>
      <point x="249.36363636363637" y="45.93181818181818"/>
      <point x="181.45454545454547" y="182.27272727272728"/>
      <point x="181.45454545454547" y="353.0" type="curve" smooth="yes"/>
      <point x="181.45454545454547" y="524.5227272727273"/>
      <point x="249.5681818181818" y="659.0681818181819"/>
      <point x="391.09090909090907" y="659.0681818181819" type="curve" smooth="yes"/>
      <point x="437.3181818181818" y="659.0681818181819"/>
      <point x="496.45454545454544" y="644.8863636363636"/>
      <point x="539.5454545454545" y="628.0909090909091" type="curve"/>
      <point x="507.40909090909093" y="664.1590909090909" type="line"/>
      <point x="514.8181818181819" y="639.5454545454545"/>
      <point x="527.8409090909091" y="600.1363636363636"/>
      <point x="527.8409090909091" y="587.1363636363636" type="curve" smooth="yes"/>
      <point x="528.25" y="538.8863636363636" type="line"/>
      <point x="589.1136363636364" y="534.8863636363636" type="line"/>
      <point x="599.5227272727273" y="686.0" type="line"/>
      <point x="535.7045454545455" y="702.4090909090909"/>
      <point x="473.5" y="720.0"/>
      <point x="391.09090909090907" y="720.0" type="curve" smooth="yes"/>
      <point x="179.4090909090909" y="720.0"/>
      <point x="71.36363636363636" y="570.0"/>
      <point x="71.36363636363636" y="352.0" type="curve" smooth="yes"/>
      <point x="71.36363636363636" y="134.0"/>
      <point x="179.4090909090909" y="-15.0"/>
    </contour>
  </outline>
</glyph>
<glyph name="D" format="2">
  <advance width="763.875"/>
  <unicode hex="0044"/>
  <anchor x="345.04545454545456" y="0.0" name="bottom"/>
  <anchor x="200.25" y="353.0" name="center"/>
  <anchor x="346.25" y="720.0" name="top"/>
  <outline>
    <contour>
      <point x="60.59090909090909" y="-5.0" type="line"/>
      <point x="106.20454545454545" y="-3.0"/>
      <point x="172.02272727272728" y="0.0"/>
      <point x="197.04545454545453" y="0.0" type="curve" smooth="yes"/>
      <point x="247.04545454545453" y="0.0"/>
      <point x="300.27272727272725" y="-4.204545454545454"/>
      <point x="350.27272727272725" y="-4.204545454545454" type="curve" smooth="yes"/>
      <point x="567.1363636363636" y="-4.204545454545454"/>
      <point x="695.7045454545455" y="141.20454545454547"/>
      <point x="695.7045454545455" y="352.0" type="curve" smooth="yes"/>
      <point x="695.7045454545455" y="569.5681818181819"/>
      <point x="573.9090909090909" y="710.0"/>
      <point x="350.27272727272725" y="710.0" type="curve" smooth="yes"/>
      <point x="285.1363636363636" y="710.0"/>
      <point x="240.1590909090909" y="705.0"/>
      <point x="177.4090909090909" y="705.0" type="curve" smooth="yes"/>
      <point x="156.77272727272728" y="705.0"/>
      <point x="99.18181818181819" y="708.0"/>
      <point x="62.38636363636363" y="710.0" type="curve"/>
      <point x="57.38636363636363" y="654.3181818181819" type="line"/>
      <point x="171.8409090909091" y="635.7045454545455" type="line"/>
      <point x="128.3409090909091" y="674.4090909090909" type="line"/>
      <point x="131.54545454545453" y="655.1590909090909"/>
      <point x="142.3409090909091" y="588.1363636363636"/>
      <point x="142.3409090909091" y="565.7045454545455" type="curve" smooth="yes"/>
      <point x="142.3409090909091" y="139.5" type="line" smooth="yes"/>
      <point x="142.3409090909091" y="117.27272727272727"/>
      <point x="131.75" y="50.11363636363637"/>
      <point x="127.3409090909091" y="23.84090909090909" type="curve"/>
      <point x="171.8409090909091" y="70.27272727272727" type="line"/>
      <point x="55.59090909090909" y="47.27272727272727" type="line"/>
    </contour>
    <contour>
      <point x="248.1818181818182" y="35.79545454545455" type="line"/>
      <point x="246.77272727272728" y="57.36363636363637"/>
      <point x="239.1818181818182" y="111.95454545454545"/>
      <point x="239.1818181818182" y="169.5" type="curve" smooth="yes"/>
      <point x="239.1818181818182" y="535.7045454545455" type="line" smooth="yes"/>
      <point x="239.1818181818182" y="584.7045454545455"/>
      <point x="246.1818181818182" y="660.6136363636364"/>
      <point x="250.36363636363637" y="676.5681818181819" type="curve"/>
      <point x="229.9090909090909" y="647.5" type="line"/>
      <point x="252.6818181818182" y="647.5"/>
      <point x="296.52272727272725" y="648.1136363636364"/>
      <point x="349.8181818181818" y="648.1136363636364" type="curve" smooth="yes"/>
      <point x="514.5454545454545" y="648.1136363636364"/>
      <point x="590.25" y="512.75"/>
      <point x="590.25" y="352.40909090909093" type="curve" smooth="yes"/>
      <point x="590.25" y="190.04545454545453"/>
      <point x="514.75" y="56.88636363636364"/>
      <point x="349.6136363636364" y="56.88636363636364" type="curve" smooth="yes"/>
      <point x="297.09090909090907" y="56.88636363636364"/>
      <point x="254.0909090909091" y="59.88636363636364"/>
      <point x="228.5" y="59.88636363636364" type="curve"/>
    </contour>
  </outline>
</glyph>
<glyph name="E" format="2">
  <advance width="632.0"/>
  <unicode hex="0045"/>
  <anchor x="323.6818181818182" y="0.0" name="bottom"/>
  <anchor x="532.2954545454545" y="-4.0" name="ogonek"/>
  <anchor x="308.8181818181818" y="720.0" name="top"/>
  <outline>
    <contour>
      <point x="60.59090909090909" y="-5.0" type="line"/>
      <point x="106.4090909090909" y="-2.0"/>
      <point x="172.02272727272728" y="0.0"/>
      <point x="197.04545454545453" y="0.0" type="curve" smooth="yes"/>
      <point x="418.29545454545456" y="0.0" type="line" smooth="yes"/>
      <point x="437.54545454545456" y="0.0"/>
      <point x="494.29545454545456" y="-2.0"/>
      <point x="532.2954545454545" y="-4.0" type="curve"/>
      <point x="551.2954545454545" y="14.0" type="line"/>
      <point x="566.2954545454545" y="167.29545454545453" type="line"/>
      <point x="509.84090909090907" y="172.29545454545453" type="line"/>
      <point x="495.25" y="105.93181818181819" type="line" smooth="yes"/>
      <point x="492.04545454545456" y="91.31818181818181"/>
      <point x="471.84090909090907" y="63.45454545454545"/>
      <point x="455.3863636363636" y="42.79545454545455" type="curve"/>
      <point x="490.09090909090907" y="72.31818181818181" type="line"/>
      <point x="472.70454545454544" y="68.31818181818181"/>
      <point x="429.1136363636364" y="60.11363636363637"/>
      <point x="388.29545454545456" y="60.11363636363637" type="curve" smooth="yes"/>
      <point x="210.5681818181818" y="60.11363636363637" type="line"/>
      <point x="251.5681818181818" y="19.954545454545453" type="line"/>
      <point x="246.1818181818182" y="48.13636363636364"/>
      <point x="239.1818181818182" y="121.75"/>
      <point x="239.1818181818182" y="169.5" type="curve" smooth="yes"/>
      <point x="239.1818181818182" y="535.7045454545455" type="line" smooth="yes"/>
      <point x="239.1818181818182" y="561.7045454545455"/>
      <point x="244.5681818181818" y="626.7045454545455"/>
      <point x="249.5681818181818" y="672.7045454545455" type="curve"/>
      <point x="208.27272727272728" y="646.7045454545455" type="line"/>
      <point x="375.70454545454544" y="646.7045454545455" type="line" smooth="yes"/>
      <point x="412.52272727272725" y="646.7045454545455"/>
      <point x="454.75" y="643.2954545454545"/>
      <point x="475.77272727272725" y="640.5" type="curve"/>
      <point x="438.27272727272725" y="666.25" type="line"/>
      <point x="453.0681818181818" y="650.1818181818181"/>
      <point x="473.65909090909093" y="618.1136363636364"/>
      <point x="475.65909090909093" y="607.5" type="curve" smooth="yes"/>
      <point x="485.84090909090907" y="553.9318181818181" type="line"/>
      <point x="545.0909090909091" y="558.9318181818181" type="line"/>
      <point x="538.0909090909091" y="692.0" type="line"/>
      <point x="519.0909090909091" y="710.0" type="line"/>
      <point x="481.09090909090907" y="707.0"/>
      <point x="423.09090909090907" y="705.0"/>
      <point x="405.09090909090907" y="705.0" type="curve" smooth="yes"/>
      <point x="178.20454545454547" y="705.0" type="line" smooth="yes"/>
      <point x="157.5681818181818" y="705.0"/>
      <point x="99.18181818181819" y="708.0"/>
      <point x="62.38636363636363" y="710.0" type="curve"/>
      <point x="57.38636363636363" y="654.3181818181819" type="line"/>
      <point x="171.8409090909091" y="635.7045454545455" type="line"/>
      <point x="128.13636363636363" y="679.75" type="line"/>
      <point x="134.3409090909091" y="641.1363636363636"/>
      <point x="142.3409090909091" y="584.3181818181819"/>
      <point x="142.3409090909091" y="565.7045454545455" type="curve" smooth="yes"/>
      <point x="142.3409090909091" y="139.5" type="line" smooth="yes"/>
      <point x="142.3409090909091" y="117.06818181818181"/>
      <point x="131.3409090909091" y="47.27272727272727"/>
      <point x="127.3409090909091" y="25.863636363636363" type="curve"/>
      <point x="171.8409090909091" y="70.27272727272727" type="line"/>
      <point x="55.59090909090909" y="47.27272727272727" type="line"/>
    </contour>
    <contour>
      <point x="419.79545454545456" y="263.54545454545456" type="line"/>
      <point x="469.45454545454544" y="269.54545454545456" type="line"/>
      <point x="467.45454545454544" y="306.5681818181818"/>
      <point x="466.45454545454544" y="343.3863636363636"/>
      <point x="466.45454545454544" y="380.40909090909093" type="curve" smooth="yes"/>
      <point x="466.45454545454544" y="464.40909090909093" type="line"/>
      <point x="419.79545454545456" y="469.40909090909093" type="line"/>
      <point x="405.79545454545456" y="364.6136363636364" type="line"/>
      <point x="437.20454545454544" y="405.02272727272725" type="line"/>
      <point x="422.1818181818182" y="402.20454545454544"/>
      <point x="379.4318181818182" y="394.6136363636364"/>
      <point x="352.45454545454544" y="394.6136363636364" type="curve" smooth="yes"/>
      <point x="207.5" y="394.6136363636364" type="line"/>
      <point x="207.5" y="336.3181818181818" type="line"/>
      <point x="332.45454545454544" y="336.3181818181818" type="line" smooth="yes"/>
      <point x="359.27272727272725" y="336.3181818181818"/>
      <point x="420.8181818181818" y="328.9318181818182"/>
      <point x="444.45454545454544" y="326.1363636363636" type="curve"/>
      <point x="405.79545454545456" y="366.3181818181818" type="line"/>
    </contour>
  </outline>
</glyph>
<glyph name="F" format="2">
  <advance width="598.875"/>
  <unicode hex="0046"/>
  <anchor x="300.4318181818182" y="0.0" name="bottom"/>
  <anchor x="300.4318181818182" y="720.0" name="top"/>
  <outline>
    <contour>
      <point x="60.59090909090909" y="-5.0" type="line"/>
      <point x="110.79545454545455" y="-3.0"/>
      <point x="173.0681818181818" y="0.0"/>
      <point x="197.04545454545453" y="0.0" type="curve" smooth="yes"/>
      <point x="339.1818181818182" y="0.0" type="line"/>
      <point x="346.5681818181818" y="55.86363636363637" type="line"/>
      <point x="208.0909090909091" y="65.86363636363636" type="line"/>
      <point x="251.79545454545456" y="25.045454545454547" type="line"/>
      <point x="247.38636363636363" y="48.31818181818182"/>
      <point x="239.1818181818182" y="117.0909090909091"/>
      <point x="239.1818181818182" y="169.5" type="curve"/>
      <point x="239.1818181818182" y="535.7045454545455" type="line"/>
      <point x="239.1818181818182" y="583.0909090909091"/>
      <point x="248.5681818181818" y="667.25"/>
      <point x="249.5681818181818" y="675.0909090909091" type="curve"/>
      <point x="208.27272727272728" y="646.7045454545455" type="line"/>
      <point x="375.09090909090907" y="646.7045454545455" type="line" smooth="yes"/>
      <point x="411.9318181818182" y="646.7045454545455"/>
      <point x="455.77272727272725" y="641.2954545454545"/>
      <point x="474.54545454545456" y="640.2954545454545" type="curve"/>
      <point x="438.90909090909093" y="663.1363636363636" type="line"/>
      <point x="452.70454545454544" y="647.8863636363636"/>
      <point x="472.84090909090907" y="619.5454545454545"/>
      <point x="475.04545454545456" y="608.5454545454545" type="curve"/>
      <point x="479.25" y="592.9318181818181"/>
      <point x="483.84090909090907" y="570.5227272727273"/>
      <point x="485.84090909090907" y="554.5227272727273" type="curve"/>
      <point x="545.0909090909091" y="559.5227272727273" type="line"/>
      <point x="538.0909090909091" y="692.0" type="line"/>
      <point x="519.0909090909091" y="710.0" type="line"/>
      <point x="498.40909090909093" y="708.7954545454545"/>
      <point x="425.09090909090907" y="705.0"/>
      <point x="405.09090909090907" y="705.0" type="curve" smooth="yes"/>
      <point x="178.20454545454547" y="705.0" type="line" smooth="yes"/>
      <point x="157.5681818181818" y="705.0"/>
      <point x="99.18181818181819" y="708.0"/>
      <point x="62.38636363636363" y="710.0" type="curve"/>
      <point x="57.38636363636363" y="654.3181818181819" type="line"/>
      <point x="171.8409090909091" y="635.7045454545455" type="line"/>
      <point x="127.75" y="674.3409090909091" type="line"/>
      <point x="132.54545454545453" y="649.0909090909091"/>
      <point x="142.3409090909091" y="588.1363636363636"/>
      <point x="142.3409090909091" y="565.7045454545455" type="curve" smooth="yes"/>
      <point x="142.3409090909091" y="139.5" type="line" smooth="yes"/>
      <point x="142.3409090909091" y="116.88636363636364"/>
      <point x="132.75" y="55.31818181818182"/>
      <point x="126.54545454545455" y="21.863636363636363" type="curve"/>
      <point x="171.8409090909091" y="70.27272727272727" type="line"/>
      <point x="55.59090909090909" y="47.27272727272727" type="line"/>
    </contour>
    <contour>
      <point x="419.79545454545456" y="255.13636363636363" type="line"/>
      <point x="469.45454545454544" y="261.1363636363636" type="line"/>
      <point x="468.45454545454544" y="287.3636363636364"/>
      <point x="466.45454545454544" y="336.0"/>
      <point x="466.45454545454544" y="372.0" type="curve" smooth="yes"/>
      <point x="466.45454545454544" y="455.79545454545456" type="line"/>
      <point x="419.79545454545456" y="460.79545454545456" type="line"/>
      <point x="406.79545454545456" y="364.77272727272725" type="line"/>
      <point x="438.3863636363636" y="401.3863636363636" type="line"/>
      <point x="420.5681818181818" y="396.3863636363636"/>
      <point x="379.40909090909093" y="386.20454545454544"/>
      <point x="352.45454545454544" y="386.20454545454544" type="curve" smooth="yes"/>
      <point x="202.6818181818182" y="386.20454545454544" type="line"/>
      <point x="202.6818181818182" y="327.70454545454544" type="line"/>
      <point x="332.45454545454544" y="327.70454545454544" type="line" smooth="yes"/>
      <point x="359.27272727272725" y="327.70454545454544"/>
      <point x="425.5681818181818" y="321.1136363636364"/>
      <point x="444.6136363636364" y="318.3181818181818" type="curve"/>
      <point x="406.79545454545456" y="350.90909090909093" type="line"/>
    </contour>
  </outline>
</glyph>
<glyph name="G" format="2">
  <advance width="727.75"/>
  <unicode hex="0047"/>
  <anchor x="421.6363636363636" y="0.0" name="bottom"/>
  <anchor x="419.6363636363636" y="720.0" name="top"/>
  <outline>
    <contour>
      <point x="407.09090909090907" y="-15.0" type="curve" smooth="yes"/>
      <point x="493.70454545454544" y="-15.0"/>
      <point x="570.1136363636364" y="3.0"/>
      <point x="637.5227272727273" y="19.0" type="curve"/>
      <point x="637.5227272727273" y="169.11363636363637" type="line" smooth="yes"/>
      <point x="637.5227272727273" y="208.45454545454547"/>
      <point x="642.5227272727273" y="270.29545454545456"/>
      <point x="646.5227272727273" y="320.8863636363636" type="curve"/>
      <point x="626.8863636363636" y="339.1136363636364" type="line"/>
      <point x="601.4318181818181" y="338.1136363636364"/>
      <point x="566.1363636363636" y="336.1136363636364"/>
      <point x="552.3181818181819" y="336.1136363636364" type="curve" smooth="yes"/>
      <point x="441.3181818181818" y="336.1136363636364" type="line"/>
      <point x="436.3181818181818" y="274.3636363636364" type="line"/>
      <point x="580.8181818181819" y="262.95454545454544" type="line"/>
      <point x="540.5" y="298.6136363636364" type="line"/>
      <point x="543.9090909090909" y="276.0"/>
      <point x="552.3181818181819" y="223.4318181818182"/>
      <point x="552.3181818181819" y="196.0" type="curve" smooth="yes"/>
      <point x="552.3181818181819" y="128.0" type="line" smooth="yes"/>
      <point x="552.3181818181819" y="112.5909090909091"/>
      <point x="541.1136363636364" y="65.79545454545455"/>
      <point x="534.1136363636364" y="35.59090909090909" type="curve"/>
      <point x="564.8181818181819" y="71.88636363636364" type="line"/>
      <point x="515.7954545454545" y="56.90909090909091"/>
      <point x="451.5" y="45.93181818181818"/>
      <point x="404.29545454545456" y="45.93181818181818" type="curve" smooth="yes"/>
      <point x="251.77272727272728" y="45.93181818181818"/>
      <point x="178.6590909090909" y="182.27272727272728"/>
      <point x="178.6590909090909" y="353.0" type="curve" smooth="yes"/>
      <point x="178.6590909090909" y="524.5227272727273"/>
      <point x="251.1818181818182" y="659.0681818181819"/>
      <point x="404.5" y="659.0681818181819" type="curve" smooth="yes"/>
      <point x="454.90909090909093" y="659.0681818181819"/>
      <point x="521.2954545454545" y="644.8863636363636"/>
      <point x="567.7045454545455" y="629.0909090909091" type="curve"/>
      <point x="537.25" y="662.9318181818181" type="line"/>
      <point x="545.0681818181819" y="637.6590909090909"/>
      <point x="556.6363636363636" y="599.7045454545455"/>
      <point x="556.6363636363636" y="587.1363636363636" type="curve" smooth="yes"/>
      <point x="557.0454545454545" y="538.8863636363636" type="line"/>
      <point x="617.9090909090909" y="534.8863636363636" type="line"/>
      <point x="628.3181818181819" y="686.0" type="line"/>
      <point x="561.1363636363636" y="702.2045454545455"/>
      <point x="494.09090909090907" y="720.0"/>
      <point x="407.09090909090907" y="720.0" type="curve" smooth="yes"/>
      <point x="184.4090909090909" y="720.0"/>
      <point x="70.36363636363636" y="570.0"/>
      <point x="70.36363636363636" y="352.0" type="curve" smooth="yes"/>
      <point x="70.36363636363636" y="134.0"/>
      <point x="184.4090909090909" y="-15.0"/>
    </contour>
  </outline>
</glyph>
<glyph name="H" format="2">
  <advance width="812.25"/>
  <unicode hex="0048"/>
  <anchor x="402.6818181818182" y="0.0" name="bottom"/>
  <anchor x="402.8863636363636" y="520.0" name="center"/>
  <anchor x="402.6818181818182" y="720.0" name="top"/>
  <outline>
    <contour>
      <point x="483.4318181818182" y="-5.0" type="line"/>
      <point x="539.25" y="-2.0"/>
      <point x="584.8636363636364" y="0.0"/>
      <point x="619.8863636363636" y="0.0" type="curve" smooth="yes"/>
      <point x="750.3409090909091" y="0.0" type="line"/>
      <point x="757.1363636363636" y="55.86363636363637" type="line"/>
      <point x="631.5227272727273" y="66.06818181818181" type="line"/>
      <point x="674.6363636363636" y="27.386363636363637" type="line"/>
      <point x="669.4318181818181" y="53.20454545454545"/>
      <point x="662.8181818181819" y="117.29545454545455"/>
      <point x="662.8181818181819" y="169.5" type="curve" smooth="yes"/>
      <point x="662.8181818181819" y="535.7045454545455" type="line" smooth="yes"/>
      <point x="662.8181818181819" y="587.9090909090909"/>
      <point x="669.6136363636364" y="647.4318181818181"/>
      <point x="672.6363636363636" y="674.9318181818181" type="curve"/>
      <point x="631.5227272727273" y="638.9090909090909" type="line"/>
      <point x="746.1818181818181" y="649.3181818181819" type="line"/>
      <point x="742.1818181818181" y="710.0" type="line"/>
      <point x="685.1363636363636" y="707.0"/>
      <point x="638.0909090909091" y="705.0"/>
      <point x="601.0454545454545" y="705.0" type="curve" smooth="yes"/>
      <point x="580.4090909090909" y="705.0"/>
      <point x="522.8181818181819" y="708.0"/>
      <point x="486.02272727272725" y="710.0" type="curve"/>
      <point x="481.02272727272725" y="654.3181818181819" type="line"/>
      <point x="595.2727272727273" y="635.7045454545455" type="line"/>
      <point x="551.1818181818181" y="674.9318181818181" type="line"/>
      <point x="555.1818181818181" y="654.9090909090909"/>
      <point x="565.1818181818181" y="588.3181818181819"/>
      <point x="565.1818181818181" y="565.7045454545455" type="curve" smooth="yes"/>
      <point x="565.1818181818181" y="139.5" type="line" smooth="yes"/>
      <point x="565.1818181818181" y="116.86363636363636"/>
      <point x="556.3636363636364" y="56.59090909090909"/>
      <point x="550.5681818181819" y="27.386363636363637" type="curve"/>
      <point x="595.2727272727273" y="70.27272727272727" type="line"/>
      <point x="478.4318181818182" y="47.27272727272727" type="line"/>
    </contour>
    <contour>
      <point x="60.59090909090909" y="-5.0" type="line"/>
      <point x="116.4090909090909" y="-2.0"/>
      <point x="162.02272727272728" y="0.0"/>
      <point x="197.04545454545453" y="0.0" type="curve" smooth="yes"/>
      <point x="327.70454545454544" y="0.0" type="line"/>
      <point x="334.29545454545456" y="55.86363636363637" type="line"/>
      <point x="208.0909090909091" y="66.06818181818181" type="line"/>
      <point x="251.79545454545456" y="27.386363636363637" type="line"/>
      <point x="246.79545454545456" y="53.59090909090909"/>
      <point x="239.1818181818182" y="116.68181818181819"/>
      <point x="239.1818181818182" y="169.5" type="curve" smooth="yes"/>
      <point x="239.1818181818182" y="535.7045454545455" type="line" smooth="yes"/>
      <point x="239.1818181818182" y="587.2954545454545"/>
      <point x="247.1818181818182" y="654.4545454545455"/>
      <point x="251.0" y="676.1590909090909" type="curve"/>
      <point x="208.0909090909091" y="638.9090909090909" type="line"/>
      <point x="323.54545454545456" y="649.3181818181819" type="line"/>
      <point x="319.34090909090907" y="710.0" type="line"/>
      <point x="262.29545454545456" y="707.0"/>
      <point x="215.25" y="705.0"/>
      <point x="178.20454545454547" y="705.0" type="curve" smooth="yes"/>
      <point x="157.5681818181818" y="705.0"/>
      <point x="99.18181818181819" y="708.0"/>
      <point x="62.38636363636363" y="710.0" type="curve"/>
      <point x="57.38636363636363" y="654.3181818181819" type="line"/>
      <point x="171.8409090909091" y="635.7045454545455" type="line"/>
      <point x="127.93181818181819" y="675.75" type="line"/>
      <point x="132.75" y="652.6818181818181"/>
      <point x="142.3409090909091" y="587.9318181818181"/>
      <point x="142.3409090909091" y="565.7045454545455" type="curve" smooth="yes"/>
      <point x="142.3409090909091" y="139.5" type="line" smooth="yes"/>
      <point x="142.3409090909091" y="116.6590909090909"/>
      <point x="131.3409090909091" y="47.25"/>
      <point x="127.93181818181819" y="27.386363636363637" type="curve"/>
      <point x="171.8409090909091" y="70.27272727272727" type="line"/>
      <point x="55.59090909090909" y="47.27272727272727" type="line"/>
    </contour>
    <contour>
      <point x="184.1818181818182" y="324.70454545454544" type="line"/>
      <point x="620.1818181818181" y="324.70454545454544" type="line"/>
      <point x="620.1818181818181" y="383.84090909090907" type="line"/>
      <point x="184.1818181818182" y="378.84090909090907" type="line"/>
    </contour>
  </outline>
</glyph>
<glyph name="I" format="2">
  <advance width="389.5"/>
  <unicode hex="0049"/>
  <anchor x="198.61363636363637" y="0.0" name="bottom"/>
  <anchor x="327.6818181818182" y="0.0" name="ogonek"/>
  <anchor x="191.04545454545453" y="720.0" name="top"/>
  <outline>
    <contour>
      <point x="60.59090909090909" y="-5.0" type="line"/>
      <point x="106.4090909090909" y="-2.0"/>
      <point x="152.02272727272728" y="0.0"/>
      <point x="197.04545454545453" y="0.0" type="curve" smooth="yes"/>
      <point x="327.70454545454544" y="0.0" type="line"/>
      <point x="334.29545454545456" y="55.86363636363637" type="line"/>
      <point x="208.0909090909091" y="66.06818181818181" type="line"/>
      <point x="251.79545454545456" y="27.386363636363637" type="line"/>
      <point x="246.79545454545456" y="53.59090909090909"/>
      <point x="239.1818181818182" y="116.68181818181819"/>
      <point x="239.1818181818182" y="169.5" type="curve" smooth="yes"/>
      <point x="239.1818181818182" y="535.7045454545455" type="line" smooth="yes"/>
      <point x="239.1818181818182" y="587.2954545454545"/>
      <point x="247.1818181818182" y="654.4545454545455"/>
      <point x="251.0" y="676.1590909090909" type="curve"/>
      <point x="208.0909090909091" y="638.9090909090909" type="line"/>
      <point x="323.54545454545456" y="649.3181818181819" type="line"/>
      <point x="319.34090909090907" y="710.0" type="line"/>
      <point x="272.29545454545456" y="707.0"/>
      <point x="225.25" y="705.0"/>
      <point x="178.20454545454547" y="705.0" type="curve" smooth="yes"/>
      <point x="157.5681818181818" y="705.0"/>
      <point x="99.18181818181819" y="708.0"/>
      <point x="62.38636363636363" y="710.0" type="curve"/>
      <point x="57.38636363636363" y="654.3181818181819" type="line"/>
      <point x="171.8409090909091" y="635.7045454545455" type="line"/>
      <point x="127.93181818181819" y="675.75" type="line"/>
      <point x="132.75" y="652.6818181818181"/>
      <point x="142.3409090909091" y="587.9318181818181"/>
      <point x="142.3409090909091" y="565.7045454545455" type="curve" smooth="yes"/>
      <point x="142.3409090909091" y="139.5" type="line" smooth="yes"/>
      <point x="142.3409090909091" y="116.6590909090909"/>
      <point x="131.3409090909091" y="47.25"/>
      <point x="127.93181818181819" y="27.386363636363637" type="curve"/>
      <point x="171.8409090909091" y="70.27272727272727" type="line"/>
      <point x="55.59090909090909" y="47.27272727272727" type="line"/>
    </contour>
  </outline>
</glyph>
<glyph name="J" format="2">
  <advance width="358.25"/>
  <unicode hex="004A"/>
  <anchor x="179.6590909090909" y="0.0" name="bottom"/>
  <anchor x="179.6590909090909" y="705.0" name="top"/>
  <outline>
    <contour>
      <point x="86.43181818181819" y="-200.0" type="line"/>
      <point x="138.61363636363637" y="-141.27272727272728"/>
      <point x="227.1818181818182" y="-35.54545454545455"/>
      <point x="227.1818181818182" y="-8.522727272727273" type="curve" smooth="yes"/>
      <point x="227.1818181818182" y="535.7045454545455" type="line" smooth="yes"/>
      <point x="227.1818181818182" y="587.7045454545455"/>
      <point x="234.5909090909091" y="647.3863636363636"/>
      <point x="237.79545454545456" y="674.0" type="curve"/>
      <point x="195.88636363636363" y="638.9090909090909" type="line"/>
      <point x="311.54545454545456" y="649.3181818181819" type="line"/>
      <point x="307.34090909090907" y="710.0" type="line"/>
      <point x="302.75" y="709.5909090909091"/>
      <point x="226.4318181818182" y="705.0"/>
      <point x="166.20454545454547" y="705.0" type="curve" smooth="yes"/>
      <point x="145.5681818181818" y="705.0"/>
      <point x="87.18181818181819" y="708.0"/>
      <point x="50.38636363636363" y="710.0" type="curve"/>
      <point x="45.38636363636363" y="654.3181818181819" type="line"/>
      <point x="159.8409090909091" y="635.7045454545455" type="line"/>
      <point x="116.13636363636364" y="674.0" type="line"/>
      <point x="119.54545454545455" y="655.9318181818181"/>
      <point x="130.3409090909091" y="588.1363636363636"/>
      <point x="130.3409090909091" y="565.7045454545455" type="curve" smooth="yes"/>
      <point x="130.3409090909091" y="11.0" type="line" smooth="yes"/>
      <point x="130.3409090909091" y="-4.0"/>
      <point x="84.75" y="-104.97727272727273"/>
      <point x="50.95454545454545" y="-177.36363636363637" type="curve"/>
    </contour>
  </outline>
</glyph>
<glyph name="K" format="2">
  <advance width="746.5"/>
  <unicode hex="004B"/>
  <anchor x="364.6818181818182" y="0.0" name="bottom"/>
  <anchor x="364.6818181818182" y="720.0" name="top"/>
  <outline>
    <contour>
      <point x="429.1363636363636" y="-5.0" type="line"/>
      <point x="476.3636363636364" y="-3.0"/>
      <point x="543.8409090909091" y="0.0"/>
      <point x="569.8181818181819" y="0.0" type="curve" smooth="yes"/>
      <point x="700.8409090909091" y="0.0" type="line"/>
      <point x="707.6363636363636" y="55.86363636363637" type="line"/>
      <point x="601.6136363636364" y="67.27272727272727" type="line"/>
      <point x="677.0681818181819" y="30.295454545454547" type="line"/>
      <point x="658.2727272727273" y="46.09090909090909"/>
      <point x="578.5909090909091" y="113.4090909090909"/>
      <point x="565.0" y="129.0" type="curve" smooth="yes"/>
      <point x="330.40909090909093" y="397.8181818181818" type="line"/>
      <point x="331.3636363636364" y="339.3181818181818" type="line"/>
      <point x="486.40909090909093" y="546.0" type="line" smooth="yes"/>
      <point x="496.40909090909093" y="559.7954545454545"/>
      <point x="575.9318181818181" y="634.1363636363636"/>
      <point x="598.5681818181819" y="653.7727272727273" type="curve"/>
      <point x="547.4090909090909" y="638.9090909090909" type="line"/>
      <point x="660.0454545454545" y="649.3181818181819" type="line"/>
      <point x="655.8409090909091" y="710.0" type="line"/>
      <point x="602.4090909090909" y="707.0"/>
      <point x="557.3863636363636" y="705.0"/>
      <point x="522.75" y="705.0" type="curve" smooth="yes"/>
      <point x="501.9318181818182" y="705.0"/>
      <point x="452.3636363636364" y="707.7954545454545"/>
      <point x="419.9318181818182" y="710.0" type="curve"/>
      <point x="414.9318181818182" y="654.3181818181819" type="line"/>
      <point x="505.34090909090907" y="636.3181818181819" type="line"/>
      <point x="487.52272727272725" y="677.8181818181819" type="line"/>
      <point x="428.65909090909093" y="577.2045454545455" type="line"/>
      <point x="249.1818181818182" y="352.5681818181818" type="line"/>
      <point x="412.70454545454544" y="164.0" type="line" smooth="yes"/>
      <point x="428.29545454545456" y="146.0"/>
      <point x="487.65909090909093" y="51.45454545454545"/>
      <point x="499.45454545454544" y="32.06818181818182" type="curve"/>
      <point x="519.3636363636364" y="69.06818181818181" type="line"/>
      <point x="424.1363636363636" y="47.27272727272727" type="line"/>
    </contour>
    <contour>
      <point x="60.59090909090909" y="-5.0" type="line"/>
      <point x="116.4090909090909" y="-2.0"/>
      <point x="162.02272727272728" y="0.0"/>
      <point x="197.04545454545453" y="0.0" type="curve" smooth="yes"/>
      <point x="327.70454545454544" y="0.0" type="line"/>
      <point x="334.29545454545456" y="55.86363636363637" type="line"/>
      <point x="208.0909090909091" y="66.06818181818181" type="line"/>
      <point x="251.79545454545456" y="27.386363636363637" type="line"/>
      <point x="246.79545454545456" y="53.59090909090909"/>
      <point x="239.1818181818182" y="116.68181818181819"/>
      <point x="239.1818181818182" y="169.5" type="curve" smooth="yes"/>
      <point x="239.1818181818182" y="535.7045454545455" type="line" smooth="yes"/>
      <point x="239.1818181818182" y="587.2954545454545"/>
      <point x="247.1818181818182" y="654.4545454545455"/>
      <point x="251.0" y="676.1590909090909" type="curve"/>
      <point x="208.0909090909091" y="638.9090909090909" type="line"/>
      <point x="323.54545454545456" y="649.3181818181819" type="line"/>
      <point x="319.34090909090907" y="710.0" type="line"/>
      <point x="262.29545454545456" y="707.0"/>
      <point x="215.25" y="705.0"/>
      <point x="178.20454545454547" y="705.0" type="curve" smooth="yes"/>
      <point x="157.5681818181818" y="705.0"/>
      <point x="99.18181818181819" y="708.0"/>
      <point x="62.38636363636363" y="710.0" type="curve"/>
      <point x="57.38636363636363" y="654.3181818181819" type="line"/>
      <point x="171.8409090909091" y="635.7045454545455" type="line"/>
      <point x="127.93181818181819" y="675.75" type="line"/>
      <point x="132.75" y="652.6818181818181"/>
      <point x="142.3409090909091" y="587.9318181818181"/>
      <point x="142.3409090909091" y="565.7045454545455" type="curve" smooth="yes"/>
      <point x="142.3409090909091" y="139.5" type="line" smooth="yes"/>
      <point x="142.3409090909091" y="116.6590909090909"/>
      <point x="131.3409090909091" y="47.25"/>
      <point x="127.93181818181819" y="27.386363636363637" type="curve"/>
      <point x="171.8409090909091" y="70.27272727272727" type="line"/>
      <point x="55.59090909090909" y="47.27272727272727" type="line"/>
    </contour>
  </outline>
</glyph>
<glyph name="L" format="2">
  <advance width="595.2727272727273"/>
  <unicode hex="004C"/>
  <anchor x="295.6363636363636" y="0.0" name="bottom"/>
  <anchor x="196.4090909090909" y="355.0" name="center"/>
  <anchor x="544.1590909090909" y="423.0" name="centerright"/>
  <anchor x="234.38636363636363" y="720.0" name="top"/>
  <anchor x="474.40909090909093" y="494.0" name="topright"/>
  <outline>
    <contour>
      <point x="60.59090909090909" y="-5.0" type="line"/>
      <point x="110.79545454545455" y="-3.0"/>
      <point x="173.0681818181818" y="0.0"/>
      <point x="197.04545454545453" y="0.0" type="curve" smooth="yes"/>
      <point x="392.29545454545456" y="0.0" type="line" smooth="yes"/>
      <point x="410.47727272727275" y="0.0"/>
      <point x="459.9318181818182" y="-2.0"/>
      <point x="506.29545454545456" y="-4.0" type="curve"/>
      <point x="525.2954545454545" y="14.0" type="line"/>
      <point x="540.2954545454545" y="167.29545454545453" type="line"/>
      <point x="483.84090909090907" y="172.29545454545453" type="line"/>
      <point x="469.25" y="105.93181818181819" type="line" smooth="yes"/>
      <point x="466.25" y="93.31818181818181"/>
      <point x="446.45454545454544" y="64.27272727272727"/>
      <point x="429.3863636363636" y="42.79545454545455" type="curve"/>
      <point x="464.09090909090907" y="72.31818181818181" type="line"/>
      <point x="446.70454545454544" y="68.31818181818181"/>
      <point x="403.1136363636364" y="60.11363636363637"/>
      <point x="362.29545454545456" y="60.11363636363637" type="curve" smooth="yes"/>
      <point x="210.5681818181818" y="60.11363636363637" type="line"/>
      <point x="251.79545454545456" y="27.386363636363637" type="line"/>
      <point x="246.79545454545456" y="53.59090909090909"/>
      <point x="239.1818181818182" y="116.68181818181819"/>
      <point x="239.1818181818182" y="169.5" type="curve" smooth="yes"/>
      <point x="239.1818181818182" y="535.7045454545455" type="line" smooth="yes"/>
      <point x="239.1818181818182" y="587.2954545454545"/>
      <point x="247.1818181818182" y="654.4545454545455"/>
      <point x="251.0" y="676.1590909090909" type="curve"/>
      <point x="208.0909090909091" y="638.9090909090909" type="line"/>
      <point x="333.54545454545456" y="649.3181818181819" type="line"/>
      <point x="329.34090909090907" y="710.0" type="line"/>
      <point x="324.52272727272725" y="709.5909090909091"/>
      <point x="239.6818181818182" y="705.0"/>
      <point x="178.20454545454547" y="705.0" type="curve" smooth="yes"/>
      <point x="157.5681818181818" y="705.0"/>
      <point x="99.18181818181819" y="708.0"/>
      <point x="62.38636363636363" y="710.0" type="curve"/>
      <point x="57.38636363636363" y="654.3181818181819" type="line"/>
      <point x="171.8409090909091" y="635.7045454545455" type="line"/>
      <point x="127.93181818181819" y="675.75" type="line"/>
      <point x="132.75" y="652.6818181818181"/>
      <point x="142.3409090909091" y="587.9318181818181"/>
      <point x="142.3409090909091" y="565.7045454545455" type="curve" smooth="yes"/>
      <point x="142.3409090909091" y="139.5" type="line" smooth="yes"/>
      <point x="142.3409090909091" y="116.6590909090909"/>
      <point x="131.3409090909091" y="47.25"/>
      <point x="127.93181818181819" y="27.386363636363637" type="curve"/>
      <point x="171.8409090909091" y="70.27272727272727" type="line"/>
      <point x="55.59090909090909" y="47.27272727272727" type="line"/>
    </contour>
  </outline>
</glyph>
<glyph name="M" format="2">
  <advance width="981.875"/>
  <unicode hex="004D"/>
  <anchor x="490.6363636363636" y="0.0" name="bottom"/>
  <anchor x="490.6363636363636" y="705.0" name="top"/>
  <outline>
    <contour>
      <point x="54.38636363636363" y="-5.0" type="line"/>
      <point x="94.38636363636364" y="-3.0"/>
      <point x="155.38636363636363" y="0.0"/>
      <point x="175.1818181818182" y="0.0" type="curve" smooth="yes"/>
      <point x="292.45454545454544" y="0.0" type="line"/>
      <point x="299.45454545454544" y="55.86363636363637" type="line"/>
      <point x="181.0" y="66.06818181818181" type="line"/>
      <point x="223.5" y="23.84090909090909" type="line"/>
      <point x="220.29545454545453" y="42.31818181818182"/>
      <point x="212.9090909090909" y="134.25"/>
      <point x="214.9090909090909" y="169.29545454545453" type="curve" smooth="yes"/>
      <point x="240.0909090909091" y="616.4545454545455" type="line"/>
      <point x="224.45454545454547" y="614.25" type="line"/>
      <point x="453.1363636363636" y="0.0" type="line"/>
      <point x="494.54545454545456" y="0.0" type="line"/>
      <point x="724.0454545454545" y="614.0454545454545" type="line"/>
      <point x="708.4090909090909" y="616.4545454545455" type="line"/>
      <point x="737.5681818181819" y="139.29545454545453" type="line" smooth="yes"/>
      <point x="739.3636363636364" y="114.27272727272727"/>
      <point x="728.3863636363636" y="42.06818181818182"/>
      <point x="725.3863636363636" y="23.84090909090909" type="curve"/>
      <point x="770.2727272727273" y="70.27272727272727" type="line"/>
      <point x="655.8181818181819" y="47.27272727272727" type="line"/>
      <point x="660.8181818181819" y="-5.0" type="line"/>
      <point x="706.0227272727273" y="-3.0"/>
      <point x="770.6363636363636" y="0.0"/>
      <point x="795.8409090909091" y="0.0" type="curve" smooth="yes"/>
      <point x="925.8863636363636" y="0.0" type="line"/>
      <point x="932.6818181818181" y="55.86363636363637" type="line"/>
      <point x="813.6363636363636" y="66.06818181818181" type="line"/>
      <point x="860.3409090909091" y="23.84090909090909" type="line"/>
      <point x="853.5454545454545" y="54.20454545454545"/>
      <point x="835.75" y="145.1818181818182"/>
      <point x="833.3409090909091" y="169.29545454545453" type="curve" smooth="yes"/>
      <point x="805.1590909090909" y="535.7045454545455" type="line" smooth="yes"/>
      <point x="802.75" y="560.25"/>
      <point x="805.9545454545455" y="620.8181818181819"/>
      <point x="806.9545454545455" y="669.7045454545455" type="curve"/>
      <point x="767.4545454545455" y="638.9090909090909" type="line"/>
      <point x="884.5" y="649.3181818181819" type="line"/>
      <point x="880.2954545454545" y="710.0" type="line"/>
      <point x="834.1590909090909" y="708.0"/>
      <point x="776.9318181818181" y="705.0"/>
      <point x="727.1818181818181" y="705.0" type="curve" smooth="yes"/>
      <point x="695.1136363636364" y="705.0" type="line"/>
      <point x="675.1136363636364" y="685.0" type="line"/>
      <point x="656.9318181818181" y="631.0227272727273"/>
      <point x="629.9545454545455" y="554.25"/>
      <point x="623.1590909090909" y="538.0454545454545" type="curve"/>
      <point x="476.02272727272725" y="143.27272727272728" type="line"/>
      <point x="503.27272727272725" y="143.27272727272728" type="line"/>
      <point x="359.15909090909093" y="529.8181818181819" type="line"/>
      <point x="351.95454545454544" y="548.25"/>
      <point x="325.97727272727275" y="628.4318181818181"/>
      <point x="307.79545454545456" y="684.2045454545455" type="curve"/>
      <point x="288.59090909090907" y="705.0" type="line"/>
      <point x="205.4090909090909" y="705.0" type="line" smooth="yes"/>
      <point x="184.77272727272728" y="705.0"/>
      <point x="126.5909090909091" y="708.0"/>
      <point x="89.79545454545455" y="710.0" type="curve"/>
      <point x="84.79545454545455" y="654.3181818181819" type="line"/>
      <point x="204.02272727272728" y="636.5" type="line"/>
      <point x="161.54545454545453" y="679.0681818181819" type="line"/>
      <point x="165.13636363636363" y="654.2954545454545"/>
      <point x="170.3409090909091" y="589.3409090909091"/>
      <point x="169.13636363636363" y="566.5" type="curve" smooth="yes"/>
      <point x="143.54545454545453" y="139.29545454545453" type="line" smooth="yes"/>
      <point x="142.3409090909091" y="116.6590909090909"/>
      <point x="120.18181818181819" y="40.34090909090909"/>
      <point x="116.1590909090909" y="23.84090909090909" type="curve"/>
      <point x="165.25" y="70.27272727272727" type="line"/>
      <point x="49.38636363636363" y="47.27272727272727" type="line"/>
    </contour>
  </outline>
</glyph>
<glyph name="N" format="2">
  <advance width="809.25"/>
  <unicode hex="004E"/>
  <anchor x="416.40909090909093" y="0.0" name="bottom"/>
  <anchor x="397.8863636363636" y="720.0" name="top"/>
  <outline>
    <contour>
      <point x="62.18181818181818" y="-5.0" type="line"/>
      <point x="102.18181818181819" y="-3.0"/>
      <point x="163.1818181818182" y="0.0"/>
      <point x="183.77272727272728" y="0.0" type="curve" smooth="yes"/>
      <point x="296.1136363636364" y="0.0" type="line"/>
      <point x="302.90909090909093" y="55.86363636363637" type="line"/>
      <point x="184.86363636363637" y="66.06818181818181" type="line"/>
      <point x="227.5681818181818" y="27.636363636363637" type="line"/>
      <point x="223.5681818181818" y="55.45454545454545"/>
      <point x="216.1590909090909" y="117.70454545454545"/>
      <point x="216.1590909090909" y="169.5" type="curve" smooth="yes"/>
      <point x="216.1590909090909" y="584.7045454545455" type="line"/>
      <point x="193.5" y="577.6818181818181" type="line"/>
      <point x="603.5" y="0.0" type="line"/>
      <point x="670.3863636363636" y="0.0" type="line"/>
      <point x="671.1818181818181" y="535.7045454545455" type="line" smooth="yes"/>
      <point x="671.1818181818181" y="590.7045454545455"/>
      <point x="688.1590909090909" y="652.5454545454545"/>
      <point x="692.75" y="677.1590909090909" type="curve"/>
      <point x="647.4545454545455" y="638.9090909090909" type="line"/>
      <point x="762.9090909090909" y="649.3181818181819" type="line"/>
      <point x="758.9090909090909" y="710.0" type="line"/>
      <point x="726.6363636363636" y="708.0"/>
      <point x="685.4318181818181" y="705.0"/>
      <point x="624.5909090909091" y="705.0" type="curve" smooth="yes"/>
      <point x="604.5681818181819" y="705.0"/>
      <point x="549.2045454545455" y="708.0"/>
      <point x="518.2045454545455" y="710.0" type="curve"/>
      <point x="513.2045454545455" y="654.3181818181819" type="line"/>
      <point x="628.25" y="635.7045454545455" type="line"/>
      <point x="583.5454545454545" y="681.3409090909091" type="line"/>
      <point x="587.75" y="660.9090909090909"/>
      <point x="598.9545454545455" y="587.1363636363636"/>
      <point x="598.9545454545455" y="565.7045454545455" type="curve" smooth="yes"/>
      <point x="598.9545454545455" y="134.9318181818182" type="line"/>
      <point x="621.6136363636364" y="141.95454545454547" type="line"/>
      <point x="340.90909090909093" y="530.4318181818181" type="line" smooth="yes"/>
      <point x="329.1136363636364" y="547.0227272727273"/>
      <point x="278.9318181818182" y="628.4090909090909"/>
      <point x="244.54545454545453" y="685.0" type="curve"/>
      <point x="224.75" y="705.0" type="line"/>
      <point x="175.77272727272728" y="705.0" type="line" smooth="yes"/>
      <point x="154.75" y="705.0"/>
      <point x="97.77272727272727" y="708.0"/>
      <point x="60.59090909090909" y="710.0" type="curve"/>
      <point x="55.59090909090909" y="654.3181818181819" type="line"/>
      <point x="172.4318181818182" y="636.5" type="line"/>
      <point x="130.3181818181818" y="672.1818181818181" type="line"/>
      <point x="131.9318181818182" y="655.9545454545455"/>
      <point x="143.13636363636363" y="586.9318181818181"/>
      <point x="143.13636363636363" y="565.7045454545455" type="curve" smooth="yes"/>
      <point x="143.13636363636363" y="139.5" type="line" smooth="yes"/>
      <point x="143.13636363636363" y="117.06818181818181"/>
      <point x="133.13636363636363" y="52.68181818181818"/>
      <point x="129.13636363636363" y="31.454545454545453" type="curve"/>
      <point x="172.63636363636363" y="70.27272727272727" type="line"/>
      <point x="57.18181818181818" y="47.27272727272727" type="line"/>
    </contour>
  </outline>
</glyph>
<glyph name="O" format="2">
  <advance width="801.875"/>
  <unicode hex="004F"/>
  <anchor x="401.27272727272725" y="0.0" name="bottom"/>
  <anchor x="412.52272727272725" y="353.0" name="center"/>
  <anchor x="511.09090909090907" y="0.0" name="ogonek"/>
  <anchor x="401.0681818181818" y="720.0" name="top"/>
  <anchor x="584.7727272727273" y="630.0" name="topright"/>
  <outline>
    <contour>
      <point x="401.27272727272725" y="-15.0" type="curve" smooth="yes"/>
      <point x="618.0681818181819" y="-15.0"/>
      <point x="731.3863636363636" y="134.38636363636363"/>
      <point x="731.3863636363636" y="352.0" type="curve" smooth="yes"/>
      <point x="731.3863636363636" y="570.6136363636364"/>
      <point x="618.0681818181819" y="720.0"/>
      <point x="401.27272727272725" y="720.0" type="curve" smooth="yes"/>
      <point x="184.27272727272728" y="720.0"/>
      <point x="70.36363636363636" y="570.6136363636364"/>
      <point x="70.36363636363636" y="352.0" type="curve" smooth="yes"/>
      <point x="70.36363636363636" y="134.38636363636363"/>
      <point x="184.27272727272728" y="-15.0"/>
    </contour>
    <contour>
      <point x="401.27272727272725" y="42.36363636363637" type="curve" smooth="yes"/>
      <point x="254.38636363636363" y="42.36363636363637"/>
      <point x="183.8409090909091" y="177.5681818181818"/>
      <point x="183.8409090909091" y="352.0" type="curve" smooth="yes"/>
      <point x="183.8409090909091" y="527.4318181818181"/>
      <point x="254.38636363636363" y="662.6363636363636"/>
      <point x="401.27272727272725" y="662.6363636363636" type="curve" smooth="yes"/>
      <point x="547.3636363636364" y="662.6363636363636"/>
      <point x="617.9090909090909" y="527.4318181818181"/>
      <point x="617.9090909090909" y="352.0" type="curve" smooth="yes"/>
      <point x="617.9090909090909" y="177.5681818181818"/>
      <point x="547.3636363636364" y="42.36363636363637"/>
    </contour>
  </outline>
</glyph>
<glyph name="P" format="2">
  <advance width="632.0"/>
  <unicode hex="0050"/>
  <anchor x="316.65909090909093" y="0.0" name="bottom"/>
  <anchor x="316.65909090909093" y="705.0" name="top"/>
  <outline>
    <contour>
      <point x="60.59090909090909" y="-5.0" type="line"/>
      <point x="106.4090909090909" y="-3.0"/>
      <point x="172.02272727272728" y="0.0"/>
      <point x="197.04545454545453" y="0.0" type="curve" smooth="yes"/>
      <point x="337.70454545454544" y="0.0" type="line"/>
      <point x="344.5" y="55.86363636363637" type="line"/>
      <point x="208.0909090909091" y="66.06818181818181" type="line"/>
      <point x="251.79545454545456" y="27.386363636363637" type="line"/>
      <point x="246.79545454545456" y="53.59090909090909"/>
      <point x="239.1818181818182" y="116.68181818181819"/>
      <point x="239.1818181818182" y="169.5" type="curve" smooth="yes"/>
      <point x="239.1818181818182" y="535.7045454545455" type="line" smooth="yes"/>
      <point x="239.1818181818182" y="587.0909090909091"/>
      <point x="247.36363636363637" y="654.4545454545455"/>
      <point x="250.1818181818182" y="676.1590909090909" type="curve"/>
      <point x="178.20454545454547" y="705.0" type="line"/>
      <point x="157.5681818181818" y="705.0"/>
      <point x="99.18181818181819" y="708.0"/>
      <point x="62.38636363636363" y="710.0" type="curve"/>
      <point x="57.38636363636363" y="654.3181818181819" type="line"/>
      <point x="171.8409090909091" y="635.7045454545455" type="line"/>
      <point x="127.93181818181819" y="675.75" type="line"/>
      <point x="132.75" y="652.6818181818181"/>
      <point x="142.3409090909091" y="587.9318181818181"/>
      <point x="142.3409090909091" y="565.7045454545455" type="curve" smooth="yes"/>
      <point x="142.3409090909091" y="139.5" type="line" smooth="yes"/>
      <point x="142.3409090909091" y="116.6590909090909"/>
      <point x="131.3409090909091" y="47.25"/>
      <point x="127.93181818181819" y="27.386363636363637" type="curve"/>
      <point x="171.8409090909091" y="70.27272727272727" type="line"/>
      <point x="55.59090909090909" y="47.27272727272727" type="line"/>
    </contour>
    <contour>
      <point x="325.45454545454544" y="289.52272727272725" type="curve" smooth="yes"/>
      <point x="459.6818181818182" y="289.52272727272725"/>
      <point x="573.75" y="365.75"/>
      <point x="573.75" y="501.1818181818182" type="curve" smooth="yes"/>
      <point x="573.75" y="638.5681818181819"/>
      <point x="487.70454545454544" y="710.0"/>
      <point x="349.5" y="710.0" type="curve" smooth="yes"/>
      <point x="294.5" y="710.0"/>
      <point x="233.20454545454547" y="705.0"/>
      <point x="178.20454545454547" y="705.0" type="curve"/>
      <point x="178.20454545454547" y="649.2727272727273" type="line"/>
      <point x="218.54545454545453" y="653.0681818181819"/>
      <point x="265.90909090909093" y="656.6818181818181"/>
      <point x="305.84090909090907" y="656.6818181818181" type="curve" smooth="yes"/>
      <point x="408.79545454545456" y="656.6818181818181"/>
      <point x="473.29545454545456" y="602.9318181818181"/>
      <point x="473.29545454545456" y="501.1818181818182" type="curve" smooth="yes"/>
      <point x="473.29545454545456" y="394.84090909090907"/>
      <point x="406.1363636363636" y="342.04545454545456"/>
      <point x="303.3863636363636" y="342.04545454545456" type="curve" smooth="yes"/>
      <point x="257.40909090909093" y="342.04545454545456"/>
      <point x="210.4318181818182" y="348.8181818181818"/>
      <point x="164.45454545454547" y="353.79545454545456" type="curve"/>
      <point x="164.45454545454547" y="293.70454545454544" type="line"/>
      <point x="228.38636363636363" y="291.1136363636364"/>
      <point x="273.95454545454544" y="289.52272727272725"/>
    </contour>
  </outline>
</glyph>
<glyph name="Q" format="2">
  <advance width="802.375"/>
  <unicode hex="0051"/>
  <anchor x="401.8636363636364" y="0.0" name="bottom"/>
  <anchor x="401.8636363636364" y="705.0" name="top"/>
  <outline>
    <contour>
      <point x="401.0681818181818" y="-15.0" type="curve" smooth="yes"/>
      <point x="617.8636363636364" y="-15.0"/>
      <point x="731.1818181818181" y="134.38636363636363"/>
      <point x="731.1818181818181" y="352.0" type="curve" smooth="yes"/>
      <point x="731.1818181818181" y="570.6136363636364"/>
      <point x="617.8636363636364" y="720.0"/>
      <point x="401.0681818181818" y="720.0" type="curve" smooth="yes"/>
      <point x="184.0681818181818" y="720.0"/>
      <point x="70.1590909090909" y="570.6136363636364"/>
      <point x="70.1590909090909" y="352.0" type="curve" smooth="yes"/>
      <point x="70.1590909090909" y="134.38636363636363"/>
      <point x="184.0681818181818" y="-15.0"/>
    </contour>
    <contour>
      <point x="695.5" y="-224.0" type="line"/>
      <point x="757.6136363636364" y="-128.6818181818182" type="line"/>
      <point x="696.6136363636364" y="-102.88636363636364"/>
      <point x="611.4090909090909" y="-65.0909090909091"/>
      <point x="599.6136363636364" y="-57.29545454545455" type="curve" smooth="yes"/>
      <point x="482.4318181818182" y="22.886363636363637" type="line"/>
      <point x="405.1818181818182" y="7.613636363636363" type="line"/>
    </contour>
    <contour>
      <point x="401.0681818181818" y="42.36363636363637" type="curve" smooth="yes"/>
      <point x="254.1818181818182" y="42.36363636363637"/>
      <point x="183.63636363636363" y="177.5681818181818"/>
      <point x="183.63636363636363" y="352.0" type="curve" smooth="yes"/>
      <point x="183.63636363636363" y="527.4318181818181"/>
      <point x="254.1818181818182" y="662.6363636363636"/>
      <point x="401.0681818181818" y="662.6363636363636" type="curve" smooth="yes"/>
      <point x="547.1590909090909" y="662.6363636363636"/>
      <point x="617.7045454545455" y="527.4318181818181"/>
      <point x="617.7045454545455" y="352.0" type="curve" smooth="yes"/>
      <point x="617.7045454545455" y="177.5681818181818"/>
      <point x="547.1590909090909" y="42.36363636363637"/>
    </contour>
  </outline>
</glyph>
<glyph name="R" format="2">
  <advance width="695.875"/>
  <unicode hex="0052"/>
  <anchor x="354.34090909090907" y="0.0" name="bottom"/>
  <anchor x="318.09090909090907" y="720.0" name="top"/>
  <outline>
    <contour>
      <point x="60.59090909090909" y="-5.0" type="line"/>
      <point x="106.4090909090909" y="-3.0"/>
      <point x="172.02272727272728" y="0.0"/>
      <point x="197.04545454545453" y="0.0" type="curve" smooth="yes"/>
      <point x="326.8636363636364" y="0.0" type="line"/>
      <point x="333.65909090909093" y="55.86363636363637" type="line"/>
      <point x="208.0909090909091" y="66.06818181818181" type="line"/>
      <point x="251.79545454545456" y="27.386363636363637" type="line"/>
      <point x="246.79545454545456" y="53.59090909090909"/>
      <point x="239.1818181818182" y="116.68181818181819"/>
      <point x="239.1818181818182" y="169.5" type="curve" smooth="yes"/>
      <point x="239.1818181818182" y="535.7045454545455" type="line" smooth="yes"/>
      <point x="239.1818181818182" y="587.0909090909091"/>
      <point x="247.36363636363637" y="654.4545454545455"/>
      <point x="250.1818181818182" y="676.1590909090909" type="curve"/>
      <point x="178.20454545454547" y="705.0" type="line"/>
      <point x="157.5681818181818" y="705.0"/>
      <point x="99.18181818181819" y="708.0"/>
      <point x="62.38636363636363" y="710.0" type="curve"/>
      <point x="57.38636363636363" y="654.3181818181819" type="line"/>
      <point x="171.8409090909091" y="635.7045454545455" type="line"/>
      <point x="127.93181818181819" y="675.75" type="line"/>
      <point x="132.75" y="652.6818181818181"/>
      <point x="142.3409090909091" y="587.9318181818181"/>
      <point x="142.3409090909091" y="565.7045454545455" type="curve" smooth="yes"/>
      <point x="142.3409090909091" y="139.5" type="line" smooth="yes"/>
      <point x="142.3409090909091" y="116.6590909090909"/>
      <point x="131.3409090909091" y="47.25"/>
      <point x="127.93181818181819" y="27.386363636363637" type="curve"/>
      <point x="171.8409090909091" y="70.27272727272727" type="line"/>
      <point x="55.59090909090909" y="47.27272727272727" type="line"/>
    </contour>
    <contour>
      <point x="482.5681818181818" y="0.0" type="curve"/>
      <point x="643.0909090909091" y="0.0" type="line"/>
      <point x="649.8863636363636" y="55.86363636363637" type="line"/>
      <point x="580.7727272727273" y="62.45454545454545" type="line"/>
      <point x="565.2045454545455" y="83.81818181818181"/>
      <point x="542.0227272727273" y="116.20454545454545"/>
      <point x="533.0227272727273" y="131.0" type="curve" smooth="yes"/>
      <point x="526.4318181818181" y="140.0"/>
      <point x="463.40909090909093" y="243.0"/>
      <point x="411.02272727272725" y="349.0" type="curve"/>
      <point x="307.0" y="345.0" type="line"/>
      <point x="427.59090909090907" y="116.0" type="line" smooth="yes"/>
      <point x="435.59090909090907" y="100.0"/>
      <point x="464.77272727272725" y="39.0"/>
    </contour>
    <contour>
      <point x="323.6136363636364" y="298.90909090909093" type="curve" smooth="yes"/>
      <point x="457.25" y="298.90909090909093"/>
      <point x="570.1363636363636" y="375.15909090909093"/>
      <point x="570.1363636363636" y="507.3863636363636" type="curve" smooth="yes"/>
      <point x="570.1363636363636" y="640.1590909090909"/>
      <point x="485.09090909090907" y="710.0"/>
      <point x="347.8863636363636" y="710.0" type="curve" smooth="yes"/>
      <point x="292.8863636363636" y="710.0"/>
      <point x="233.20454545454547" y="705.0"/>
      <point x="178.20454545454547" y="705.0" type="curve"/>
      <point x="178.20454545454547" y="646.6818181818181" type="line"/>
      <point x="218.75" y="652.0681818181819"/>
      <point x="271.52272727272725" y="656.6818181818181"/>
      <point x="305.65909090909093" y="656.6818181818181" type="curve" smooth="yes"/>
      <point x="407.40909090909093" y="656.6818181818181"/>
      <point x="469.6818181818182" y="604.5"/>
      <point x="469.6818181818182" y="506.3636363636364" type="curve" smooth="yes"/>
      <point x="469.6818181818182" y="402.8181818181818"/>
      <point x="405.3636363636364" y="351.84090909090907"/>
      <point x="303.6136363636364" y="351.84090909090907" type="curve" smooth="yes"/>
      <point x="256.8181818181818" y="351.84090909090907"/>
      <point x="210.8181818181818" y="358.6136363636364"/>
      <point x="164.02272727272728" y="363.59090909090907" type="curve"/>
      <point x="164.02272727272728" y="304.34090909090907" type="line"/>
      <point x="217.02272727272728" y="300.9318181818182"/>
      <point x="270.8181818181818" y="298.90909090909093"/>
    </contour>
  </outline>
</glyph>
<glyph name="S" format="2">
  <advance width="598.5"/>
  <unicode hex="0053"/>
  <anchor x="283.8863636363636" y="0.0" name="bottom"/>
  <anchor x="311.02272727272725" y="720.0" name="top"/>
  <outline>
    <contour>
      <point x="291.25" y="-15.0" type="curve" smooth="yes"/>
      <point x="424.29545454545456" y="-15.0"/>
      <point x="532.1136363636364" y="51.06818181818182"/>
      <point x="532.1136363636364" y="183.88636363636363" type="curve" smooth="yes"/>
      <point x="532.1136363636364" y="411.29545454545456"/>
      <point x="188.8181818181818" y="398.45454545454544"/>
      <point x="188.8181818181818" y="553.5681818181819" type="curve" smooth="yes"/>
      <point x="188.8181818181818" y="624.6818181818181"/>
      <point x="239.77272727272728" y="661.6590909090909"/>
      <point x="301.5681818181818" y="661.6590909090909" type="curve" smooth="yes"/>
      <point x="355.3636363636364" y="661.6590909090909"/>
      <point x="393.27272727272725" y="652.75"/>
      <point x="446.79545454545456" y="624.7954545454545" type="curve"/>
      <point x="409.1818181818182" y="668.5454545454545" type="line"/>
      <point x="417.40909090909093" y="640.7045454545455"/>
      <point x="429.6363636363636" y="597.0681818181819"/>
      <point x="429.6363636363636" y="583.8863636363636" type="curve" smooth="yes"/>
      <point x="430.04545454545456" y="538.8181818181819" type="line"/>
      <point x="491.1136363636364" y="532.4318181818181" type="line"/>
      <point x="505.1136363636364" y="687.3863636363636" type="line"/>
      <point x="440.09090909090907" y="704.2045454545455"/>
      <point x="366.25" y="720.0"/>
      <point x="301.04545454545456" y="720.0" type="curve" smooth="yes"/>
      <point x="176.0" y="720.0"/>
      <point x="82.18181818181819" y="653.9545454545455"/>
      <point x="82.18181818181819" y="533.75" type="curve" smooth="yes"/>
      <point x="82.18181818181819" y="315.8636363636364"/>
      <point x="421.09090909090907" y="332.3181818181818"/>
      <point x="421.09090909090907" y="169.38636363636363" type="curve" smooth="yes"/>
      <point x="421.09090909090907" y="91.27272727272727"/>
      <point x="369.90909090909093" y="48.34090909090909"/>
      <point x="291.79545454545456" y="48.34090909090909" type="curve" smooth="yes"/>
      <point x="232.95454545454547" y="48.34090909090909"/>
      <point x="179.1590909090909" y="67.79545454545455"/>
      <point x="142.52272727272728" y="85.4090909090909" type="curve"/>
      <point x="170.95454545454547" y="52.38636363636363" type="line"/>
      <point x="166.5681818181818" y="66.75"/>
      <point x="153.0681818181818" y="125.45454545454545"/>
      <point x="153.0681818181818" y="139.25" type="curve" smooth="yes"/>
      <point x="152.86363636363637" y="188.9318181818182" type="line"/>
      <point x="85.0" y="194.9318181818182" type="line"/>
      <point x="70.0" y="37.18181818181818" type="line"/>
      <point x="107.81818181818181" y="14.590909090909092"/>
      <point x="193.04545454545453" y="-15.0"/>
    </contour>
  </outline>
</glyph>
<glyph name="T" format="2">
  <advance width="691.25"/>
  <unicode hex="0054"/>
  <anchor x="350.02272727272725" y="0.0" name="bottom"/>
  <anchor x="343.25" y="353.0" name="center"/>
  <anchor x="345.84090909090907" y="720.0" name="top"/>
  <outline>
    <contour>
      <point x="204.13636363636363" y="-5.0" type="line"/>
      <point x="253.5681818181818" y="-3.0"/>
      <point x="328.02272727272725" y="0.0"/>
      <point x="351.4318181818182" y="0.0" type="curve" smooth="yes"/>
      <point x="493.52272727272725" y="0.0" type="line"/>
      <point x="500.1136363636364" y="55.86363636363637" type="line"/>
      <point x="363.0681818181818" y="66.06818181818181" type="line"/>
      <point x="406.1818181818182" y="27.386363636363637" type="line"/>
      <point x="401.77272727272725" y="54.20454545454545"/>
      <point x="394.3636363636364" y="117.0909090909091"/>
      <point x="394.3636363636364" y="169.5" type="curve" smooth="yes"/>
      <point x="394.3636363636364" y="535.7045454545455" type="line" smooth="yes"/>
      <point x="394.3636363636364" y="588.5227272727273"/>
      <point x="402.3636363636364" y="654.4545454545455"/>
      <point x="405.3863636363636" y="676.1590909090909" type="curve"/>
      <point x="283.1136363636364" y="675.75" type="line"/>
      <point x="286.9318181818182" y="653.2954545454545"/>
      <point x="297.52272727272725" y="587.9318181818181"/>
      <point x="297.52272727272725" y="565.7045454545455" type="curve" smooth="yes"/>
      <point x="297.52272727272725" y="139.5" type="line" smooth="yes"/>
      <point x="297.52272727272725" y="117.06818181818181"/>
      <point x="286.52272727272725" y="47.65909090909091"/>
      <point x="283.1136363636364" y="27.386363636363637" type="curve"/>
      <point x="326.8181818181818" y="70.27272727272727" type="line"/>
      <point x="199.13636363636363" y="47.27272727272727" type="line"/>
    </contour>
    <contour>
      <point x="116.02272727272727" y="521.3409090909091" type="line"/>
      <point x="118.02272727272727" y="546.7045454545455"/>
      <point x="124.81818181818181" y="589.7045454545455"/>
      <point x="128.8181818181818" y="604.9090909090909" type="curve"/>
      <point x="161.5909090909091" y="677.4090909090909" type="line"/>
      <point x="116.93181818181819" y="640.5" type="line"/>
      <point x="135.88636363636363" y="641.5"/>
      <point x="189.52272727272728" y="646.7045454545455"/>
      <point x="226.38636363636363" y="646.7045454545455" type="curve" smooth="yes"/>
      <point x="465.3181818181818" y="646.7045454545455" type="line" smooth="yes"/>
      <point x="502.3863636363636" y="646.7045454545455"/>
      <point x="554.1818181818181" y="642.5"/>
      <point x="574.1818181818181" y="640.5" type="curve"/>
      <point x="528.6818181818181" y="677.2045454545455" type="line"/>
      <point x="562.6818181818181" y="604.9090909090909" type="line"/>
      <point x="567.0681818181819" y="589.9090909090909"/>
      <point x="573.8636363636364" y="546.7045454545455"/>
      <point x="575.8636363636364" y="521.3409090909091" type="curve"/>
      <point x="634.9090909090909" y="526.3409090909091" type="line"/>
      <point x="627.7045454545455" y="692.0" type="line"/>
      <point x="608.7045454545455" y="710.0" type="line"/>
      <point x="571.75" y="708.0"/>
      <point x="512.2954545454545" y="705.0"/>
      <point x="494.5" y="705.0" type="curve" smooth="yes"/>
      <point x="196.38636363636363" y="705.0" type="line" smooth="yes"/>
      <point x="178.38636363636363" y="705.0"/>
      <point x="120.38636363636364" y="708.0"/>
      <point x="82.38636363636364" y="710.0" type="curve"/>
      <point x="63.18181818181818" y="692.0" type="line"/>
      <point x="56.18181818181818" y="526.3409090909091" type="line"/>
    </contour>
  </outline>
</glyph>
<glyph name="U" format="2">
  <advance width="786.375"/>
  <unicode hex="0055"/>
  <anchor x="399.40909090909093" y="0.0" name="bottom"/>
  <anchor x="624.9545454545455" y="460.0" name="horn"/>
  <anchor x="492.8863636363636" y="0.0" name="ogonek"/>
  <anchor x="396.27272727272725" y="720.0" name="top"/>
  <outline>
    <contour>
      <point x="392.84090909090907" y="-15.0" type="curve" smooth="yes"/>
      <point x="565.9090909090909" y="-15.0"/>
      <point x="654.9545454545455" y="95.4090909090909"/>
      <point x="654.9545454545455" y="266.40909090909093" type="curve" smooth="yes"/>
      <point x="654.9545454545455" y="531.3181818181819" type="line" smooth="yes"/>
      <point x="654.9545454545455" y="583.1136363636364"/>
      <point x="662.9545454545455" y="654.2954545454545"/>
      <point x="666.1818181818181" y="681.1818181818181" type="curve"/>
      <point x="623.8636363636364" y="638.9090909090909" type="line"/>
      <point x="740.1136363636364" y="649.3181818181819" type="line"/>
      <point x="735.9090909090909" y="710.0" type="line"/>
      <point x="698.7045454545455" y="708.0"/>
      <point x="648.5227272727273" y="705.0"/>
      <point x="601.2045454545455" y="705.0" type="curve" smooth="yes"/>
      <point x="580.1818181818181" y="705.0"/>
      <point x="531.5681818181819" y="708.0"/>
      <point x="495.3863636363636" y="710.0" type="curve"/>
      <point x="490.3863636363636" y="654.3181818181819" type="line"/>
      <point x="608.8181818181819" y="635.7045454545455" type="line"/>
      <point x="560.9318181818181" y="681.1818181818181" type="line"/>
      <point x="564.3409090909091" y="663.6818181818181"/>
      <point x="576.9318181818181" y="583.75"/>
      <point x="576.9318181818181" y="561.3181818181819" type="curve" smooth="yes"/>
      <point x="576.9318181818181" y="265.1818181818182" type="line" smooth="yes"/>
      <point x="576.9318181818181" y="142.27272727272728"/>
      <point x="521.4090909090909" y="53.59090909090909"/>
      <point x="403.0681818181818" y="53.59090909090909" type="curve" smooth="yes"/>
      <point x="289.54545454545456" y="53.59090909090909"/>
      <point x="233.5681818181818" y="142.3181818181818"/>
      <point x="233.5681818181818" y="265.1818181818182" type="curve" smooth="yes"/>
      <point x="233.5681818181818" y="531.3181818181819" type="line" smooth="yes"/>
      <point x="233.5681818181818" y="582.9090909090909"/>
      <point x="240.95454545454547" y="653.25"/>
      <point x="244.1818181818182" y="681.1818181818181" type="curve"/>
      <point x="202.0681818181818" y="638.9090909090909" type="line"/>
      <point x="318.52272727272725" y="649.3181818181819" type="line"/>
      <point x="314.3181818181818" y="710.0" type="line"/>
      <point x="284.15909090909093" y="708.2045454545455"/>
      <point x="210.1818181818182" y="705.0"/>
      <point x="166.20454545454547" y="705.0" type="curve" smooth="yes"/>
      <point x="145.5681818181818" y="705.0"/>
      <point x="87.18181818181819" y="708.0"/>
      <point x="50.38636363636363" y="710.0" type="curve"/>
      <point x="45.38636363636363" y="654.3181818181819" type="line"/>
      <point x="162.02272727272728" y="636.5" type="line"/>
      <point x="116.93181818181819" y="681.1818181818181" type="line"/>
      <point x="121.52272727272727" y="654.7954545454545"/>
      <point x="132.52272727272728" y="584.1590909090909"/>
      <point x="132.52272727272728" y="561.3181818181819" type="curve" smooth="yes"/>
      <point x="132.52272727272728" y="266.40909090909093" type="line" smooth="yes"/>
      <point x="132.52272727272728" y="95.4090909090909"/>
      <point x="220.36363636363637" y="-15.0"/>
    </contour>
  </outline>
</glyph>
<glyph name="V" format="2">
  <advance width="771.125"/>
  <unicode hex="0056"/>
  <anchor x="386.15909090909093" y="0.0" name="bottom"/>
  <anchor x="386.15909090909093" y="720.0" name="top"/>
  <outline>
    <contour>
      <point x="364.79545454545456" y="0.0" type="line"/>
      <point x="430.79545454545456" y="0.0" type="line"/>
      <point x="620.5909090909091" y="542.2727272727273" type="line" smooth="yes"/>
      <point x="642.3636363636364" y="602.5909090909091"/>
      <point x="672.0227272727273" y="649.1363636363636"/>
      <point x="683.6363636363636" y="668.75" type="curve"/>
      <point x="629.3181818181819" y="638.3181818181819" type="line"/>
      <point x="724.5454545454545" y="649.3181818181819" type="line"/>
      <point x="720.3409090909091" y="710.0" type="line"/>
      <point x="672.9545454545455" y="707.0"/>
      <point x="624.1136363636364" y="705.0"/>
      <point x="577.1818181818181" y="705.0" type="curve" smooth="yes"/>
      <point x="561.5227272727273" y="705.0"/>
      <point x="523.4318181818181" y="707.2045454545455"/>
      <point x="484.45454545454544" y="710.0" type="curve"/>
      <point x="479.45454545454544" y="654.3181818181819" type="line"/>
      <point x="596.2954545454545" y="634.1136363636364" type="line"/>
      <point x="566.6363636363636" y="673.1136363636364" type="line"/>
      <point x="565.4318181818181" y="651.9090909090909"/>
      <point x="561.7727272727273" y="601.25"/>
      <point x="552.1818181818181" y="574.8636363636364" type="curve" smooth="yes"/>
      <point x="394.09090909090907" y="117.52272727272728" type="line"/>
      <point x="420.54545454545456" y="117.52272727272728" type="line"/>
      <point x="264.90909090909093" y="531.3181818181819" type="line" smooth="yes"/>
      <point x="246.75" y="577.8409090909091"/>
      <point x="232.70454545454547" y="642.75"/>
      <point x="229.9090909090909" y="669.5681818181819" type="curve"/>
      <point x="196.61363636363637" y="634.1363636363636" type="line"/>
      <point x="314.95454545454544" y="649.3181818181819" type="line"/>
      <point x="310.75" y="710.0" type="line"/>
      <point x="261.8863636363636" y="707.0"/>
      <point x="212.5681818181818" y="705.0"/>
      <point x="164.95454545454547" y="705.0" type="curve" smooth="yes"/>
      <point x="143.9318181818182" y="705.0"/>
      <point x="87.36363636363636" y="707.7954545454545"/>
      <point x="50.38636363636363" y="710.0" type="curve"/>
      <point x="45.38636363636363" y="654.3181818181819" type="line"/>
      <point x="147.38636363636363" y="630.9090909090909" type="line"/>
      <point x="93.68181818181819" y="664.75" type="line"/>
      <point x="103.29545454545455" y="649.3409090909091"/>
      <point x="134.27272727272728" y="600.5227272727273"/>
      <point x="151.45454545454547" y="555.5681818181819" type="curve" smooth="yes"/>
    </contour>
  </outline>
</glyph>
<glyph name="W" format="2">
  <advance width="1098.875"/>
  <unicode hex="0057"/>
  <anchor x="549.3409090909091" y="0.0" name="bottom"/>
  <anchor x="549.3409090909091" y="705.0" name="top"/>
  <outline>
    <contour>
      <point x="330.40909090909093" y="0.0" type="line"/>
      <point x="396.6136363636364" y="0.0" type="line"/>
      <point x="557.1818181818181" y="535.3863636363636" type="line"/>
      <point x="535.3181818181819" y="535.3863636363636" type="line"/>
      <point x="710.0" y="0.0" type="line"/>
      <point x="776.2045454545455" y="0.0" type="line"/>
      <point x="940.0" y="542.2727272727273" type="line"/>
      <point x="954.7954545454545" y="589.6590909090909"/>
      <point x="988.0227272727273" y="645.3636363636364"/>
      <point x="1005.0454545454545" y="672.9545454545455" type="curve"/>
      <point x="948.1136363636364" y="638.3181818181819" type="line"/>
      <point x="1052.2954545454545" y="649.3181818181819" type="line"/>
      <point x="1048.2954545454545" y="710.0" type="line"/>
      <point x="1011.5" y="708.0"/>
      <point x="953.6590909090909" y="705.0"/>
      <point x="904.9318181818181" y="705.0" type="curve" smooth="yes"/>
      <point x="884.9090909090909" y="705.0"/>
      <point x="849.4318181818181" y="707.2045454545455"/>
      <point x="813.4545454545455" y="710.0" type="curve"/>
      <point x="808.4545454545455" y="654.3181818181819" type="line"/>
      <point x="922.1136363636364" y="632.5227272727273" type="line"/>
      <point x="885.4318181818181" y="667.4090909090909" type="line"/>
      <point x="885.8409090909091" y="651.1590909090909"/>
      <point x="881.1818181818181" y="609.2045454545455"/>
      <point x="872.0" y="575.0681818181819" type="curve"/>
      <point x="741.7045454545455" y="116.52272727272728" type="line"/>
      <point x="763.75" y="116.52272727272728" type="line"/>
      <point x="587.0681818181819" y="684.3636363636364" type="line"/>
      <point x="528.0454545454545" y="684.3636363636364" type="line"/>
      <point x="362.1136363636364" y="116.52272727272728" type="line"/>
      <point x="383.15909090909093" y="116.52272727272728" type="line"/>
      <point x="261.09090909090907" y="531.3181818181819" type="line"/>
      <point x="244.52272727272728" y="590.0227272727273"/>
      <point x="234.29545454545453" y="635.2045454545455"/>
      <point x="231.5" y="665.4090909090909" type="curve"/>
      <point x="196.61363636363637" y="634.1363636363636" type="line"/>
      <point x="313.70454545454544" y="649.3181818181819" type="line"/>
      <point x="309.5" y="710.0" type="line"/>
      <point x="270.65909090909093" y="708.0"/>
      <point x="211.95454545454547" y="705.0"/>
      <point x="165.1590909090909" y="705.0" type="curve" smooth="yes"/>
      <point x="144.13636363636363" y="705.0"/>
      <point x="87.36363636363636" y="708.0"/>
      <point x="50.38636363636363" y="710.0" type="curve"/>
      <point x="45.38636363636363" y="654.3181818181819" type="line"/>
      <point x="147.77272727272728" y="631.1136363636364" type="line"/>
      <point x="92.06818181818181" y="669.2045454545455" type="line"/>
      <point x="106.0" y="644.2954545454545"/>
      <point x="131.29545454545453" y="604.6136363636364"/>
      <point x="148.25" y="554.75" type="curve"/>
    </contour>
  </outline>
</glyph>
<glyph name="X" format="2">
  <advance width="795.875"/>
  <unicode hex="0058"/>
  <anchor x="398.0" y="0.0" name="bottom"/>
  <anchor x="398.0" y="705.0" name="top"/>
  <outline>
    <contour>
      <point x="57.0" y="-5.0" type="line"/>
      <point x="104.79545454545455" y="-3.0"/>
      <point x="173.38636363636363" y="0.0"/>
      <point x="201.1818181818182" y="0.0" type="curve" smooth="yes"/>
      <point x="298.6136363636364" y="0.0" type="line"/>
      <point x="303.6136363636364" y="55.86363636363637" type="line"/>
      <point x="194.61363636363637" y="70.45454545454545" type="line"/>
      <point x="223.0909090909091" y="44.18181818181818" type="line"/>
      <point x="233.6818181818182" y="66.5909090909091"/>
      <point x="253.9090909090909" y="112.0"/>
      <point x="267.5" y="132.0" type="curve" smooth="yes"/>
      <point x="399.6363636363636" y="328.70454545454544" type="line"/>
      <point x="356.52272727272725" y="328.70454545454544" type="line"/>
      <point x="488.25" y="142.0" type="line" smooth="yes"/>
      <point x="506.04545454545456" y="117.20454545454545"/>
      <point x="531.6590909090909" y="67.95454545454545"/>
      <point x="541.4545454545455" y="42.59090909090909" type="curve"/>
      <point x="569.9318181818181" y="72.8409090909091" type="line"/>
      <point x="468.9318181818182" y="45.68181818181818" type="line"/>
      <point x="473.1363636363636" y="-5.0" type="line"/>
      <point x="525.5681818181819" y="-3.0"/>
      <point x="597.2045454545455" y="0.0"/>
      <point x="628.8409090909091" y="0.0" type="curve" smooth="yes"/>
      <point x="739.2045454545455" y="0.0" type="line"/>
      <point x="744.2045454545455" y="55.86363636363637" type="line"/>
      <point x="632.2045454545455" y="71.27272727272727" type="line"/>
      <point x="687.3636363636364" y="48.18181818181818" type="line"/>
      <point x="664.2954545454545" y="70.04545454545455"/>
      <point x="623.1818181818181" y="114.36363636363636"/>
      <point x="610.75" y="132.0" type="curve" smooth="yes"/>
      <point x="419.27272727272725" y="401.1136363636364" type="line"/>
      <point x="419.6818181818182" y="335.95454545454544" type="line"/>
      <point x="570.3181818181819" y="568.7954545454545" type="line" smooth="yes"/>
      <point x="580.3181818181819" y="584.5909090909091"/>
      <point x="652.2045454545455" y="646.2954545454545"/>
      <point x="674.4545454545455" y="664.3409090909091" type="curve"/>
      <point x="609.3409090909091" y="638.1136363636364" type="line"/>
      <point x="717.0227272727273" y="649.3181818181819" type="line"/>
      <point x="712.8181818181819" y="710.0" type="line"/>
      <point x="661.4318181818181" y="708.0"/>
      <point x="599.8409090909091" y="705.0"/>
      <point x="559.25" y="705.0" type="curve" smooth="yes"/>
      <point x="538.4318181818181" y="705.0"/>
      <point x="492.25" y="708.0"/>
      <point x="459.04545454545456" y="710.0" type="curve"/>
      <point x="454.04545454545456" y="654.3181818181819" type="line"/>
      <point x="565.0" y="632.5227272727273" type="line"/>
      <point x="537.75" y="663.4545454545455" type="line"/>
      <point x="525.5227272727273" y="637.1818181818181"/>
      <point x="505.9318181818182" y="598.2045454545455"/>
      <point x="493.9318181818182" y="578.0" type="curve" smooth="yes"/>
      <point x="379.3863636363636" y="393.29545454545456" type="line"/>
      <point x="422.09090909090907" y="394.09090909090907" type="line"/>
      <point x="308.1818181818182" y="555.0" type="line" smooth="yes"/>
      <point x="291.77272727272725" y="579.4090909090909"/>
      <point x="267.54545454545456" y="639.3863636363636"/>
      <point x="261.3636363636364" y="655.2045454545455" type="curve"/>
      <point x="228.6818181818182" y="634.1363636363636" type="line"/>
      <point x="343.25" y="649.3181818181819" type="line"/>
      <point x="339.04545454545456" y="710.0" type="line"/>
      <point x="288.8181818181818" y="708.0"/>
      <point x="228.79545454545453" y="705.0"/>
      <point x="188.5681818181818" y="705.0" type="curve" smooth="yes"/>
      <point x="167.3181818181818" y="705.0"/>
      <point x="110.36363636363636" y="708.0"/>
      <point x="72.75" y="710.0" type="curve"/>
      <point x="67.75" y="654.3181818181819" type="line"/>
      <point x="171.20454545454547" y="630.9318181818181" type="line"/>
      <point x="122.02272727272727" y="653.4090909090909" type="line"/>
      <point x="133.86363636363637" y="638.3636363636364"/>
      <point x="176.6590909090909" y="583.2045454545455"/>
      <point x="193.86363636363637" y="558.0" type="curve" smooth="yes"/>
      <point x="360.54545454545456" y="322.27272727272725" type="line"/>
      <point x="360.54545454545456" y="385.84090909090907" type="line"/>
      <point x="207.9090909090909" y="164.0" type="line" smooth="yes"/>
      <point x="187.9090909090909" y="135.0"/>
      <point x="116.54545454545455" y="64.63636363636364"/>
      <point x="104.11363636363636" y="51.20454545454545" type="curve"/>
      <point x="152.6590909090909" y="71.45454545454545" type="line"/>
      <point x="52.79545454545455" y="45.68181818181818" type="line"/>
    </contour>
  </outline>
</glyph>
<glyph name="Y" format="2">
  <advance width="737.75"/>
  <unicode hex="0059"/>
  <anchor x="365.5" y="0.0" name="bottom"/>
  <anchor x="374.09090909090907" y="720.0" name="top"/>
  <outline>
    <contour>
      <point x="335.02272727272725" y="233.9090909090909" type="line"/>
      <point x="401.02272727272725" y="233.9090909090909" type="line"/>
      <point x="560.6818181818181" y="544.7954545454545" type="line" smooth="yes"/>
      <point x="593.0454545454545" y="605.9318181818181"/>
      <point x="630.2727272727273" y="650.9090909090909"/>
      <point x="643.2954545454545" y="665.3181818181819" type="curve"/>
      <point x="584.5454545454545" y="638.1136363636364" type="line"/>
      <point x="691.4090909090909" y="649.3181818181819" type="line"/>
      <point x="687.2045454545455" y="710.0" type="line"/>
      <point x="663.8636363636364" y="708.7954545454545"/>
      <point x="600.2954545454545" y="705.0"/>
      <point x="543.2045454545455" y="705.0" type="curve" smooth="yes"/>
      <point x="522.3863636363636" y="705.0"/>
      <point x="483.3636363636364" y="708.0"/>
      <point x="451.75" y="710.0" type="curve"/>
      <point x="446.75" y="654.3181818181819" type="line"/>
      <point x="556.9090909090909" y="632.5227272727273" type="line"/>
      <point x="533.8181818181819" y="674.1818181818181" type="line"/>
      <point x="530.6136363636364" y="661.8863636363636"/>
      <point x="508.29545454545456" y="608.7954545454545"/>
      <point x="494.3181818181818" y="579.0454545454545" type="curve" smooth="yes"/>
      <point x="362.29545454545456" y="311.40909090909093" type="line"/>
      <point x="397.1818181818182" y="312.20454545454544" type="line"/>
      <point x="278.52272727272725" y="537.1590909090909" type="line" smooth="yes"/>
      <point x="241.63636363636363" y="603.7727272727273"/>
      <point x="232.04545454545456" y="649.8863636363636"/>
      <point x="231.4318181818182" y="666.3636363636364" type="curve"/>
      <point x="199.95454545454547" y="634.1363636363636" type="line"/>
      <point x="314.52272727272725" y="649.3181818181819" type="line"/>
      <point x="310.3181818181818" y="710.0" type="line"/>
      <point x="285.54545454545456" y="708.7954545454545"/>
      <point x="223.9318181818182" y="705.0"/>
      <point x="166.20454545454547" y="705.0" type="curve" smooth="yes"/>
      <point x="144.95454545454547" y="705.0"/>
      <point x="88.0" y="708.0"/>
      <point x="50.38636363636363" y="710.0" type="curve"/>
      <point x="45.38636363636363" y="654.3181818181819" type="line"/>
      <point x="148.8409090909091" y="630.9318181818181" type="line"/>
      <point x="92.79545454545455" y="665.5227272727273" type="line"/>
      <point x="104.81818181818181" y="650.0909090909091"/>
      <point x="140.75" y="606.1818181818181"/>
      <point x="165.70454545454547" y="557.6818181818181" type="curve" smooth="yes"/>
    </contour>
    <contour>
      <point x="240.8409090909091" y="-5.0" type="line"/>
      <point x="290.84090909090907" y="-3.0"/>
      <point x="362.65909090909093" y="0.0"/>
      <point x="377.29545454545456" y="0.0" type="curve" smooth="yes"/>
      <point x="507.75" y="0.0" type="line"/>
      <point x="514.5454545454545" y="55.86363636363637" type="line"/>
      <point x="388.1363636363636" y="66.06818181818181" type="line"/>
      <point x="432.04545454545456" y="27.386363636363637" type="line"/>
      <point x="426.84090909090907" y="54.20454545454545"/>
      <point x="419.4318181818182" y="117.0909090909091"/>
      <point x="419.4318181818182" y="169.5" type="curve" smooth="yes"/>
      <point x="419.4318181818182" y="318.34090909090907" type="line"/>
      <point x="322.59090909090907" y="318.34090909090907" type="line"/>
      <point x="322.59090909090907" y="139.5" type="line" smooth="yes"/>
      <point x="322.59090909090907" y="117.06818181818181"/>
      <point x="311.59090909090907" y="47.65909090909091"/>
      <point x="308.1818181818182" y="27.386363636363637" type="curve"/>
      <point x="351.8863636363636" y="70.27272727272727" type="line"/>
      <point x="235.8409090909091" y="47.27272727272727" type="line"/>
    </contour>
  </outline>
</glyph>
<glyph name="Z" format="2">
  <advance width="635.75"/>
  <unicode hex="005A"/>
  <anchor x="319.27272727272725" y="0.0" name="bottom"/>
  <anchor x="319.27272727272725" y="353.0" name="center"/>
  <anchor x="319.27272727272725" y="720.0" name="top"/>
  <outline>
    <contour>
      <point x="537.3636363636364" y="-4.0" type="curve"/>
      <point x="556.3636363636364" y="14.0" type="line"/>
      <point x="571.3636363636364" y="176.88636363636363" type="line"/>
      <point x="515.3181818181819" y="181.88636363636363" type="line"/>
      <point x="512.9090909090909" y="164.8409090909091"/>
      <point x="504.3181818181818" y="116.77272727272728"/>
      <point x="500.52272727272725" y="106.95454545454545" type="curve" smooth="yes"/>
      <point x="495.34090909090907" y="95.95454545454545"/>
      <point x="469.9318181818182" y="52.90909090909091"/>
      <point x="452.54545454545456" y="30.681818181818183" type="curve"/>
      <point x="524.0909090909091" y="76.70454545454545" type="line"/>
      <point x="499.90909090909093" y="72.70454545454545"/>
      <point x="432.75" y="62.11363636363637"/>
      <point x="392.34090909090907" y="62.11363636363637" type="curve" smooth="yes"/>
      <point x="155.4090909090909" y="62.11363636363637" type="line"/>
      <point x="175.70454545454547" y="29.09090909090909" type="line"/>
      <point x="205.0909090909091" y="83.68181818181819"/>
      <point x="248.20454545454547" y="164.1590909090909"/>
      <point x="265.6818181818182" y="193.27272727272728" type="curve" smooth="yes"/>
      <point x="453.75" y="490.8863636363636" type="line" smooth="yes"/>
      <point x="487.3181818181818" y="543.8409090909091"/>
      <point x="525.3636363636364" y="594.9318181818181"/>
      <point x="561.5454545454545" y="646.9090909090909" type="curve"/>
      <point x="554.1363636363636" y="705.0" type="line"/>
      <point x="218.95454545454547" y="705.0" type="line"/>
      <point x="179.27272727272728" y="707.2045454545455"/>
      <point x="143.77272727272728" y="711.0"/>
      <point x="104.75" y="715.0" type="curve"/>
      <point x="85.54545454545455" y="697.0" type="line"/>
      <point x="78.54545454545455" y="526.3409090909091" type="line"/>
      <point x="138.0" y="521.3409090909091" type="line"/>
      <point x="140.0" y="547.5227272727273"/>
      <point x="147.20454545454547" y="595.8636363636364"/>
      <point x="151.20454545454547" y="604.9090909090909" type="curve" smooth="yes"/>
      <point x="183.63636363636363" y="673.1818181818181" type="line"/>
      <point x="140.3409090909091" y="636.8863636363636" type="line"/>
      <point x="156.5" y="637.6818181818181"/>
      <point x="214.54545454545453" y="643.0909090909091"/>
      <point x="252.38636363636363" y="643.0909090909091" type="curve" smooth="yes"/>
      <point x="471.5681818181818" y="643.0909090909091" type="line"/>
      <point x="450.6818181818182" y="676.3409090909091" type="line"/>
      <point x="423.3181818181818" y="624.1818181818181"/>
      <point x="396.3181818181818" y="568.75"/>
      <point x="364.54545454545456" y="519.3863636363636" type="curve" smooth="yes"/>
      <point x="176.20454545454547" y="220.86363636363637" type="line" smooth="yes"/>
      <point x="154.8181818181818" y="185.88636363636363"/>
      <point x="99.61363636363636" y="108.0909090909091"/>
      <point x="64.20454545454545" y="58.88636363636364" type="curve"/>
      <point x="71.61363636363636" y="0.0" type="line"/>
      <point x="423.15909090909093" y="0.0" type="line" smooth="yes"/>
      <point x="459.90909090909093" y="0.0"/>
      <point x="499.3636363636364" y="-2.0"/>
    </contour>
  </outline>
</glyph>
<glyph name="bracketleft" format="2">
  <advance width="427.625"/>
  <unicode hex="005B"/>
  <outline>
    <contour>
      <point x="338.3636363636364" y="-107.0" type="line"/>
      <point x="341.3636363636364" y="-60.88636363636363" type="line"/>
      <point x="197.0" y="-43.88636363636363" type="line"/>
      <point x="238.52272727272728" y="-86.63636363636364" type="line"/>
      <point x="229.11363636363637" y="-32.11363636363636"/>
      <point x="219.54545454545453" y="37.27272727272727"/>
      <point x="219.54545454545453" y="66.0" type="curve" smooth="yes"/>
      <point x="219.54545454545453" y="656.0" type="line" smooth="yes"/>
      <point x="219.54545454545453" y="683.9545454545455"/>
      <point x="229.13636363636363" y="759.25"/>
      <point x="238.52272727272728" y="809.6363636363636" type="curve"/>
      <point x="197.0" y="765.8863636363636" type="line"/>
      <point x="341.3636363636364" y="783.8863636363636" type="line"/>
      <point x="338.3636363636364" y="829.0" type="line"/>
      <point x="156.20454545454547" y="825.0" type="line"/>
      <point x="136.1818181818182" y="804.75" type="line"/>
      <point x="140.5681818181818" y="738.3636363636364"/>
      <point x="145.75" y="630.3863636363636"/>
      <point x="145.75" y="604.0" type="curve" smooth="yes"/>
      <point x="145.75" y="118.81818181818181" type="line" smooth="yes"/>
      <point x="145.75" y="91.43181818181819"/>
      <point x="140.5681818181818" y="-16.15909090909091"/>
      <point x="136.1818181818182" y="-82.75" type="curve"/>
      <point x="156.20454545454547" y="-103.0" type="line"/>
    </contour>
  </outline>
</glyph>
<glyph name="bracketright" format="2">
  <advance width="427.625"/>
  <unicode hex="005D"/>
  <outline>
    <contour>
      <point x="89.18181818181819" y="829.0" type="line"/>
      <point x="86.18181818181819" y="782.8863636363636" type="line"/>
      <point x="230.54545454545453" y="765.8863636363636" type="line"/>
      <point x="189.02272727272728" y="808.6363636363636" type="line"/>
      <point x="198.4318181818182" y="754.1136363636364"/>
      <point x="208.0" y="684.7272727272727"/>
      <point x="208.0" y="656.0" type="curve" smooth="yes"/>
      <point x="208.0" y="66.0" type="line" smooth="yes"/>
      <point x="208.0" y="38.04545454545455"/>
      <point x="198.4090909090909" y="-37.25"/>
      <point x="189.02272727272728" y="-87.63636363636364" type="curve"/>
      <point x="230.54545454545453" y="-43.88636363636363" type="line"/>
      <point x="86.18181818181819" y="-61.88636363636363" type="line"/>
      <point x="89.18181818181819" y="-107.0" type="line"/>
      <point x="271.34090909090907" y="-103.0" type="line"/>
      <point x="291.3636363636364" y="-82.75" type="line"/>
      <point x="286.97727272727275" y="-16.363636363636363"/>
      <point x="281.79545454545456" y="91.61363636363636"/>
      <point x="281.79545454545456" y="118.0" type="curve" smooth="yes"/>
      <point x="281.79545454545456" y="603.1818181818181" type="line" smooth="yes"/>
      <point x="281.79545454545456" y="630.5681818181819"/>
      <point x="286.97727272727275" y="738.1590909090909"/>
      <point x="291.3636363636364" y="804.75" type="curve"/>
      <point x="271.34090909090907" y="825.0" type="line"/>
    </contour>
  </outline>
</glyph>
<glyph name="asciicircum" format="2">
  <advance width="729.25"/>
  <unicode hex="005E"/>
  <outline>
    <contour>
      <point x="157.88636363636363" y="109.56818181818181" type="line"/>
      <point x="381.65909090909093" y="585.2045454545455" type="line"/>
      <point x="348.75" y="585.2045454545455" type="line"/>
      <point x="572.5227272727273" y="109.56818181818181" type="line"/>
      <point x="645.0454545454545" y="134.61363636363637" type="line"/>
      <point x="365.20454545454544" y="709.7045454545455" type="line"/>
      <point x="84.36363636363636" y="134.61363636363637" type="line"/>
    </contour>
  </outline>
</glyph>
<glyph name="underscore" format="2">
  <advance width="655.125"/>
  <unicode hex="005F"/>
  <outline>
    <contour>
      <point x="78.18181818181819" y="-232.0" type="line"/>
      <point x="575.1818181818181" y="-232.0" type="line"/>
      <point x="580.1818181818181" y="-154.5" type="line"/>
      <point x="76.18181818181819" y="-154.5" type="line"/>
    </contour>
  </outline>
</glyph>
<glyph name="a" format="2">
  <advance width="524.0"/>
  <unicode hex="0061"/>
  <anchor x="251.29545454545453" y="0.0" name="bottom"/>
  <anchor x="495.15909090909093" y="0.0" name="ogonek"/>
  <anchor x="234.0909090909091" y="494.0" name="top"/>
  <outline>
    <contour>
      <point x="189.8181818181818" y="-10.0" type="curve" smooth="yes"/>
      <point x="277.5681818181818" y="-10.0"/>
      <point x="349.6363636363636" y="53.06818181818182"/>
      <point x="359.95454545454544" y="116.61363636363636" type="curve"/>
      <point x="339.90909090909093" y="117.5" type="line"/>
      <point x="358.8863636363636" y="0.0" type="line"/>
      <point x="495.95454545454544" y="0.0" type="line"/>
      <point x="501.95454545454544" y="55.88636363636364" type="line"/>
      <point x="398.84090909090907" y="67.0909090909091" type="line"/>
      <point x="439.20454545454544" y="34.02272727272727" type="line"/>
      <point x="434.20454545454544" y="60.25"/>
      <point x="424.20454545454544" y="108.29545454545455"/>
      <point x="424.20454545454544" y="169.9318181818182" type="curve" smooth="yes"/>
      <point x="424.20454545454544" y="295.59090909090907" type="line" smooth="yes"/>
      <point x="424.20454545454544" y="443.79545454545456"/>
      <point x="374.25" y="503.4318181818182"/>
      <point x="253.38636363636363" y="503.4318181818182" type="curve" smooth="yes"/>
      <point x="195.86363636363637" y="503.4318181818182"/>
      <point x="132.77272727272728" y="494.6136363636364"/>
      <point x="72.77272727272727" y="479.6136363636364" type="curve"/>
      <point x="83.79545454545455" y="339.25" type="line"/>
      <point x="145.27272727272728" y="342.25" type="line"/>
      <point x="144.27272727272728" y="383.65909090909093" type="line"/>
      <point x="157.5" y="464.1818181818182" type="line"/>
      <point x="124.04545454545455" y="415.65909090909093" type="line"/>
      <point x="146.04545454545453" y="430.02272727272725"/>
      <point x="203.4318181818182" y="445.04545454545456"/>
      <point x="244.20454545454547" y="445.04545454545456" type="curve" smooth="yes"/>
      <point x="306.15909090909093" y="445.04545454545456"/>
      <point x="335.90909090909093" y="402.54545454545456"/>
      <point x="335.90909090909093" y="312.8863636363636" type="curve" smooth="yes"/>
      <point x="335.90909090909093" y="165.75" type="line"/>
      <point x="325.90909090909093" y="104.27272727272727"/>
      <point x="273.45454545454544" y="58.79545454545455"/>
      <point x="210.61363636363637" y="58.79545454545455" type="curve" smooth="yes"/>
      <point x="164.86363636363637" y="58.79545454545455"/>
      <point x="139.9090909090909" y="86.75"/>
      <point x="139.9090909090909" y="135.70454545454547" type="curve" smooth="yes"/>
      <point x="139.9090909090909" y="170.70454545454547"/>
      <point x="161.6590909090909" y="194.88636363636363"/>
      <point x="201.45454545454547" y="201.6818181818182" type="curve"/>
      <point x="349.52272727272725" y="229.4090909090909" type="line"/>
      <point x="349.52272727272725" y="281.6818181818182" type="line"/>
      <point x="178.0" y="253.29545454545453" type="line" smooth="yes"/>
      <point x="87.5909090909091" y="238.29545454545453"/>
      <point x="44.40909090909091" y="189.88636363636363"/>
      <point x="44.40909090909091" y="120.06818181818181" type="curve" smooth="yes"/>
      <point x="44.40909090909091" y="40.81818181818182"/>
      <point x="100.4090909090909" y="-10.0"/>
    </contour>
  </outline>
</glyph>
<glyph name="b" format="2">
  <advance width="549.4545454545455"/>
  <unicode hex="0062"/>
  <anchor x="274.72727272727275" y="0.0" name="bottom"/>
  <anchor x="274.72727272727275" y="756.0" name="top"/>
  <outline>
    <contour>
      <point x="270.95454545454544" y="-10.0" type="curve" smooth="yes"/>
      <point x="416.65909090909093" y="-10.0"/>
      <point x="503.65909090909093" y="110.0909090909091"/>
      <point x="503.65909090909093" y="256.20454545454544" type="curve" smooth="yes"/>
      <point x="503.65909090909093" y="394.6136363636364"/>
      <point x="440.52272727272725" y="503.4318181818182"/>
      <point x="306.5" y="503.4318181818182" type="curve" smooth="yes"/>
      <point x="227.47727272727272" y="503.4318181818182"/>
      <point x="179.29545454545456" y="454.8636363636364"/>
      <point x="155.4090909090909" y="409.3636363636364" type="curve"/>
      <point x="166.88636363636363" y="388.29545454545456" type="line"/>
      <point x="166.88636363636363" y="581.6590909090909" type="line" smooth="yes"/>
      <point x="166.88636363636363" y="618.6590909090909"/>
      <point x="171.29545454545456" y="692.1363636363636"/>
      <point x="174.5" y="737.7954545454545" type="curve"/>
      <point x="155.0909090909091" y="756.0" type="line"/>
      <point x="93.3409090909091" y="756.0" type="line"/>
      <point x="-1.3863636363636362" y="759.4090909090909" type="line"/>
      <point x="-7.204545454545454" y="705.3181818181819" type="line"/>
      <point x="108.11363636363636" y="679.8863636363636" type="line"/>
      <point x="64.38636363636364" y="713.75" type="line"/>
      <point x="69.0" y="687.8636363636364"/>
      <point x="78.5909090909091" y="633.25"/>
      <point x="78.5909090909091" y="611.6590909090909" type="curve" smooth="yes"/>
      <point x="78.5909090909091" y="139.9318181818182" type="line" smooth="yes"/>
      <point x="78.5909090909091" y="124.93181818181819"/>
      <point x="74.18181818181819" y="66.45454545454545"/>
      <point x="70.97727272727273" y="26.0" type="curve"/>
      <point x="123.02272727272728" y="7.545454545454545"/>
      <point x="191.04545454545456" y="-10.0"/>
    </contour>
    <contour>
      <point x="177.8409090909091" y="37.20454545454545" type="line"/>
      <point x="173.27272727272728" y="56.18181818181818"/>
      <point x="167.29545454545456" y="117.38636363636364"/>
      <point x="167.29545454545456" y="169.9318181818182" type="curve" smooth="yes"/>
      <point x="167.29545454545456" y="273.15909090909093" type="line" smooth="yes"/>
      <point x="167.29545454545456" y="354.5"/>
      <point x="205.61363636363637" y="436.5681818181818"/>
      <point x="286.70454545454544" y="436.5681818181818" type="curve" smooth="yes"/>
      <point x="379.0" y="436.5681818181818"/>
      <point x="403.52272727272725" y="348.4318181818182"/>
      <point x="403.52272727272725" y="252.75" type="curve" smooth="yes"/>
      <point x="403.52272727272725" y="145.25"/>
      <point x="370.02272727272725" y="50.79545454545455"/>
      <point x="264.52272727272725" y="50.79545454545455" type="curve" smooth="yes"/>
      <point x="221.77272727272728" y="50.79545454545455"/>
      <point x="182.77272727272728" y="59.63636363636364"/>
      <point x="151.5681818181818" y="69.63636363636364" type="curve"/>
    </contour>
  </outline>
</glyph>
<glyph name="c" format="2">
  <advance width="487.875"/>
  <unicode hex="0063"/>
  <anchor x="262.3636363636364" y="0.0" name="bottom"/>
  <anchor x="280.4318181818182" y="494.0" name="top"/>
  <outline>
    <contour>
      <point x="277.8863636363636" y="-11.022727272727273" type="curve" smooth="yes"/>
      <point x="337.90909090909093" y="-11.022727272727273"/>
      <point x="393.5681818181818" y="7.0227272727272725"/>
      <point x="448.54545454545456" y="45.65909090909091" type="curve"/>
      <point x="419.90909090909093" y="94.11363636363636" type="line"/>
      <point x="373.75" y="71.31818181818181"/>
      <point x="330.3863636363636" y="58.13636363636364"/>
      <point x="283.02272727272725" y="58.13636363636364" type="curve" smooth="yes"/>
      <point x="185.52272727272728" y="58.13636363636364"/>
      <point x="148.70454545454547" y="144.95454545454547"/>
      <point x="148.70454545454547" y="246.4090909090909" type="curve" smooth="yes"/>
      <point x="148.70454545454547" y="349.1363636363636"/>
      <point x="185.0681818181818" y="444.3181818181818"/>
      <point x="279.5" y="444.3181818181818" type="curve" smooth="yes"/>
      <point x="316.1363636363636" y="444.3181818181818"/>
      <point x="352.3636363636364" y="426.27272727272725"/>
      <point x="386.9318181818182" y="406.25" type="curve"/>
      <point x="350.20454545454544" y="445.20454545454544" type="line"/>
      <point x="358.02272727272725" y="422.1818181818182"/>
      <point x="365.59090909090907" y="393.59090909090907"/>
      <point x="366.0" y="380.1136363636364" type="curve" smooth="yes"/>
      <point x="365.79545454545456" y="342.02272727272725" type="line"/>
      <point x="426.9318181818182" y="339.02272727272725" type="line"/>
      <point x="437.95454545454544" y="469.8863636363636" type="line"/>
      <point x="378.15909090909093" y="489.04545454545456"/>
      <point x="337.65909090909093" y="503.4318181818182"/>
      <point x="278.45454545454544" y="503.4318181818182" type="curve" smooth="yes"/>
      <point x="125.6590909090909" y="503.4318181818182"/>
      <point x="46.18181818181818" y="400.45454545454544"/>
      <point x="46.18181818181818" y="246.4090909090909" type="curve" smooth="yes"/>
      <point x="46.18181818181818" y="91.31818181818181"/>
      <point x="123.63636363636364" y="-11.022727272727273"/>
    </contour>
  </outline>
</glyph>
<glyph name="d" format="2">
  <advance width="570.625"/>
  <unicode hex="0064"/>
  <anchor x="286.3636363636364" y="0.0" name="bottom"/>
  <anchor x="394.40909090909093" y="604.8863636363636" name="center"/>
  <anchor x="335.3863636363636" y="756.0" name="top"/>
  <anchor x="570.5227272727273" y="494.0" name="topright"/>
  <outline>
    <contour>
      <point x="246.9318181818182" y="-10.0" type="curve" smooth="yes"/>
      <point x="309.4318181818182" y="-10.0"/>
      <point x="390.65909090909093" y="45.5"/>
      <point x="399.29545454545456" y="101.31818181818181" type="curve"/>
      <point x="386.5681818181818" y="118.11363636363636" type="line"/>
      <point x="405.54545454545456" y="0.0" type="line"/>
      <point x="542.6136363636364" y="0.0" type="line"/>
      <point x="548.6136363636364" y="55.88636363636364" type="line"/>
      <point x="441.52272727272725" y="67.0909090909091" type="line"/>
      <point x="486.45454545454544" y="29.65909090909091" type="line"/>
      <point x="481.45454545454544" y="54.11363636363637"/>
      <point x="470.8636363636364" y="113.86363636363636"/>
      <point x="470.8636363636364" y="169.13636363636363" type="curve" smooth="yes"/>
      <point x="470.8636363636364" y="582.4545454545455" type="line" smooth="yes"/>
      <point x="470.8636363636364" y="618.6590909090909"/>
      <point x="474.47727272727275" y="692.1363636363636"/>
      <point x="477.6818181818182" y="737.7954545454545" type="curve"/>
      <point x="459.0681818181818" y="756.0" type="line"/>
      <point x="396.52272727272725" y="756.0" type="line"/>
      <point x="291.45454545454544" y="759.4090909090909" type="line"/>
      <point x="285.6363636363636" y="705.3181818181819" type="line"/>
      <point x="410.5" y="682.2727272727273" type="line"/>
      <point x="366.77272727272725" y="718.1363636363636" type="line"/>
      <point x="370.5681818181818" y="701.9318181818181"/>
      <point x="382.5681818181818" y="639.2727272727273"/>
      <point x="382.5681818181818" y="612.4545454545455" type="curve" smooth="yes"/>
      <point x="382.5681818181818" y="209.13636363636363" type="line"/>
      <point x="381.54545454545456" y="114.38636363636364"/>
      <point x="335.6363636363636" y="59.25"/>
      <point x="259.5681818181818" y="59.25" type="curve" smooth="yes"/>
      <point x="188.8409090909091" y="59.25"/>
      <point x="145.9318181818182" y="129.52272727272728"/>
      <point x="145.9318181818182" y="247.04545454545453" type="curve" smooth="yes"/>
      <point x="145.9318181818182" y="369.3863636363636"/>
      <point x="192.04545454545456" y="439.45454545454544"/>
      <point x="272.20454545454544" y="439.45454545454544" type="curve" smooth="yes"/>
      <point x="314.09090909090907" y="439.45454545454544"/>
      <point x="352.84090909090907" y="427.09090909090907"/>
      <point x="397.79545454545456" y="394.79545454545456" type="curve"/>
      <point x="402.75" y="474.15909090909093" type="line"/>
      <point x="339.1136363636364" y="498.04545454545456"/>
      <point x="306.70454545454544" y="503.4318181818182"/>
      <point x="261.79545454545456" y="503.4318181818182" type="curve" smooth="yes"/>
      <point x="128.8409090909091" y="503.4318181818182"/>
      <point x="47.38636363636363" y="405.6363636363636"/>
      <point x="47.38636363636363" y="246.77272727272728" type="curve" smooth="yes"/>
      <point x="47.38636363636363" y="86.56818181818181"/>
      <point x="123.3409090909091" y="-10.0"/>
    </contour>
  </outline>
</glyph>
<glyph name="e" format="2">
  <advance width="505.25"/>
  <unicode hex="0065"/>
  <anchor x="275.45454545454544" y="0.0" name="bottom"/>
  <anchor x="410.40909090909093" y="20.34090909090909" name="ogonek"/>
  <anchor x="268.65909090909093" y="494.0" name="top"/>
  <outline>
    <contour>
      <point x="277.65909090909093" y="-11.022727272727273" type="curve" smooth="yes"/>
      <point x="388.27272727272725" y="-11.022727272727273"/>
      <point x="451.8863636363636" y="46.38636363636363"/>
      <point x="456.15909090909093" y="50.43181818181818" type="curve"/>
      <point x="428.3181818181818" y="97.29545454545455" type="line"/>
      <point x="400.95454545454544" y="80.11363636363636"/>
      <point x="342.02272727272725" y="57.13636363636364"/>
      <point x="281.0681818181818" y="57.13636363636364" type="curve" smooth="yes"/>
      <point x="187.70454545454547" y="57.13636363636364"/>
      <point x="146.3181818181818" y="153.8409090909091"/>
      <point x="146.3181818181818" y="250.4318181818182" type="curve" smooth="yes"/>
      <point x="146.3181818181818" y="344.27272727272725"/>
      <point x="170.04545454545456" y="449.09090909090907"/>
      <point x="261.8636363636364" y="449.09090909090907" type="curve" smooth="yes"/>
      <point x="330.3181818181818" y="449.09090909090907"/>
      <point x="362.25" y="394.3863636363636"/>
      <point x="362.25" y="323.15909090909093" type="curve" smooth="yes"/>
      <point x="362.25" y="301.9318181818182"/>
      <point x="360.4318181818182" y="284.09090909090907"/>
      <point x="359.40909090909093" y="265.25" type="curve"/>
      <point x="399.79545454545456" y="306.59090909090907" type="line"/>
      <point x="127.56818181818181" y="286.84090909090907" type="line"/>
      <point x="127.36363636363636" y="236.11363636363637" type="line"/>
      <point x="442.5681818181818" y="236.11363636363637" type="line"/>
      <point x="459.59090909090907" y="269.54545454545456" type="line"/>
      <point x="460.6363636363636" y="410.04545454545456"/>
      <point x="406.90909090909093" y="503.4318181818182"/>
      <point x="266.5" y="503.4318181818182" type="curve" smooth="yes"/>
      <point x="120.11363636363636" y="503.4318181818182"/>
      <point x="46.18181818181818" y="396.90909090909093"/>
      <point x="46.18181818181818" y="245.0" type="curve" smooth="yes"/>
      <point x="46.18181818181818" y="94.31818181818181"/>
      <point x="126.25" y="-11.022727272727273"/>
    </contour>
  </outline>
</glyph>
<glyph name="f" format="2">
  <advance width="369.29545454545456"/>
  <unicode hex="0066"/>
  <anchor x="184.25" y="0.0" name="bottom"/>
  <anchor x="184.25" y="756.0" name="top"/>
  <outline>
    <contour>
      <point x="39.22727272727273" y="-5.0" type="line"/>
      <point x="76.22727272727273" y="-3.0"/>
      <point x="130.47727272727272" y="0.0"/>
      <point x="149.22727272727272" y="0.0" type="curve"/>
      <point x="303.5681818181818" y="0.0" type="line"/>
      <point x="309.3636363636364" y="55.88636363636364" type="line"/>
      <point x="172.5" y="66.29545454545455" type="line"/>
      <point x="216.04545454545456" y="27.045454545454547" type="line"/>
      <point x="211.8409090909091" y="52.68181818181818"/>
      <point x="205.8181818181818" y="114.6590909090909"/>
      <point x="205.8181818181818" y="169.9318181818182" type="curve" smooth="yes"/>
      <point x="205.8181818181818" y="460.0" type="line"/>
      <point x="192.20454545454547" y="437.29545454545456" type="line"/>
      <point x="336.45454545454544" y="437.29545454545456" type="line"/>
      <point x="342.27272727272725" y="494.0" type="line"/>
      <point x="192.20454545454547" y="494.0" type="line"/>
      <point x="205.8181818181818" y="482.75" type="line"/>
      <point x="202.29545454545453" y="612.5681818181819"/>
      <point x="189.95454545454547" y="713.6590909090909"/>
      <point x="283.1363636363636" y="713.6590909090909" type="curve" smooth="yes"/>
      <point x="294.34090909090907" y="713.6590909090909"/>
      <point x="320.04545454545456" y="710.7954545454545"/>
      <point x="332.77272727272725" y="710.7954545454545" type="curve"/>
      <point x="286.8181818181818" y="738.0" type="line"/>
      <point x="295.3863636363636" y="705.5227272727273"/>
      <point x="302.95454545454544" y="670.1136363636364"/>
      <point x="302.95454545454544" y="660.8636363636364" type="curve"/>
      <point x="302.54545454545456" y="623.8181818181819" type="line"/>
      <point x="348.70454545454544" y="620.8181818181819" type="line"/>
      <point x="361.54545454545456" y="762.1818181818181" type="line"/>
      <point x="343.59090909090907" y="766.0"/>
      <point x="319.20454545454544" y="770.0"/>
      <point x="293.75" y="770.0" type="curve" smooth="yes"/>
      <point x="179.77272727272728" y="770.0"/>
      <point x="117.52272727272727" y="700.3409090909091"/>
      <point x="117.52272727272727" y="595.1136363636364" type="curve" smooth="yes"/>
      <point x="117.52272727272727" y="475.34090909090907" type="line"/>
      <point x="130.3409090909091" y="496.20454545454544" type="line"/>
      <point x="40.02272727272727" y="483.59090909090907" type="line"/>
      <point x="43.02272727272727" y="437.29545454545456" type="line"/>
      <point x="131.13636363636363" y="437.29545454545456" type="line"/>
      <point x="117.52272727272727" y="453.1818181818182" type="line"/>
      <point x="117.52272727272727" y="139.9318181818182" type="line" smooth="yes"/>
      <point x="117.52272727272727" y="113.9090909090909"/>
      <point x="104.13636363636364" y="46.86363636363637"/>
      <point x="101.52272727272727" y="29.0" type="curve"/>
      <point x="146.6590909090909" y="70.5" type="line"/>
      <point x="34.22727272727273" y="47.5" type="line"/>
    </contour>
  </outline>
</glyph>
<glyph name="g" format="2">
  <advance width="521.625"/>
  <unicode hex="0067"/>
  <anchor x="249.04545454545453" y="494.0" name="top"/>
  <outline>
    <contour>
      <point x="226.88636363636363" y="-235.0" type="curve" smooth="yes"/>
      <point x="368.1363636363636" y="-235.0"/>
      <point x="482.95454545454544" y="-149.0"/>
      <point x="482.95454545454544" y="-43.77272727272727" type="curve" smooth="yes"/>
      <point x="482.95454545454544" y="4.431818181818182"/>
      <point x="466.54545454545456" y="34.63636363636363"/>
      <point x="437.3181818181818" y="44.45454545454545" type="curve" smooth="yes"/>
      <point x="400.3863636363636" y="55.84090909090909"/>
      <point x="319.20454545454544" y="65.02272727272727"/>
      <point x="242.6590909090909" y="74.45454545454545" type="curve" smooth="yes"/>
      <point x="169.13636363636363" y="82.8409090909091"/>
      <point x="150.11363636363637" y="89.6590909090909"/>
      <point x="150.11363636363637" y="110.06818181818181" type="curve" smooth="yes"/>
      <point x="150.11363636363637" y="116.68181818181819"/>
      <point x="160.5" y="135.6590909090909"/>
      <point x="188.27272727272728" y="163.8181818181818" type="curve"/>
      <point x="151.5909090909091" y="176.25" type="line"/>
      <point x="94.61363636363636" y="127.8409090909091"/>
      <point x="67.81818181818181" y="100.02272727272727"/>
      <point x="67.81818181818181" y="84.81818181818181" type="curve" smooth="yes"/>
      <point x="67.81818181818181" y="44.56818181818182"/>
      <point x="86.02272727272727" y="19.113636363636363"/>
      <point x="130.4090909090909" y="4.704545454545454" type="curve" smooth="yes"/>
      <point x="170.61363636363637" y="-8.113636363636363"/>
      <point x="190.02272727272728" y="-11.522727272727273"/>
      <point x="225.0" y="-16.522727272727273" type="curve" smooth="yes"/>
      <point x="355.0" y="-33.34090909090909" type="line" smooth="yes"/>
      <point x="383.95454545454544" y="-37.13636363636364"/>
      <point x="393.5681818181818" y="-48.54545454545455"/>
      <point x="393.5681818181818" y="-76.88636363636364" type="curve" smooth="yes"/>
      <point x="393.5681818181818" y="-135.77272727272728"/>
      <point x="337.0681818181818" y="-174.88636363636363"/>
      <point x="257.3636363636364" y="-174.88636363636363" type="curve" smooth="yes"/>
      <point x="162.8181818181818" y="-174.88636363636363"/>
      <point x="118.4090909090909" y="-144.5"/>
      <point x="118.4090909090909" y="-78.38636363636364" type="curve" smooth="yes"/>
      <point x="118.4090909090909" y="-58.0"/>
      <point x="128.4090909090909" y="-40.15909090909091"/>
      <point x="170.88636363636363" y="10.659090909090908" type="curve"/>
      <point x="130.8181818181818" y="18.136363636363637" type="line"/>
      <point x="70.79545454545455" y="-25.204545454545453"/>
      <point x="26.772727272727273" y="-70.18181818181819"/>
      <point x="26.772727272727273" y="-90.4090909090909" type="curve" smooth="yes"/>
      <point x="26.772727272727273" y="-185.20454545454547"/>
      <point x="95.20454545454545" y="-235.0"/>
    </contour>
    <contour>
      <point x="243.25" y="141.4318181818182" type="curve" smooth="yes"/>
      <point x="361.1136363636364" y="141.4318181818182"/>
      <point x="439.15909090909093" y="213.63636363636363"/>
      <point x="439.15909090909093" y="322.84090909090907" type="curve" smooth="yes"/>
      <point x="439.15909090909093" y="431.65909090909093"/>
      <point x="361.29545454545456" y="503.4318181818182"/>
      <point x="244.0681818181818" y="503.4318181818182" type="curve" smooth="yes"/>
      <point x="126.20454545454545" y="503.4318181818182"/>
      <point x="48.15909090909091" y="432.02272727272725"/>
      <point x="48.15909090909091" y="322.8181818181818" type="curve" smooth="yes"/>
      <point x="48.15909090909091" y="213.5909090909091"/>
      <point x="126.63636363636364" y="141.4318181818182"/>
    </contour>
    <contour>
      <point x="243.45454545454547" y="194.70454545454547" type="curve" smooth="yes"/>
      <point x="176.4090909090909" y="194.70454545454547"/>
      <point x="142.88636363636363" y="237.0681818181818"/>
      <point x="142.88636363636363" y="322.40909090909093" type="curve" smooth="yes"/>
      <point x="142.88636363636363" y="407.3863636363636"/>
      <point x="177.4090909090909" y="450.95454545454544"/>
      <point x="244.0681818181818" y="450.95454545454544" type="curve" smooth="yes"/>
      <point x="311.1136363636364" y="450.95454545454544"/>
      <point x="343.6363636363636" y="408.59090909090907"/>
      <point x="343.6363636363636" y="323.25" type="curve" smooth="yes"/>
      <point x="343.6363636363636" y="236.6818181818182"/>
      <point x="310.90909090909093" y="194.70454545454547"/>
    </contour>
    <contour>
      <point x="489.3181818181818" y="437.09090909090907" type="line"/>
      <point x="482.1363636363636" y="505.59090909090907" type="line"/>
      <point x="323.54545454545456" y="475.02272727272725" type="line"/>
      <point x="388.40909090909093" y="438.6818181818182" type="line"/>
    </contour>
  </outline>
</glyph>
<glyph name="h" format="2">
  <advance width="612.7727272727273"/>
  <unicode hex="0068"/>
  <anchor x="304.54545454545456" y="0.0" name="bottom"/>
  <anchor x="183.0681818181818" y="604.8863636363636" name="center"/>
  <anchor x="169.5681818181818" y="726.5681818181819" name="top"/>
  <outline>
    <contour>
      <point x="25.795454545454547" y="-5.0" type="line"/>
      <point x="63.40909090909091" y="-3.0"/>
      <point x="119.0909090909091" y="0.0"/>
      <point x="137.8409090909091" y="0.0" type="curve"/>
      <point x="271.3863636363636" y="0.0" type="line"/>
      <point x="277.97727272727275" y="55.88636363636364" type="line"/>
      <point x="161.9090909090909" y="66.29545454545455" type="line"/>
      <point x="205.45454545454547" y="27.045454545454547" type="line"/>
      <point x="201.25" y="52.68181818181818"/>
      <point x="195.22727272727272" y="114.6590909090909"/>
      <point x="195.22727272727272" y="169.9318181818182" type="curve" smooth="yes"/>
      <point x="195.22727272727272" y="272.95454545454544" type="line" smooth="yes"/>
      <point x="196.02272727272728" y="370.1136363636364"/>
      <point x="244.22727272727272" y="437.20454545454544"/>
      <point x="318.8863636363636" y="437.20454545454544" type="curve" smooth="yes"/>
      <point x="399.52272727272725" y="437.20454545454544"/>
      <point x="418.34090909090907" y="360.6136363636364"/>
      <point x="418.34090909090907" y="280.77272727272725" type="curve" smooth="yes"/>
      <point x="418.34090909090907" y="139.9318181818182" type="line" smooth="yes"/>
      <point x="418.34090909090907" y="109.81818181818181"/>
      <point x="410.15909090909093" y="64.61363636363636"/>
      <point x="404.5681818181818" y="41.34090909090909" type="curve"/>
      <point x="447.5" y="71.70454545454545" type="line"/>
      <point x="343.8181818181818" y="47.5" type="line"/>
      <point x="348.8181818181818" y="-5.0" type="line"/>
      <point x="384.65909090909093" y="-3.0"/>
      <point x="437.90909090909093" y="0.0"/>
      <point x="452.90909090909093" y="0.0" type="curve"/>
      <point x="584.3863636363636" y="0.0" type="line"/>
      <point x="590.9772727272727" y="55.88636363636364" type="line"/>
      <point x="474.90909090909093" y="66.29545454545455" type="line"/>
      <point x="517.6590909090909" y="35.20454545454545" type="line"/>
      <point x="513.6590909090909" y="61.40909090909091"/>
      <point x="506.6363636363636" y="117.04545454545455"/>
      <point x="506.6363636363636" y="169.9318181818182" type="curve" smooth="yes"/>
      <point x="506.6363636363636" y="282.04545454545456" type="line" smooth="yes"/>
      <point x="506.6363636363636" y="417.1363636363636"/>
      <point x="471.8863636363636" y="503.0"/>
      <point x="336.79545454545456" y="503.0" type="curve" smooth="yes"/>
      <point x="259.40909090909093" y="503.0"/>
      <point x="208.8181818181818" y="457.02272727272725"/>
      <point x="182.95454545454547" y="408.34090909090907" type="curve"/>
      <point x="195.22727272727272" y="388.70454545454544" type="line"/>
      <point x="195.22727272727272" y="581.6590909090909" type="line" smooth="yes"/>
      <point x="195.22727272727272" y="629.2727272727273"/>
      <point x="198.8409090909091" y="705.1363636363636"/>
      <point x="202.04545454545456" y="737.7954545454545" type="curve"/>
      <point x="182.63636363636363" y="756.0" type="line"/>
      <point x="120.88636363636364" y="756.0" type="line"/>
      <point x="26.15909090909091" y="759.4090909090909" type="line"/>
      <point x="20.34090909090909" y="705.3181818181819" type="line"/>
      <point x="135.6590909090909" y="679.8863636363636" type="line"/>
      <point x="90.31818181818181" y="731.8181818181819" type="line"/>
      <point x="95.52272727272727" y="699.7727272727273"/>
      <point x="106.13636363636364" y="637.6818181818181"/>
      <point x="106.13636363636364" y="611.6590909090909" type="curve" smooth="yes"/>
      <point x="106.13636363636364" y="139.9318181818182" type="line" smooth="yes"/>
      <point x="106.13636363636364" y="113.9090909090909"/>
      <point x="93.54545454545455" y="46.86363636363637"/>
      <point x="90.13636363636364" y="29.0" type="curve"/>
      <point x="136.0681818181818" y="70.5" type="line"/>
      <point x="20.795454545454547" y="47.5" type="line"/>
    </contour>
  </outline>
</glyph>
<glyph name="k" format="2">
  <advance width="610.9772727272727"/>
  <unicode hex="006B"/>
  <anchor x="304.8863636363636" y="0.0" name="bottom"/>
  <anchor x="304.8863636363636" y="756.0" name="top"/>
  <outline>
    <contour>
      <point x="25.795454545454547" y="-5.0" type="line"/>
      <point x="63.40909090909091" y="-3.0"/>
      <point x="119.0909090909091" y="0.0"/>
      <point x="137.8409090909091" y="0.0" type="curve"/>
      <point x="271.3863636363636" y="0.0" type="line"/>
      <point x="277.97727272727275" y="55.88636363636364" type="line"/>
      <point x="161.9090909090909" y="66.29545454545455" type="line"/>
      <point x="205.45454545454547" y="27.045454545454547" type="line"/>
      <point x="201.25" y="52.68181818181818"/>
      <point x="195.22727272727272" y="114.6590909090909"/>
      <point x="195.22727272727272" y="169.9318181818182" type="curve" smooth="yes"/>
      <point x="195.22727272727272" y="581.6590909090909" type="line" smooth="yes"/>
      <point x="195.22727272727272" y="629.2727272727273"/>
      <point x="198.8409090909091" y="705.1363636363636"/>
      <point x="202.04545454545456" y="737.7954545454545" type="curve"/>
      <point x="182.63636363636363" y="756.0" type="line"/>
      <point x="120.88636363636364" y="756.0" type="line"/>
      <point x="26.15909090909091" y="759.4090909090909" type="line"/>
      <point x="20.34090909090909" y="705.3181818181819" type="line"/>
      <point x="135.6590909090909" y="679.8863636363636" type="line"/>
      <point x="90.31818181818181" y="731.8181818181819" type="line"/>
      <point x="95.52272727272727" y="699.7727272727273"/>
      <point x="106.13636363636364" y="637.6818181818181"/>
      <point x="106.13636363636364" y="611.6590909090909" type="curve" smooth="yes"/>
      <point x="106.13636363636364" y="139.9318181818182" type="line" smooth="yes"/>
      <point x="106.13636363636364" y="113.9090909090909"/>
      <point x="93.54545454545455" y="46.86363636363637"/>
      <point x="90.13636363636364" y="29.0" type="curve"/>
      <point x="136.0681818181818" y="70.5" type="line"/>
      <point x="20.795454545454547" y="47.5" type="line"/>
    </contour>
    <contour>
      <point x="343.5" y="-4.7727272727272725" type="line"/>
      <point x="380.84090909090907" y="-2.3863636363636362"/>
      <point x="427.15909090909093" y="0.0"/>
      <point x="449.02272727272725" y="0.0" type="curve" smooth="yes"/>
      <point x="576.3409090909091" y="0.0" type="line"/>
      <point x="582.3409090909091" y="55.88636363636364" type="line"/>
      <point x="480.8181818181818" y="65.5" type="line"/>
      <point x="542.7954545454545" y="44.40909090909091" type="line"/>
      <point x="508.22727272727275" y="69.63636363636364"/>
      <point x="444.59090909090907" y="118.36363636363636"/>
      <point x="431.40909090909093" y="133.36363636363637" type="curve" smooth="yes"/>
      <point x="276.27272727272725" y="309.1363636363636" type="line"/>
      <point x="275.25" y="249.0909090909091" type="line"/>
      <point x="381.25" y="366.0" type="line" smooth="yes"/>
      <point x="403.22727272727275" y="389.20454545454544"/>
      <point x="467.8181818181818" y="427.1818181818182"/>
      <point x="497.8409090909091" y="442.20454545454544" type="curve"/>
      <point x="439.22727272727275" y="427.34090909090907" type="line"/>
      <point x="550.4545454545455" y="439.1363636363636" type="line"/>
      <point x="548.4772727272727" y="494.0" type="line"/>
      <point x="422.1363636363636" y="494.0" type="line"/>
      <point x="400.8863636363636" y="494.0"/>
      <point x="358.29545454545456" y="494.0"/>
      <point x="326.77272727272725" y="494.0" type="curve"/>
      <point x="321.77272727272725" y="437.29545454545456" type="line"/>
      <point x="405.3636363636364" y="428.52272727272725" type="line"/>
      <point x="392.5" y="463.84090909090907" type="line"/>
      <point x="206.22727272727272" y="265.0" type="line"/>
      <point x="341.3636363636364" y="114.77272727272727" type="line"/>
      <point x="388.8181818181818" y="60.04545454545455" type="line"/>
      <point x="339.52272727272725" y="49.65909090909091" type="line"/>
    </contour>
  </outline>
</glyph>
<glyph name="l" format="2">
  <advance width="299.77272727272725"/>
  <unicode hex="006C"/>
  <anchor x="151.0681818181818" y="0.0" name="bottom"/>
  <anchor x="150.13636363636363" y="382.0" name="center"/>
  <anchor x="366.04545454545456" y="410.0" name="centerright"/>
  <anchor x="133.61363636363637" y="756.0" name="top"/>
  <anchor x="296.47727272727275" y="494.0" name="topright"/>
  <outline>
    <contour>
      <point x="25.795454545454547" y="-5.0" type="line"/>
      <point x="63.40909090909091" y="-3.0"/>
      <point x="119.0909090909091" y="0.0"/>
      <point x="137.8409090909091" y="0.0" type="curve" smooth="yes"/>
      <point x="271.3863636363636" y="0.0" type="line"/>
      <point x="277.97727272727275" y="55.88636363636364" type="line"/>
      <point x="161.9090909090909" y="66.29545454545455" type="line"/>
      <point x="205.45454545454547" y="27.045454545454547" type="line"/>
      <point x="201.25" y="52.68181818181818"/>
      <point x="195.22727272727272" y="113.86363636363636"/>
      <point x="195.22727272727272" y="169.9318181818182" type="curve" smooth="yes"/>
      <point x="195.22727272727272" y="581.6590909090909" type="line" smooth="yes"/>
      <point x="195.22727272727272" y="629.2727272727273"/>
      <point x="198.8409090909091" y="705.1363636363636"/>
      <point x="202.04545454545456" y="737.7954545454545" type="curve"/>
      <point x="182.63636363636363" y="756.0" type="line"/>
      <point x="120.88636363636364" y="756.0" type="line"/>
      <point x="26.15909090909091" y="759.4090909090909" type="line"/>
      <point x="20.34090909090909" y="705.3181818181819" type="line"/>
      <point x="135.6590909090909" y="679.8863636363636" type="line"/>
      <point x="90.31818181818181" y="731.8181818181819" type="line"/>
      <point x="95.52272727272727" y="699.7727272727273"/>
      <point x="106.13636363636364" y="637.6818181818181"/>
      <point x="106.13636363636364" y="611.6590909090909" type="curve" smooth="yes"/>
      <point x="106.13636363636364" y="139.9318181818182" type="line" smooth="yes"/>
      <point x="106.13636363636364" y="113.9090909090909"/>
      <point x="93.54545454545455" y="46.86363636363637"/>
      <point x="90.13636363636364" y="29.0" type="curve"/>
      <point x="136.0681818181818" y="70.5" type="line"/>
      <point x="20.795454545454547" y="47.5" type="line"/>
    </contour>
  </outline>
</glyph>
<glyph name="m" format="2">
  <advance width="908.625"/>
  <unicode hex="006D"/>
  <anchor x="454.90909090909093" y="0.0" name="bottom"/>
  <anchor x="454.90909090909093" y="494.0" name="top"/>
  <outline>
    <contour>
      <point x="645.0681818181819" y="-5.0" type="line"/>
      <point x="679.5" y="-3.0"/>
      <point x="739.1590909090909" y="0.0"/>
      <point x="749.1590909090909" y="0.0" type="curve"/>
      <point x="880.6363636363636" y="0.0" type="line"/>
      <point x="886.4318181818181" y="55.88636363636364" type="line"/>
      <point x="771.1590909090909" y="66.29545454545455" type="line"/>
      <point x="813.2954545454545" y="41.43181818181818" type="line"/>
      <point x="810.5" y="57.81818181818182"/>
      <point x="802.8863636363636" y="119.93181818181819"/>
      <point x="802.8863636363636" y="169.9318181818182" type="curve" smooth="yes"/>
      <point x="802.8863636363636" y="283.27272727272725" type="line" smooth="yes"/>
      <point x="802.8863636363636" y="418.3636363636364"/>
      <point x="771.75" y="503.4318181818182"/>
      <point x="647.8636363636364" y="503.4318181818182" type="curve" smooth="yes"/>
      <point x="570.7954545454545" y="503.4318181818182"/>
      <point x="505.0681818181818" y="455.5681818181818"/>
      <point x="477.3863636363636" y="368.79545454545456" type="curve"/>
      <point x="506.6818181818182" y="273.3863636363636" type="line"/>
      <point x="508.27272727272725" y="370.54545454545456"/>
      <point x="555.6590909090909" y="437.6363636363636"/>
      <point x="627.1136363636364" y="437.6363636363636" type="curve" smooth="yes"/>
      <point x="698.7727272727273" y="437.6363636363636"/>
      <point x="714.5909090909091" y="361.04545454545456"/>
      <point x="714.5909090909091" y="281.20454545454544" type="curve" smooth="yes"/>
      <point x="714.5909090909091" y="139.9318181818182" type="line" smooth="yes"/>
      <point x="714.5909090909091" y="117.20454545454545"/>
      <point x="706.6136363636364" y="61.52272727272727"/>
      <point x="702.0227272727273" y="37.45454545454545" type="curve"/>
      <point x="743.75" y="71.70454545454545" type="line"/>
      <point x="640.0681818181819" y="47.5" type="line"/>
    </contour>
    <contour>
      <point x="41.84090909090909" y="-5.0" type="line"/>
      <point x="79.45454545454545" y="-3.0"/>
      <point x="135.13636363636363" y="0.0"/>
      <point x="153.88636363636363" y="0.0" type="curve"/>
      <point x="287.4318181818182" y="0.0" type="line"/>
      <point x="294.02272727272725" y="55.88636363636364" type="line"/>
      <point x="177.95454545454547" y="66.29545454545455" type="line"/>
      <point x="221.5" y="27.045454545454547" type="line"/>
      <point x="217.29545454545456" y="52.68181818181818"/>
      <point x="211.27272727272728" y="114.6590909090909"/>
      <point x="211.27272727272728" y="169.9318181818182" type="curve" smooth="yes"/>
      <point x="211.27272727272728" y="315.90909090909093" type="line"/>
      <point x="194.0" y="475.79545454545456" type="line"/>
      <point x="174.5909090909091" y="494.0" type="line"/>
      <point x="42.20454545454545" y="494.0" type="line"/>
      <point x="36.38636363636363" y="437.29545454545456" type="line"/>
      <point x="151.70454545454547" y="417.8863636363636" type="line"/>
      <point x="105.77272727272727" y="467.77272727272725" type="line"/>
      <point x="109.77272727272727" y="445.95454545454544"/>
      <point x="122.18181818181819" y="375.6818181818182"/>
      <point x="122.18181818181819" y="349.65909090909093" type="curve" smooth="yes"/>
      <point x="122.18181818181819" y="139.9318181818182" type="line"/>
      <point x="122.18181818181819" y="113.9090909090909"/>
      <point x="109.5909090909091" y="46.86363636363637"/>
      <point x="106.18181818181819" y="29.0" type="curve"/>
      <point x="152.11363636363637" y="70.5" type="line"/>
      <point x="36.84090909090909" y="47.5" type="line"/>
    </contour>
    <contour>
      <point x="348.8636363636364" y="-5.0" type="line"/>
      <point x="383.29545454545456" y="-3.0"/>
      <point x="442.95454545454544" y="0.0"/>
      <point x="452.95454545454544" y="0.0" type="curve"/>
      <point x="584.4318181818181" y="0.0" type="line"/>
      <point x="591.0227272727273" y="55.88636363636364" type="line"/>
      <point x="474.95454545454544" y="66.29545454545455" type="line"/>
      <point x="517.0909090909091" y="41.43181818181818" type="line"/>
      <point x="514.2954545454545" y="57.81818181818182"/>
      <point x="506.6818181818182" y="119.93181818181819"/>
      <point x="506.6818181818182" y="169.9318181818182" type="curve" smooth="yes"/>
      <point x="506.6818181818182" y="283.27272727272725" type="line" smooth="yes"/>
      <point x="506.6818181818182" y="418.3636363636364"/>
      <point x="475.54545454545456" y="503.4318181818182"/>
      <point x="351.65909090909093" y="503.4318181818182" type="curve" smooth="yes"/>
      <point x="274.59090909090907" y="503.4318181818182"/>
      <point x="208.86363636363637" y="454.34090909090907"/>
      <point x="181.1818181818182" y="368.3636363636364" type="curve"/>
      <point x="211.27272727272728" y="272.95454545454544" type="line"/>
      <point x="212.0681818181818" y="370.1136363636364"/>
      <point x="259.45454545454544" y="437.6363636363636"/>
      <point x="330.90909090909093" y="437.6363636363636" type="curve" smooth="yes"/>
      <point x="402.5681818181818" y="437.6363636363636"/>
      <point x="418.3863636363636" y="361.04545454545456"/>
      <point x="418.3863636363636" y="281.20454545454544" type="curve" smooth="yes"/>
      <point x="418.3863636363636" y="139.9318181818182" type="line" smooth="yes"/>
      <point x="418.3863636363636" y="117.20454545454545"/>
      <point x="410.40909090909093" y="61.52272727272727"/>
      <point x="405.8181818181818" y="37.45454545454545" type="curve"/>
      <point x="447.54545454545456" y="71.70454545454545" type="line"/>
      <point x="343.8636363636364" y="47.5" type="line"/>
    </contour>
  </outline>
</glyph>
